<svg xmlns="http://www.w3.org/2000/svg" viewBox="0 0 44.61 44.61"><defs><style>.cls-1{fill:#fff;}.cls-1,.cls-2{fill-rule:evenodd;}.cls-2{fill:#be1a37;}</style></defs><title>english</title><g id="Capa_2" data-name="Capa 2"><g id="Capa_1-2" data-name="Capa 1"><g id="g34083"><path id="path25727" class="cls-1" d="M22.3,44.61A22.31,22.31,0,1,0,0,22.3,22.31,22.31,0,0,0,22.3,44.61Z"/><path id="path25729" class="cls-1" d="M22,41.19h.59a18.89,18.89,0,1,0-.59,0Z"/><path id="path25731" class="cls-2" d="M22,41.19h.59a18.45,18.45,0,0,0,3.59-.4v-37a19.07,19.07,0,0,0-7.77,0v37A18.45,18.45,0,0,0,22,41.19Z"/><path id="path25733" class="cls-2" d="M3.82,26.19h37a19.07,19.07,0,0,0,0-7.77h-37a19.07,19.07,0,0,0,0,7.77Z"/></g></g></g></svg>