<svg xmlns="http://www.w3.org/2000/svg" viewBox="0 0 44.61 44.61"><defs><style>.cls-1{fill:#fff;}.cls-1,.cls-10,.cls-11,.cls-12,.cls-13,.cls-14,.cls-2,.cls-3,.cls-4,.cls-5,.cls-6,.cls-7,.cls-8,.cls-9{fill-rule:evenodd;}.cls-2{fill:#b51c2d;}.cls-3{fill:#f1c115;}.cls-4{fill:#9d192a;}.cls-5{fill:#100f0e;}.cls-6{fill:#bcb11a;}.cls-7{fill:#cbc9c7;}.cls-8{fill:#429169;}.cls-9{fill:#4053ad;}.cls-10{fill:#b7b61b;}.cls-11{fill:#cd2f48;}.cls-12{fill:#e049ac;}.cls-13{fill:#f5d17b;}.cls-14{fill:#444ba8;}</style></defs><title>espanol</title><g id="Capa_2" data-name="Capa 2"><g id="Capa_1-2" data-name="Capa 1"><g id="g34510"><path id="path26311" class="cls-1" d="M22.3,44.61A22.31,22.31,0,1,0,0,22.3,22.31,22.31,0,0,0,22.3,44.61Z"/><path id="path26313" class="cls-2" d="M22.44,3.42h-.27a18.89,18.89,0,1,0,.27,0Z"/><path id="path26315" class="cls-3" d="M5.94,31.75H38.66a18.93,18.93,0,0,0,0-18.89H5.94a18.9,18.9,0,0,0,0,18.89Z"/><path id="path26317" class="cls-4" d="M3.6,19.63l.17.05a.36.36,0,0,1,.09.08.59.59,0,0,1,0,.08.14.14,0,0,1,0,.09l0,.06,0,.07-.06.05s0,0-.07,0l-.14,0Z"/><path id="path26319" class="cls-5" d="M3.54,20.12h.14s0,0,.06,0L3.85,20l0-.13,0-.08a.34.34,0,0,0-.09-.08.42.42,0,0,0-.12,0l0,0h0l.17,0a.38.38,0,0,1,.09.09l0,.08h0v.09l-.09.14-.06.05a.14.14,0,0,1-.08,0l-.14,0Z"/><path id="path26321" class="cls-6" d="M3.61,19.58h.06a.07.07,0,0,1,0,.05s-.07,0-.12.08Z"/><path id="path26323" class="cls-5" d="M3.59,19.73v0l.09-.07,0,0A.14.14,0,0,0,3.59,19.73Zm0-.16h0v0h0Z"/><path id="path26325" class="cls-5" d="M3.6,19.66v0s.08,0,.1,0v0A.08.08,0,0,0,3.6,19.66Z"/><path id="path26327" class="cls-6" d="M3.53,20.19l.13,0,0,.07,0,.06-.07,0Z"/><path id="path26329" class="cls-5" d="M3.53,20.18l.13,0,0,.08h0l0-.08-.12,0Z"/><path id="path26331" class="cls-6" d="M3.51,20.44h0c.06,0,.09,0,.08-.07s0,0,0,0l-.06,0Z"/><path id="path26333" class="cls-5" d="M3.51,20.43h0c.05,0,.08,0,.07,0a.19.19,0,0,0-.09,0v0l.06,0c0,.06,0,.09,0,.11h0Z"/><path id="path26335" class="cls-6" d="M3.66,20.14l0,0a.13.13,0,0,1-.08,0v0a.5.5,0,0,1,.13,0Z"/><path id="path26337" class="cls-5" d="M3.54,20.1h.09v0s0,0-.08,0h0Zm.11.09a.42.42,0,0,0-.12,0v0l.11,0h0Z"/><path id="path26339" class="cls-6" d="M3.54,20.09h0a.07.07,0,0,0,.06,0l0,0v0a.06.06,0,0,0,.05.06.09.09,0,0,0,.06,0L3.81,20v0a.28.28,0,0,1-.08.09l-.07,0a.08.08,0,0,1-.05-.05l-.06,0h0Z"/><path id="path26341" class="cls-5" d="M3.54,20.1v0h0v0l.08,0,0,.08,0,0,.07,0a.13.13,0,0,1-.07.13l-.06,0,0,0h0l.06,0a.38.38,0,0,0,.07-.08c-.09.07-.12.07-.12.07h0l0-.07A.1.1,0,0,1,3.54,20.1Zm0,0Z"/><path id="path26343" class="cls-6" d="M3.53,20.15l.14,0s0,0,0,0,0,0,0,0l-.13,0Z"/><path id="path26345" class="cls-5" d="M3.53,20.2v0l.13,0h0Zm.13,0a.4.4,0,0,0-.13,0v0l.14,0Z"/><path id="path26347" class="cls-4" d="M3.65,20.31l0,0h0l0,0Z"/><path id="path26349" class="cls-4" d="M3.51,20.38h0Z"/><path id="path26351" class="cls-5" d="M3.51,20.39h.05l-.05,0Z"/><path id="path26353" class="cls-6" d="M3.66,20a0,0,0,0,0,0,0s0,0,0,0,0,0,0,0S3.65,20.06,3.66,20Z"/><path id="path26355" class="cls-6" d="M3.61,20l0,0h0v-.08h0Z"/><path id="path26357" class="cls-6" d="M3.69,20l0,0h.11v0L3.74,20Z"/><path id="path26359" class="cls-6" d="M3.83,20.05l0-.05.05,0a0,0,0,0,0,0,0l0,0v0s0,0,0,0a.08.08,0,0,0,0,.05Z"/><path id="path26361" class="cls-6" d="M3.83,20h0a0,0,0,0,0,0,0s0,0,.05,0S3.84,20,3.83,20Z"/><path id="path26363" class="cls-6" d="M3.46,20.91h.46v-.44H3.51C3.49,20.61,3.48,20.76,3.46,20.91Z"/><path id="path26365" class="cls-5" d="M3.91,20.47h0v.47H3.46v0h.45Z"/><path id="path26367" class="cls-6" d="M3.45,21.2h.29a.11.11,0,0,1-.07-.1.11.11,0,0,1,.08-.1H3.46Z"/><path id="path26369" class="cls-5" d="M3.45,21.21v0h.23a.11.11,0,0,1,0-.08.12.12,0,0,1,0-.1s0,.07,0,.1a.11.11,0,0,0,.07.09h0s0,0,0,0H3.45Z"/><path id="path26371" class="cls-6" d="M3.45,21.2h.26s.07,0,.07.05,0,.06-.07.06H3.44Z"/><path id="path26373" class="cls-5" d="M3.44,21.3h.27a.06.06,0,0,0,.06-.05H3.44v-.06h.26a.07.07,0,1,1,0,.14H3.44Z"/><path id="path26375" class="cls-6" d="M3.46,20.91h.25s.07,0,.07.05,0,.05-.07.05H3.46Z"/><path id="path26377" class="cls-5" d="M3.46,21h.25s.06,0,.06,0H3.46v-.06h.25A.08.08,0,0,1,3.8,21s0,.06-.09.06H3.46Z"/><path id="path26379" class="cls-7" d="M3.69,25.54V21.38H3.43c0,.31,0,.62,0,.93A19.11,19.11,0,0,0,3.69,25.54Z"/><path id="path26381" class="cls-5" d="M3.49,24v-.2l0-2.44h0Z"/><path id="path26383" class="cls-5" d="M3.68,21.38H3.43v0h.26V25.6l0-.15Z"/><path id="path26385" class="cls-4" d="M4.93,23.61a4.22,4.22,0,0,0-1.23-.2H3.45c0-.23,0-.47,0-.7h.27a3.87,3.87,0,0,1,1.24.17Z"/><path id="path26387" class="cls-5" d="M3.68,22.73H3.42v0a4,4,0,0,1,1.52.17v.74a5.32,5.32,0,0,0-1.25-.19H3.45v0H3.7a3.9,3.9,0,0,1,1.24.2l0-.72a4.31,4.31,0,0,0-1.23-.15Z"/><path id="path26389" class="cls-4" d="M3.69,23.91a.9.9,0,0,1,.45.15h0c0,.08-.15.24-.46.43Z"/><path id="path26391" class="cls-5" d="M3.68,24.52v-.61a1,1,0,0,1,.47.13c.07.14-.25.35-.45.47Zm0-.6,0,.55c.35-.21.45-.34.42-.39A.84.84,0,0,0,3.69,23.92Z"/><path id="path26393" class="cls-4" d="M3.55,24.58c.39-.22.64-.42.6-.51h0a3.71,3.71,0,0,1,.09.62c0,.08-.2.29-.6.52C3.6,25,3.58,24.78,3.55,24.58Z"/><path id="path26395" class="cls-5" d="M4.14,24.1c0,.11-.25.31-.59.49v0c.38-.2.58-.38.59-.47h0a2.31,2.31,0,0,1,.1.59c0,.14-.27.34-.61.54v0a1.52,1.52,0,0,0,.59-.46A4.57,4.57,0,0,0,4.14,24.1Z"/><path id="path26397" class="cls-6" d="M3.52,23.33c.06-.17.14-.33.21-.5H3.65c0,.12-.09.24-.14.36L3.43,23v.28h.08Z"/><path id="path26399" class="cls-6" d="M4.21,23l0-.06a.32.32,0,0,0-.14,0c-.13,0-.21,0-.22.13s.25.15.24.27-.06.06-.12.06a.13.13,0,0,1-.11-.09h0s0,.05,0,.08a.34.34,0,0,0,.14.05c.14,0,.24,0,.25-.13S4,23.05,4,23s0-.07.1-.06a.13.13,0,0,1,.1.07Z"/><path id="path26401" class="cls-4" d="M14.27,20a.4.4,0,0,1-.09.07s-.09,0-.09,0a.21.21,0,0,1-.08.05S13.9,20,13.9,20s0,.06-.08.07a.08.08,0,0,1-.08,0l-.05,0h0l0,0,0-.06h-.05l0-.08s0-.05,0-.05.06-.1.17-.12a.3.3,0,0,1,.16,0,.42.42,0,0,1,.23-.06.44.44,0,0,1,.23.05.49.49,0,0,1,.23-.05.44.44,0,0,1,.24.06.3.3,0,0,1,.16,0c.1,0,.18.08.17.12a.43.43,0,0,0,0,.05L15,20h0l-.05.06,0,0h0l0,0s-.05,0-.08,0a.25.25,0,0,1-.09-.07s-.05.06-.1.05a.15.15,0,0,1-.08-.05.13.13,0,0,1-.1,0A.4.4,0,0,1,14.27,20Z"/><path id="path26403" class="cls-5" d="M14.87,20.15h0l0,0-.06,0a.27.27,0,0,1-.11-.08.13.13,0,0,1-.09.05.22.22,0,0,1-.1-.05.09.09,0,0,1-.07,0c-.06,0-.11-.07-.12-.07a.13.13,0,0,1-.08.07l-.09,0s0,0-.08.05a.27.27,0,0,1-.12-.05s0,.06-.07.08l0,0h0a.13.13,0,0,0,.08-.07s.07,0,.1,0a.2.2,0,0,0,.09,0s.06,0,.09,0a.17.17,0,0,0,.09-.07.28.28,0,0,0,.11.06.15.15,0,0,0,.08,0s.05,0,.09,0a.43.43,0,0,0,.1,0s0,.06.09.07h.09l0,.05.18-.19c0-.07-.05-.13-.16-.15h-.13a.21.21,0,0,1,.14,0c.11,0,.19.08.18.13L15,20Zm-1.33-.1h0l0-.09c0-.1.07-.16.18-.18l.09,0a.82.82,0,0,1,.54,0,.61.61,0,0,1,.46,0,.68.68,0,0,0-.46,0,.56.56,0,0,0-.46,0h-.17c-.11,0-.17.08-.16.11Z"/><path id="path26405" class="cls-6" d="M14.17,19.7c0-.09,0-.15.1-.15s.1.06.1.15,0,.14-.1.14S14.17,19.78,14.17,19.7Z"/><path id="path26407" class="cls-5" d="M14.27,19.85c-.06,0-.11-.07-.11-.15a.12.12,0,1,1,.23,0A.14.14,0,0,1,14.27,19.85Zm0-.3s-.09.07-.09.15a.09.09,0,1,0,.18,0C14.36,19.62,14.32,19.55,14.27,19.55Z"/><path id="path26409" class="cls-6" d="M14.23,19.7c0-.08,0-.14,0-.14s.05.06.05.14,0,.13-.05.13S14.23,19.77,14.23,19.7Z"/><path id="path26411" class="cls-6" d="M13.74,20.3l0-.08a2.15,2.15,0,0,1,.57-.07,2.24,2.24,0,0,1,.58.07.28.28,0,0,1,0,.07l0,.06a2.16,2.16,0,0,0-.51-.07,1.94,1.94,0,0,0-.51.07l0-.05Z"/><path id="path26413" class="cls-5" d="M13.75,20.36h0l0-.05,0-.08a1.73,1.73,0,0,1,.58-.08,2,2,0,0,1,.58.07l0,.08h0l0-.08a2.94,2.94,0,0,0-.57-.05,2.29,2.29,0,0,0-.56.06s0,0,0,.07v.05a1.59,1.59,0,0,1,.51-.07,3.46,3.46,0,0,1,.37,0h-.37a1.94,1.94,0,0,0-.51.07Z"/><path id="path26415" class="cls-6" d="M14.27,20.48a3.37,3.37,0,0,0,.46,0s.08,0,.08-.07l0,0a1.78,1.78,0,0,0-.51-.06,1.83,1.83,0,0,0-.51.06s0,0,0,0,0,.05.07.07A3.72,3.72,0,0,0,14.27,20.48Z"/><path id="path26417" class="cls-5" d="M14.27,20.49a3.34,3.34,0,0,1-.45,0c-.06,0-.1-.05-.09-.08a1.72,1.72,0,0,1,1,0c0,.06,0,.09,0,.11A3.73,3.73,0,0,1,14.27,20.49Zm0-.19a2.27,2.27,0,0,0-.5.05s0,.06.05.08a4.61,4.61,0,0,0,.91,0s.07,0,.06-.05A1.35,1.35,0,0,0,14.27,20.3Z"/><path id="path26419" class="cls-1" d="M14.71,19.76s0,0,0,0a0,0,0,0,1,0,.06S14.71,19.78,14.71,19.76Z"/><path id="path26421" class="cls-5" d="M15.05,20h0a.31.31,0,0,0,0-.08.2.2,0,0,0-.3-.18s.05,0,.1,0a.22.22,0,0,1,.22.23.24.24,0,0,1,0,.08Z"/><path id="path26423" class="cls-5" d="M14.68,19.8v0c0-.11-.18-.18-.31-.11.11-.15.33,0,.33.11Z"/><path id="path26425" class="cls-6" d="M14.86,20.14l0,0a.18.18,0,0,1-.1,0c-.05,0-.06-.07-.06-.07a.22.22,0,0,1-.11.05.15.15,0,0,1-.08-.05.14.14,0,0,1-.1,0s-.09-.06-.09-.06a.23.23,0,0,1-.1.07.14.14,0,0,1-.08,0,.11.11,0,0,1-.08.05A.14.14,0,0,1,13.9,20s0,.06-.07.07-.09,0-.09,0l0,0a0,0,0,0,1,0,0l0,0a2.18,2.18,0,0,1,.56-.06,2.21,2.21,0,0,1,.57.06Z"/><path id="path26427" class="cls-5" d="M14.84,20.19a2.23,2.23,0,0,0-.57-.08,2.84,2.84,0,0,0-.56.07l0-.08h0v0l.07,0h0a.14.14,0,0,0,.07-.06s.06,0,.1,0a.2.2,0,0,0,.1,0s0,0,.08,0,.09,0,.09,0,.06,0,.1,0a.29.29,0,0,0,.1,0,.18.18,0,0,0,.08,0,.17.17,0,0,0,.1,0s0,.07.08.07h.09v0s-.05,0-.08,0a.14.14,0,0,1-.1-.07.13.13,0,0,1-.1.05.17.17,0,0,1-.09-.05.11.11,0,0,1-.09,0,.21.21,0,0,1-.1-.07.14.14,0,0,1-.08.07.12.12,0,0,1-.09,0,.11.11,0,0,1-.08.05.27.27,0,0,1-.12-.05s0,0,0,.06h.42a2.32,2.32,0,0,1,.57.06,0,0,0,0,0,0,0h0Z"/><path id="path26429" class="cls-1" d="M13.76,19.76a0,0,0,0,1,0,0s0,0,0,0,0,0,0,0A0,0,0,0,1,13.76,19.76Z"/><path id="path26431" class="cls-5" d="M13.49,20h0a.25.25,0,0,1,0-.08.22.22,0,0,1,.32-.2c-.17,0-.3.05-.3.2a.25.25,0,0,0,0,.08Z"/><path id="path26433" class="cls-5" d="M13.86,19.83l0-.07c0-.13.2-.21.33-.13-.16,0-.31,0-.31.13Z"/><path id="path26435" class="cls-6" d="M14.27,19.94h0v0a.08.08,0,0,0,.16,0s0,0,0,0v0a.09.09,0,0,0,.09.06.08.08,0,0,0,.09-.07v0l0,0v0s0,0,0,0a.08.08,0,0,0,.09.07.07.07,0,0,0,.06,0l0,0v0a.06.06,0,0,0,0,.06.15.15,0,0,0,.08,0L15,20v0a.36.36,0,0,1-.07.09l-.08,0,0-.05-.06,0a.1.1,0,0,1-.1-.07.11.11,0,0,1-.09,0,.13.13,0,0,1-.09,0,.12.12,0,0,1-.09,0,.14.14,0,0,1-.1-.05.12.12,0,0,1-.1.05.11.11,0,0,1-.08,0,.13.13,0,0,1-.1,0,.09.09,0,0,1-.08,0,.12.12,0,0,1-.11.07l-.06,0s0,0-.05.05l-.07,0a.51.51,0,0,1-.08-.09v0a.23.23,0,0,0,.07.06.09.09,0,0,0,.06,0,.05.05,0,0,0,0-.06v0l0,0a.06.06,0,0,0,.06,0,.08.08,0,0,0,.08-.07,0,0,0,0,0,0,0l0,0,0,0v0a.08.08,0,0,0,.08.07.08.08,0,0,0,.09-.06v0s0,0,0,0a.09.09,0,0,0,.08.05.09.09,0,0,0,.09-.08s0,0,0,0Z"/><path id="path26437" class="cls-5" d="M14.86,20.18l0,0h0l.06,0a.38.38,0,0,0,.07-.08c-.09.07-.12.07-.13.07h0l0-.07c0,.07-.16,0-.16,0s.05,0,.09,0v0l.08,0,0,.08.07,0L15,20s0,.11-.06.13Zm-1.17,0-.08,0a.24.24,0,0,1-.07-.09v0h0a.14.14,0,0,0,.07.08l0,0-.05,0s0,0,0,0l.11.06,0-.06h0a.43.43,0,0,1,0,.05h0c.09,0,.14,0,.15,0s.14,0,.19,0,.14,0,.17,0a.15.15,0,0,0,.19,0,.13.13,0,0,0,.18,0,.15.15,0,0,0,.11.07h0c-.07,0-.11,0-.12-.05s-.14.05-.18,0-.14,0-.19,0-.12.08-.17,0a.12.12,0,0,1-.19,0s-.05.07-.1.07S13.72,20.18,13.69,20.18Zm.11-.08-.06,0h.06a.07.07,0,0,0,.07-.06l0-.07c.06.15.17.11.17.05h0c0,.08-.19.07-.19,0C13.89,20.06,13.85,20.1,13.8,20.1Z"/><path id="path26439" class="cls-6" d="M14.27,20.15a2.15,2.15,0,0,0-.57.07s0,0,0,0,0,0,0,0a2.3,2.3,0,0,1,.58-.07,2.38,2.38,0,0,1,.59.07s0,0,0,0a0,0,0,0,1,0,0A2.3,2.3,0,0,0,14.27,20.15Z"/><path id="path26441" class="cls-5" d="M14.85,20.22h0a2.74,2.74,0,0,0-1.14,0l.09,0a2.88,2.88,0,0,1,1.06,0Zm0,0a2,2,0,0,0-.59-.09l-.43,0a1.49,1.49,0,0,1,.43,0,2,2,0,0,1,.59.07Z"/><path id="path26443" class="cls-1" d="M14.05,20.22s0,0,0,0a0,0,0,0,1,0,0s0,0,0,0A0,0,0,0,1,14.05,20.22Z"/><path id="path26445" class="cls-4" d="M14.28,20.24H14.2a0,0,0,0,1,0,0s0,0,0,0h.15s0,0,0,0a0,0,0,0,1,0,0Z"/><path id="path26447" class="cls-8" d="M13.91,20.26h-.05s0,0,0,0a0,0,0,0,1,0,0H14l0,0a0,0,0,0,1,0,0Z"/><path id="path26449" class="cls-4" d="M13.7,20.3l0,0h0l0,0Z"/><path id="path26451" class="cls-1" d="M14.43,20.22a0,0,0,0,1,.06,0s0,0,0,0S14.43,20.24,14.43,20.22Z"/><path id="path26453" class="cls-8" d="M14.64,20.26h0a0,0,0,0,0,0,0s0,0,0,0h-.1s0,0,0,0,0,0,0,0Z"/><path id="path26455" class="cls-4" d="M14.84,20.31l0,0h-.05l0,0Z"/><path id="path26457" class="cls-4" d="M14.27,20.44a2,2,0,0,1-.47-.05,2,2,0,0,1,.47-.05,2.14,2.14,0,0,1,.48.05A2.14,2.14,0,0,1,14.27,20.44Z"/><path id="path26459" class="cls-5" d="M14.27,20.45a1.64,1.64,0,0,1-.48-.05,1.84,1.84,0,0,1,1,0A1.28,1.28,0,0,1,14.27,20.45Zm0-.1a2.19,2.19,0,0,0-.47,0c.12,0,.28,0,.47,0a1.92,1.92,0,0,0,.47-.05C14.61,20.37,14.44,20.35,14.27,20.35Z"/><path id="path26461" class="cls-6" d="M14.85,20a0,0,0,0,0,0,0s0,0,0,0,0,0,0,0S14.84,20.06,14.85,20Z"/><path id="path26463" class="cls-6" d="M14.49,20a0,0,0,0,0,0,0s0,0,0,0,0,0,0,0Z"/><path id="path26465" class="cls-6" d="M14.06,20s0,0,0,0,0,0,0,0a0,0,0,0,1,0,0S14.06,20,14.06,20Z"/><path id="path26467" class="cls-6" d="M13.7,20s0,0,0,0l0,0s0,0,0,0S13.7,20.06,13.7,20Z"/><path id="path26469" class="cls-6" d="M14.27,19.76l-.06,0,0,.11h0l.05-.11Z"/><path id="path26471" class="cls-6" d="M14.13,19.92l0,0,.1,0h0v0l-.1,0Z"/><path id="path26473" class="cls-6" d="M14.41,19.92l0,0-.1,0h0l0,0,.1,0Z"/><path id="path26475" class="cls-6" d="M13.85,19.81l0,.05.06.09h0l0-.11Z"/><path id="path26477" class="cls-6" d="M13.75,20l0,0,.09-.05v0h-.12Z"/><path id="path26479" class="cls-6" d="M14,19.93,14,20l-.1,0h0l.1-.05Z"/><path id="path26481" class="cls-6" d="M13.65,20v0h-.13v0L13.6,20Z"/><path id="path26483" class="cls-6" d="M13.85,20s0,0,0,0a0,0,0,1,1,0,.06S13.85,20,13.85,20Z"/><path id="path26485" class="cls-6" d="M14.69,19.81l.05.05-.06.09h0l0-.11Z"/><path id="path26487" class="cls-6" d="M14.8,20l0,0L14.67,20v0h.12Z"/><path id="path26489" class="cls-6" d="M14.52,19.93l0,.05.1,0h0l-.09-.05Z"/><path id="path26491" class="cls-6" d="M14.89,20v0H15v0L14.94,20Z"/><path id="path26493" class="cls-6" d="M14.24,19.92s0,0,0,0a0,0,0,0,1,0,0s0,0,0,0A0,0,0,0,1,14.24,19.92Z"/><path id="path26495" class="cls-6" d="M14.62,20s0,0,0,0,0,0,0,0a0,0,0,1,1-.08,0Z"/><path id="path26497" class="cls-6" d="M14.2,19.53a.08.08,0,0,1,.07-.07.07.07,0,0,1,.07.07.07.07,0,0,1-.07.06S14.2,19.56,14.2,19.53Z"/><path id="path26499" class="cls-6" d="M14.32,19.5v.05h-.11V19.5h0v-.1H14.2v0h.05v0h0v0h.05v0h-.05v.1Z"/><path id="path26501" class="cls-6" d="M14.37,19.5v.05h-.19V19.5h.07v-.1H14.2v0h.05v0h0v0h.05v0h-.05v.1Z"/><path id="path26503" class="cls-5" d="M14.27,19.6a.08.08,0,0,1-.08-.07.08.08,0,0,1,.06-.08l0,.08c0,.06.13.06.13,0l-.05-.08a.08.08,0,0,1,.06.08A.08.08,0,0,1,14.27,19.6Z"/><path id="path26505" class="cls-6" d="M13.51,20.05l0-.05-.06,0s0,0,0,0,0,0,0,0v0l0,0a.08.08,0,0,1,0,.05Z"/><path id="path26507" class="cls-6" d="M13.51,20h0s0,0,0,0,0,0-.05,0S13.5,20,13.51,20Z"/><path id="path26509" class="cls-6" d="M15,20.05l.05-.05.05,0a0,0,0,0,0,0,0,.05.05,0,0,0,0,0v0l0,0A.13.13,0,0,0,15,20S15,20.05,15,20.05Z"/><path id="path26511" class="cls-6" d="M15,20h0a0,0,0,0,0,0,0,0,0,0,0,0,0,0A0,0,0,0,0,15,20Z"/><path id="path26513" class="cls-6" d="M13.44,20.91h1.67v-.44H13.44Z"/><path id="path26515" class="cls-5" d="M15.13,20.92H13.44l0-.45,1.69,0Zm0-.45H13.44v.43l1.64,0Z"/><path id="path26517" class="cls-6" d="M14.94,21.2H13.61a.1.1,0,0,0,0-.2h1.33a.11.11,0,0,0-.08.1A.11.11,0,0,0,14.94,21.2Z"/><path id="path26519" class="cls-5" d="M13.62,21.21h0a.1.1,0,0,0,0-.18l1.29,0-1.23,0a.09.09,0,0,1,0,.08.12.12,0,0,1,0,.08h1.22s0,0,0-.08a.12.12,0,0,1,.05-.1.44.44,0,0,0,0,.1.08.08,0,0,0,.06.08l-1.29,0h0Z"/><path id="path26521" class="cls-6" d="M13.65,21.2H14.9s.08,0,.08.05,0,.06-.08.06H13.65s-.08,0-.08-.06S13.61,21.2,13.65,21.2Z"/><path id="path26523" class="cls-5" d="M14.9,21.32H13.65a.07.07,0,1,1,0-.14H14.9c.06,0,.09,0,.09.07S15,21.32,14.9,21.32Zm-1.25-.11v.09H14.9a.06.06,0,0,0,.06-.05Z"/><path id="path26525" class="cls-6" d="M13.65,20.91H14.9s.08,0,.08.05,0,.05-.08.05H13.65s-.08,0-.08-.05S13.61,20.91,13.65,20.91Z"/><path id="path26527" class="cls-5" d="M14.9,21H13.65c-.05,0-.09,0-.09-.06a.08.08,0,0,1,.09-.07H14.9c.06,0,.09,0,.09.07S15,21,14.9,21Zm-1.25-.1L14.9,21S15,21,15,21Z"/><path id="path26529" class="cls-9" d="M13.11,28.28a.65.65,0,0,0,.29-.06.65.65,0,0,1,.29-.06.7.7,0,0,1,.3.06.6.6,0,0,0,.29.06.62.62,0,0,0,.29-.07.84.84,0,0,1,.29-.05.65.65,0,0,1,.29.06.62.62,0,0,0,.29.06v.18a.62.62,0,0,1-.29-.06.73.73,0,0,0-.58,0,.62.62,0,0,1-.29.06A.6.6,0,0,1,14,28.4a.7.7,0,0,0-.3-.06.65.65,0,0,0-.29.06.65.65,0,0,1-.29.06Z"/><path id="path26531" class="cls-5" d="M15.46,28.48h0a.6.6,0,0,1-.3-.07.77.77,0,0,0-.56,0,.7.7,0,0,1-.6,0,.75.75,0,0,0-.57,0,.58.58,0,0,1-.3.07l0-.2a.73.73,0,0,0,.3-.07.7.7,0,0,1,.6,0,.69.69,0,0,0,.58,0,.71.71,0,0,1,.59,0,.77.77,0,0,0,.28.06Zm-1.77-.31a.64.64,0,0,0-.28.06.7.7,0,0,1-.3.07v.16a1,1,0,0,0,.27-.07.7.7,0,0,1,.6,0,.73.73,0,0,0,.58,0,.71.71,0,0,1,.59,0,.72.72,0,0,0,.27.06v-.17a.49.49,0,0,1-.29-.05.72.72,0,0,0-.56,0,.74.74,0,0,1-.6,0A.65.65,0,0,0,13.69,28.17Z"/><path id="path26533" class="cls-7" d="M13.11,28.46a.65.65,0,0,0,.29-.06.65.65,0,0,1,.29-.06.7.7,0,0,1,.3.06.6.6,0,0,0,.29.06.62.62,0,0,0,.29-.06.73.73,0,0,1,.58,0,.62.62,0,0,0,.29.06v.19a.62.62,0,0,1-.29-.07.73.73,0,0,0-.58,0,.62.62,0,0,1-.29.07.59.59,0,0,1-.29-.07.7.7,0,0,0-.3-.06.65.65,0,0,0-.29.06.65.65,0,0,1-.29.07Z"/><path id="path26535" class="cls-5" d="M15.46,28.66h0a.6.6,0,0,1-.3-.07.72.72,0,0,0-.56,0,.74.74,0,0,1-.6,0,.67.67,0,0,0-.57,0,.58.58,0,0,1-.3.07l0-.2a1,1,0,0,0,.3-.07.7.7,0,0,1,.6,0,.73.73,0,0,0,.58,0,.71.71,0,0,1,.59,0,.77.77,0,0,0,.28.06Zm-1.77-.31a.64.64,0,0,0-.28.06.58.58,0,0,1-.3.07v.17a.72.72,0,0,0,.27-.09.78.78,0,0,1,.6,0,.69.69,0,0,0,.58,0,.8.8,0,0,1,.59,0,.57.57,0,0,0,.27.07v-.17a.42.42,0,0,1-.29-.05.77.77,0,0,0-.56,0,.7.7,0,0,1-.6,0A.65.65,0,0,0,13.69,28.35Z"/><path id="path26537" class="cls-9" d="M13.11,28.65a.65.65,0,0,0,.29-.07.65.65,0,0,1,.29-.06.7.7,0,0,1,.3.06.59.59,0,0,0,.29.07.62.62,0,0,0,.29-.07.73.73,0,0,1,.58,0,.62.62,0,0,0,.29.07v.17a.62.62,0,0,1-.29-.06.73.73,0,0,0-.58,0,.62.62,0,0,1-.29.06.6.6,0,0,1-.29-.06.7.7,0,0,0-.3-.06.65.65,0,0,0-.29.06.65.65,0,0,1-.29.06Z"/><path id="path26539" class="cls-5" d="M15.46,28.84h0a.73.73,0,0,1-.3-.07.72.72,0,0,0-.56,0,.7.7,0,0,1-.6,0,.71.71,0,0,0-.57,0,.58.58,0,0,1-.3.07l0-.19a.71.71,0,0,0,.3-.09.78.78,0,0,1,.6,0,.69.69,0,0,0,.58,0,.8.8,0,0,1,.59,0,.51.51,0,0,0,.28.07Zm-1.77-.31a.64.64,0,0,0-.28.06.58.58,0,0,1-.3.07v.16a.71.71,0,0,0,.27-.07.74.74,0,0,1,.6,0,.69.69,0,0,0,.58,0,.76.76,0,0,1,.59,0,.72.72,0,0,0,.27.06v-.16a.49.49,0,0,1-.29-.06.72.72,0,0,0-.56,0,.74.74,0,0,1-.6,0A.65.65,0,0,0,13.69,28.53Z"/><path id="path26541" class="cls-7" d="M13.11,29a.65.65,0,0,0,.29-.07.65.65,0,0,1,.29-.06.7.7,0,0,1,.3.06.59.59,0,0,0,.29.07.52.52,0,0,0,.29-.08.84.84,0,0,1,.29-.05.65.65,0,0,1,.29.06.62.62,0,0,0,.29.07v-.18a.62.62,0,0,1-.29-.07.73.73,0,0,0-.58,0,.62.62,0,0,1-.29.06.6.6,0,0,1-.29-.06.7.7,0,0,0-.3-.06.65.65,0,0,0-.29.06.65.65,0,0,1-.29.06Z"/><path id="path26543" class="cls-5" d="M15.46,29h0a.6.6,0,0,1-.3-.07.72.72,0,0,0-.56,0,.7.7,0,0,1-.6,0,.75.75,0,0,0-.57,0,.58.58,0,0,1-.3.07l0-.2a.73.73,0,0,0,.3-.07.74.74,0,0,1,.6,0,.69.69,0,0,0,.58,0,.72.72,0,0,1,.59,0,.64.64,0,0,0,.28.06Zm-1.77-.31a.82.82,0,0,0-.28.06.58.58,0,0,1-.3.07V29a1,1,0,0,0,.27-.08.78.78,0,0,1,.6,0,.69.69,0,0,0,.58,0,.8.8,0,0,1,.59,0,.57.57,0,0,0,.27.06v-.16a.49.49,0,0,1-.29-.06.72.72,0,0,0-.56,0,.7.7,0,0,1-.6,0A.83.83,0,0,0,13.69,28.71Z"/><path id="path26545" class="cls-9" d="M13.11,29.19a.65.65,0,0,0,.29-.07.65.65,0,0,1,.29-.06.7.7,0,0,1,.3.06.59.59,0,0,0,.29.07.62.62,0,0,0,.29-.07.73.73,0,0,1,.58,0,.62.62,0,0,0,.29.07V29a.62.62,0,0,1-.29-.07.65.65,0,0,0-.29-.06.84.84,0,0,0-.29.05.52.52,0,0,1-.29.08.59.59,0,0,1-.29-.07.7.7,0,0,0-.3-.06.65.65,0,0,0-.29.06.65.65,0,0,1-.29.07Z"/><path id="path26547" class="cls-5" d="M15.46,29.2h0a.6.6,0,0,1-.3-.07.77.77,0,0,0-.56,0,.7.7,0,0,1-.6,0,.8.8,0,0,0-.57,0,.58.58,0,0,1-.3.07l0-.19a.92.92,0,0,0,.3-.08.78.78,0,0,1,.6,0,.69.69,0,0,0,.58,0,.8.8,0,0,1,.59,0,.64.64,0,0,0,.28.06Zm-1.77-.3a.82.82,0,0,0-.28.05.58.58,0,0,1-.3.07v.17a1,1,0,0,0,.27-.08.78.78,0,0,1,.6,0,.73.73,0,0,0,.58,0,.71.71,0,0,1,.59,0,.57.57,0,0,0,.27.06V29a.49.49,0,0,1-.29-.06.77.77,0,0,0-.56,0,.7.7,0,0,1-.6,0A.84.84,0,0,0,13.69,28.9Z"/><path id="path26549" class="cls-6" d="M14.94,27.54a.09.09,0,0,0,0,.05.2.2,0,0,0,.21.2H13.41a.2.2,0,0,0,.21-.19v-.05h1.32Z"/><path id="path26551" class="cls-5" d="M15.14,27.8H13.41a.24.24,0,0,0,.2-.21h0a.24.24,0,0,1-.23.21l1.61,0a.2.2,0,0,1-.12-.18l-.87,0,.86,0c0,.16.13.24.24.24s0,0,0,0Z"/><path id="path26553" class="cls-6" d="M13.65,27.42H14.9a.08.08,0,0,1,.08.07s0,.06-.08.06H13.65s-.08,0-.08-.06A.08.08,0,0,1,13.65,27.42Z"/><path id="path26555" class="cls-5" d="M14.9,27.56H13.65a.08.08,0,0,1-.09-.07.09.09,0,0,1,.09-.08H14.9a.08.08,0,0,1,.09.08s0,.07-.09.07Zm-1.25-.12v.09H14.9s.06,0,.06,0Z"/><path id="path26557" class="cls-6" d="M13.41,28.22h1.73v-.44H13.41Z"/><path id="path26559" class="cls-5" d="M15.15,28.24H13.41v-.46h1.74Zm0-.46-1.7,0,0,.42h1.68Z"/><path id="path26561" class="cls-4" d="M15.26,25.88c.18.1.29.2.28.25s-.07.08-.15.13-.19.23-.13.3a.43.43,0,0,1-.17-.33A.46.46,0,0,1,15.26,25.88Z"/><path id="path26563" class="cls-5" d="M15.25,26.58a.46.46,0,0,1-.17-.35.42.42,0,0,1,.18-.36c.1.05.32.18.29.26s-.06.09-.14.13a.39.39,0,0,0-.16.22v.06a0,0,0,0,1,0,0Zm0-.69a.45.45,0,0,0-.15.34.43.43,0,0,0,.11.28v0a.38.38,0,0,1,.17-.23c.07-.06.12-.09.13-.13s-.07-.12-.26-.23Z"/><path id="path26565" class="cls-7" d="M13.66,27.35h1.23v-6H13.66Z"/><path id="path26567" class="cls-5" d="M14.71,27.34l0-6h0Zm-.14,0,0-6h0Z"/><path id="path26569" class="cls-5" d="M14.9,27.37H13.66v-6h1.24Zm0-6-1.21,0,0,6h1.18Z"/><path id="path26571" class="cls-4" d="M12.42,23.61a4.36,4.36,0,0,1,1.24-.2,4,4,0,0,1,.58.05c.73.12,1.29.41,1.25.65v0s.27-.62.27-.64c.05-.26-.57-.59-1.38-.72a4.66,4.66,0,0,0-.72-.06,3.87,3.87,0,0,0-1.24.17Z"/><path id="path26573" class="cls-5" d="M15.49,24.14h0s0,0,0,0h0a.2.2,0,0,0,0-.14,2.11,2.11,0,0,0-1.19-.5,3.6,3.6,0,0,0-1.81.16l0-.75a3.43,3.43,0,0,1,1.26-.18,5.31,5.31,0,0,1,.72.05,2.4,2.4,0,0,1,1.34.57.23.23,0,0,1,0,.17s-.23.54-.28.65Zm-1.83-.75a4,4,0,0,1,.58.05,2.22,2.22,0,0,1,1.22.51.49.49,0,0,1,0,.11c.11-.24.24-.55.24-.57a.21.21,0,0,0,0-.15,2.3,2.3,0,0,0-1.32-.56,4.33,4.33,0,0,0-2,.11v.72a3.55,3.55,0,0,1,1.22-.22Z"/><path id="path26575" class="cls-4" d="M14.89,24.37c.34,0,.57-.12.6-.26s-.1-.24-.3-.35l-.3,0Z"/><path id="path26577" class="cls-5" d="M14.87,24.38v-.6l.27,0c.27.12.38.24.36.36s-.25.25-.61.27Zm.31-.61-.29,0v.55c.34,0,.55-.12.57-.24S15.39,23.89,15.18,23.77Z"/><path id="path26579" class="cls-4" d="M13.66,23.91a.85.85,0,0,0-.44.15h0c0,.08.15.24.45.43Z"/><path id="path26581" class="cls-5" d="M13.69,24.52h0c-.19-.12-.52-.33-.47-.44a1,1,0,0,1,.47-.18Zm0-.61a1.21,1.21,0,0,0-.43.16c0,.05.08.19.43.4Z"/><path id="path26583" class="cls-4" d="M15.65,25.52c0-.1-.3-.29-.76-.46-.22-.08-.4-.16-.61-.25-.65-.29-1.13-.62-1.07-.74h0a3.71,3.71,0,0,0-.09.62c-.06.11.38.43,1,.72.19.09.6.24.79.3s.67.34.65.43Z"/><path id="path26585" class="cls-5" d="M15.54,26.13h0c0-.07-.31-.28-.63-.39s-.6-.22-.8-.31a2.35,2.35,0,0,1-1-.68,2.69,2.69,0,0,1,.09-.68,2.14,2.14,0,0,0,1.08.74c.22.1.4.18.6.25.41.16.81.36.77.48l-.11.6Zm-2.34-2s0,.31-.06.55a2.21,2.21,0,0,0,1,.71c.19.09.59.23.78.3a1.56,1.56,0,0,1,.64.38l.11-.55c0-.08-.24-.26-.76-.45-.21-.07-.38-.15-.59-.24A2.68,2.68,0,0,1,13.2,24.13Z"/><path id="path26587" class="cls-6" d="M13.18,23.36c.05-.18.11-.35.16-.52h-.08a2.54,2.54,0,0,1-.1.37l-.22-.32h-.15c.11.15.22.29.32.45h.07Z"/><path id="path26589" class="cls-6" d="M13.64,22.84h-.13v.48h.34v-.06h-.2Z"/><path id="path26591" class="cls-6" d="M14.17,22.92a1,1,0,0,1,.17,0v0s0,0,0,0l-.46,0a0,0,0,0,1,0,0,.1.1,0,0,0,0,0H14l0,.43h.06l.08,0Z"/><path id="path26593" class="cls-6" d="M14.36,23.39l.07,0h.06l0-.22h0l0,.09.07.17h.08l.07,0,0-.06-.11-.22a.16.16,0,0,0,.17-.1c0-.05,0-.08-.06-.11a.29.29,0,0,0-.13-.05l-.18,0Zm.23-.4c.06,0,.12,0,.12.08v0c0,.08-.07.1-.16.07Z"/><path id="path26595" class="cls-6" d="M15.23,23.54a.78.78,0,0,0,0,.16l.06,0,.07,0,0-.54,0,0h0l-.48.3.05,0a0,0,0,0,1,0,0l.14-.09Zm-.14-.12.16-.11v.18Z"/><path id="path26597" class="cls-5" d="M7,18.67a.16.16,0,0,1-.16-.16c0-.17.33-.17.33,0A.17.17,0,0,1,7,18.67Zm0-.31a.16.16,0,0,0-.16.15c0,.17.32.17.32,0A.16.16,0,0,0,7,18.36Z"/><path id="path26599" class="cls-4" d="M8.63,17.18a3.65,3.65,0,0,1,1.23.19,2.49,2.49,0,0,0,.64.16,2.22,2.22,0,0,0,.51,0,2.08,2.08,0,0,1,.79.19,2.14,2.14,0,0,1,.59.36l-.12.11,0,.3-.32.37-.17.13-.38.31h-.19l-.06.17-2.47-.29-2.48.29-.06-.17H5.92L5.53,19l-.15-.13-.33-.37,0-.3L4.9,18.1a2.07,2.07,0,0,1,.58-.36,2.17,2.17,0,0,1,.8-.19,2.35,2.35,0,0,0,.52,0,2.32,2.32,0,0,0,.62-.16A3.52,3.52,0,0,1,8.63,17.18Z"/><path id="path26601" class="cls-5" d="M11.12,19.52h0l-2.47-.29-2.48.29-.07-.18H5.91l-.54-.45L5,18.52l0-.31-.12-.09a1.73,1.73,0,0,1,.59-.39,2.06,2.06,0,0,1,.78-.19h.19l.35,0a2.23,2.23,0,0,0,.62-.16,4.18,4.18,0,0,1,2.45,0,2.21,2.21,0,0,0,.63.16,1.77,1.77,0,0,0,.51,0,2.07,2.07,0,0,1,.8.19,1.93,1.93,0,0,1,.58.37l-.11.12,0,.29-.48.51-.38.31h-.2Zm-4.84-2a2,2,0,0,0-.79.19,2,2,0,0,0-.59.37L5,18.2l0,.31.48.5.38.3.19,0,.07.17,2.47-.3,2.46.29.06-.16.2,0,.54-.44.32-.37,0-.29.12-.11a2.22,2.22,0,0,0-.58-.35,2,2,0,0,0-.78-.19,2.2,2.2,0,0,1-.52,0,2.29,2.29,0,0,1-.64-.16,4.19,4.19,0,0,0-2.43,0,2.3,2.3,0,0,1-.63.16A2.35,2.35,0,0,1,6.28,17.56Z"/><path id="path26603" class="cls-6" d="M8.67,20.44a8.34,8.34,0,0,1-2.33-.29.07.07,0,0,1-.06-.09A.08.08,0,0,1,6.34,20a8.34,8.34,0,0,1,2.33-.29A8.29,8.29,0,0,1,11,20a.09.09,0,0,1,.07.08.1.1,0,0,1-.07.09A8.29,8.29,0,0,1,8.67,20.44Z"/><path id="path26605" class="cls-5" d="M8.67,20.46a9,9,0,0,1-2.34-.29.11.11,0,0,1-.08-.11.12.12,0,0,1,.08-.1,8.3,8.3,0,0,1,2.34-.29A8.22,8.22,0,0,1,11,20a.11.11,0,0,1,.08.1.11.11,0,0,1-.08.11A8.9,8.9,0,0,1,8.67,20.46Zm0-.76A8.22,8.22,0,0,0,6.34,20a.06.06,0,0,0,0,.07.07.07,0,0,0,0,.08,8.58,8.58,0,0,0,2.33.28A8.45,8.45,0,0,0,11,20.14.08.08,0,0,0,11,20,8.1,8.1,0,0,0,8.67,19.7Z"/><path id="path26607" class="cls-4" d="M8.67,20.32a8.68,8.68,0,0,1-2.15-.24,8.68,8.68,0,0,1,2.15-.24,8.74,8.74,0,0,1,2.15.24A8.74,8.74,0,0,1,8.67,20.32Z"/><path id="path26609" class="cls-5" d="M8,20.3v-.45l0,.45Z"/><path id="path26611" class="cls-5" d="M7.91,20.29v-.44l0,.44Z"/><path id="path26613" class="cls-6" d="M8.66,19.69A8.17,8.17,0,0,0,6.3,20s0-.09,0-.24-.19-.19-.19-.19a9.59,9.59,0,0,1,2.57-.31,9.65,9.65,0,0,1,2.57.31s-.12,0-.19.19S11,20,11,20A8.27,8.27,0,0,0,8.66,19.69Z"/><path id="path26615" class="cls-5" d="M11,20a8.44,8.44,0,0,0-2.37-.3,8.34,8.34,0,0,0-2.35.3c0-.05,0-.09,0-.25s-.16-.17-.18-.17h.05a8.06,8.06,0,0,1,2.52-.33,9.64,9.64,0,0,1,2.58.31.35.35,0,0,0-.19.2C11,19.91,11,20,11,20Zm-4.88-.43s.1,0,.15.17.08.23,0,.26a7.31,7.31,0,0,1,2.35-.33A8.66,8.66,0,0,1,11,20c0-.05,0-.12,0-.22s.18-.19.2-.19a11,11,0,0,0-2.57-.29A9.23,9.23,0,0,0,6.15,19.57Z"/><path id="path26617" class="cls-6" d="M8.67,19.25a9.59,9.59,0,0,0-2.57.31.07.07,0,0,1-.1,0,.07.07,0,0,1,0-.1,9.35,9.35,0,0,1,2.62-.33,9.46,9.46,0,0,1,2.62.33.08.08,0,0,1,.05.1.07.07,0,0,1-.1,0A9.65,9.65,0,0,0,8.67,19.25Z"/><path id="path26619" class="cls-5" d="M11.26,19.58h0a9.81,9.81,0,0,0-2.56-.32,9.75,9.75,0,0,0-2.56.32c-.08,0-.11,0-.12-.06l.06-.1v0a9.37,9.37,0,0,1,2.62-.32,9.76,9.76,0,0,1,2.62.32l.06.13A.09.09,0,0,1,11.26,19.58ZM8.67,19.1a9.78,9.78,0,0,0-2.62.33l0,.08.06.06,0,0a9.51,9.51,0,0,1,2.57-.31,9.51,9.51,0,0,1,2.57.31h0s.06,0,.06,0l0-.08A10.12,10.12,0,0,0,8.67,19.1Z"/><path id="path26621" class="cls-5" d="M8.67,20.34a8.78,8.78,0,0,1-2.16-.25,8.11,8.11,0,0,1,2.16-.27,9.59,9.59,0,0,1,2.15.24A7.42,7.42,0,0,1,8.67,20.34Zm0-.49a9,9,0,0,0-2.15.24,10.61,10.61,0,0,0,2.15.22,8.7,8.7,0,0,0,2.15-.25A11.26,11.26,0,0,0,8.67,19.85Z"/><path id="path26623" class="cls-1" d="M8,19.48a.08.08,0,1,1,.08.08A.09.09,0,0,1,8,19.48Z"/><path id="path26625" class="cls-4" d="M8.67,19.54H8.42a.08.08,0,0,1-.08-.08.07.07,0,0,1,.08-.07h.5a.07.07,0,0,1,.08.07.09.09,0,0,1-.08.08Z"/><path id="path26627" class="cls-5" d="M8.92,19.55h-.5a.09.09,0,1,1,0-.18h.5a.09.09,0,1,1,0,.18Zm-.5-.15a.07.07,0,0,0-.07.06.07.07,0,0,0,.07.07h.5A.07.07,0,0,0,9,19.46a.07.07,0,0,0-.07-.06Z"/><path id="path26629" class="cls-8" d="M7.43,19.61l-.18,0a.1.1,0,0,1-.09-.07.07.07,0,0,1,.07-.08l.18,0,.18,0a.1.1,0,0,1,.09.07.08.08,0,0,1-.07.09Z"/><path id="path26631" class="cls-5" d="M7.25,19.65a.1.1,0,0,1-.1-.09l.08-.08v0l.36,0a.1.1,0,0,1,.11.08l-.09.09h0Zm-.08-.09s0,.05.08.05v0l.36,0,.07-.07h0s0-.05-.07-.05l-.37,0-.07.07Z"/><path id="path26633" class="cls-1" d="M6.71,19.63a.08.08,0,0,1,.08-.08.08.08,0,0,1,.09.08.08.08,0,0,1-.09.07A.08.08,0,0,1,6.71,19.63Z"/><path id="path26635" class="cls-4" d="M6.16,19.76l.09-.11.25,0-.2.15Z"/><path id="path26637" class="cls-5" d="M6.3,19.84l-.15-.06.09-.14.26,0Z"/><path id="path26639" class="cls-8" d="M9.91,19.61l.17,0a.1.1,0,0,0,.1-.07.08.08,0,0,0-.07-.08l-.18,0-.18,0a.1.1,0,0,0-.1.07.1.1,0,0,0,.07.09Z"/><path id="path26641" class="cls-5" d="M10.09,19.65l-.37,0-.08-.1a.09.09,0,0,1,.09-.08l.38,0,.08.1A.09.09,0,0,1,10.09,19.65Zm-.35-.2s-.07,0-.07.05l.05.07.37,0a.08.08,0,0,0,.08-.05l-.07-.07Z"/><path id="path26643" class="cls-1" d="M9.22,19.48a.09.09,0,0,1,.09-.08.08.08,0,0,1,0,.16A.09.09,0,0,1,9.22,19.48Z"/><path id="path26645" class="cls-1" d="M10.47,19.63a.08.08,0,0,1,.16,0,.08.08,0,0,1-.16,0Z"/><path id="path26647" class="cls-4" d="M11.18,19.76l-.09-.11-.26,0,.21.15Z"/><path id="path26649" class="cls-5" d="M11,19.84l-.21-.15.26-.06.11.13Z"/><path id="path26651" class="cls-5" d="M6.42,20.12v0a9.2,9.2,0,0,1,2.26-.27,9.12,9.12,0,0,1,2.25.27,10.41,10.41,0,0,0-2.25-.24A8.61,8.61,0,0,0,6.42,20.12Z"/><path id="path26653" class="cls-6" d="M6.81,17.83l.1.09.16-.26a.57.57,0,0,1-.29-.48v-.07c0-.33.42-.6.92-.6a1.18,1.18,0,0,1,.67.19.66.66,0,0,1,0-.14,1.32,1.32,0,0,0-.68-.17c-.57,0-1,.33-1,.72v.07a.69.69,0,0,0,.24.52Z"/><path id="path26655" class="cls-5" d="M6.92,17.94l-.12-.09.07-.16a.66.66,0,0,1-.24-.51,1,1,0,0,1,1.07-.81,1.41,1.41,0,0,1,.69.17c0,.07,0,.11,0,.16a1.37,1.37,0,0,0-.68-.17c-.49,0-.88.25-.9.57a.6.6,0,0,0,.27.55ZM7.7,16.4c-.55,0-1,.32-1,.7a.74.74,0,0,0,.24.59l-.08.15.08.06.15-.25a.53.53,0,0,1-.28-.47.84.84,0,0,1,.93-.69,1.21,1.21,0,0,1,.67.2.19.19,0,0,1,0-.13A1.41,1.41,0,0,0,7.7,16.4Z"/><path id="path26657" class="cls-6" d="M6.81,17.84a.75.75,0,0,1-.32-.57.77.77,0,0,1,.42-.63.63.63,0,0,0-.26.47v.07a.69.69,0,0,0,.24.52Z"/><path id="path26659" class="cls-5" d="M6.82,17.86h0a.75.75,0,0,1-.32-.58.79.79,0,0,1,.42-.65.91.91,0,0,0-.24.49.73.73,0,0,0,.24.58Zm.08-1.24a.84.84,0,0,0-.39.65.72.72,0,0,0,.3.55l.07-.13a.63.63,0,0,1-.25-.51A.75.75,0,0,1,6.9,16.62Z"/><path id="path26661" class="cls-6" d="M5.07,18.09a.68.68,0,0,1-.18-.46A.73.73,0,0,1,5,17.34a1.4,1.4,0,0,1,1.26-.57,2.24,2.24,0,0,1,.46.05l-.08.11a2.33,2.33,0,0,0-.38,0,1.29,1.29,0,0,0-1.14.5.69.69,0,0,0,0,.24.56.56,0,0,0,.21.44L5,18.4l-.11-.09Z"/><path id="path26663" class="cls-5" d="M5.05,18.42l-.12-.1.13-.23a.65.65,0,0,1-.18-.46.66.66,0,0,1,.07-.3,1.4,1.4,0,0,1,1.27-.57,1.71,1.71,0,0,1,.46,0,.67.67,0,0,1-.06.12l-.4,0a1.23,1.23,0,0,0-1.12.49.46.46,0,0,0,0,.23.55.55,0,0,0,.2.43Zm1.17-1.63A1.37,1.37,0,0,0,5,17.35a.53.53,0,0,0-.07.28.66.66,0,0,0,.17.45L5,18.32l.09.06.19-.31A.54.54,0,0,1,5,17.63a.53.53,0,0,1,.06-.24,1.27,1.27,0,0,1,1.15-.51,1.58,1.58,0,0,1,.38,0,.41.41,0,0,1,.07-.11Z"/><path id="path26665" class="cls-6" d="M5.28,17a.82.82,0,0,0-.32.32.73.73,0,0,0-.07.29.68.68,0,0,0,.18.46l-.12.2a.79.79,0,0,1-.18-.5A.91.91,0,0,1,5.28,17Z"/><path id="path26667" class="cls-5" d="M5,18.32v0a.85.85,0,0,1-.19-.51A1,1,0,0,1,5.26,17a1.23,1.23,0,0,0-.28.35.55.55,0,0,0-.07.28.66.66,0,0,0,.17.45Zm0-1.09a.88.88,0,0,0-.22.56.78.78,0,0,0,.17.47l.11-.17a.63.63,0,0,1-.18-.46.66.66,0,0,1,.07-.3Z"/><path id="path26669" class="cls-6" d="M8.66,16.32a.28.28,0,0,1,.27.21,1.79,1.79,0,0,1,0,.34s0,0,0,0A.09.09,0,0,1,9,17a2.44,2.44,0,0,0,.09.64l-.4.38-.41-.38a2,2,0,0,0,.1-.64v-.09a3.31,3.31,0,0,1,0-.34A.28.28,0,0,1,8.66,16.32Z"/><path id="path26671" class="cls-5" d="M8.66,18l-.41-.39A2.4,2.4,0,0,0,8.33,17l0-.09h0a2,2,0,0,1,0-.35c.05-.25.52-.25.58,0s0,.23,0,.35V17a2.07,2.07,0,0,0,.1.63Zm0-1.66a.26.26,0,0,0-.26.19,1.79,1.79,0,0,0,0,.34V17a2.53,2.53,0,0,1-.1.64l.39.36.39-.37A2,2,0,0,1,9,17l0-.09H9a1.83,1.83,0,0,0,0-.35A.25.25,0,0,0,8.66,16.34Z"/><path id="path26673" class="cls-6" d="M8.66,16.45a.13.13,0,0,1,.14.1,1.69,1.69,0,0,1,0,.33V17a2.25,2.25,0,0,0,.09.61l-.26.25-.26-.25A2,2,0,0,0,8.48,17s0,0,0,0v0a1.69,1.69,0,0,1,0-.33A.13.13,0,0,1,8.66,16.45Z"/><path id="path26675" class="cls-5" d="M8.66,17.84l-.28-.26A2.14,2.14,0,0,0,8.47,17l0-.08h0a3.11,3.11,0,0,1,0-.33.18.18,0,0,1,.32,0,3.11,3.11,0,0,1,0,.33V17a1.9,1.9,0,0,0,.09.6Zm0-1.38a.14.14,0,0,0-.13.1,1.51,1.51,0,0,0,0,.32V17a1.67,1.67,0,0,1-.09.61l.26.23.26-.24a1.38,1.38,0,0,1-.1-.6v-.08h0c0-.12,0-.23,0-.32A.14.14,0,0,0,8.66,16.46Z"/><path id="path26677" class="cls-6" d="M10.51,17.83l-.1.09-.16-.26a.57.57,0,0,0,.29-.48.15.15,0,0,0,0-.07c0-.33-.41-.6-.91-.6A1.15,1.15,0,0,0,9,16.7a.66.66,0,0,1,0-.14,1.32,1.32,0,0,1,.68-.17,1,1,0,0,1,1.05.72v.07a.67.67,0,0,1-.25.52Z"/><path id="path26679" class="cls-5" d="M10.4,17.94l-.16-.27a.6.6,0,0,0,.28-.49c0-.4-.41-.65-.9-.65a1.16,1.16,0,0,0-.66.18.48.48,0,0,1,0-.15,1.29,1.29,0,0,1,.7-.19c.57,0,1,.32,1.07.73a.75.75,0,0,1-.25.61l.08.12Zm-.78-1.45c.5,0,.91.28.93.61a.64.64,0,0,1-.29.58l.15.21.09-.07-.08-.12a.72.72,0,0,0,.24-.52.94.94,0,0,0-1-.78,1.31,1.31,0,0,0-.67.17s0,.07,0,.12A1,1,0,0,1,9.62,16.49Z"/><path id="path26681" class="cls-6" d="M10.5,17.84a.72.72,0,0,0,.32-.57.76.76,0,0,0-.41-.63.7.7,0,0,1,.26.47v.07a.67.67,0,0,1-.25.52Z"/><path id="path26683" class="cls-5" d="M10.5,17.86l-.08-.16a.72.72,0,0,0,.24-.52.7.7,0,0,0-.26-.53.71.71,0,0,1,.44.62.74.74,0,0,1-.33.58Zm-.09-1.2a.55.55,0,0,1,.27.44.72.72,0,0,1-.24.61l.07.11a.72.72,0,0,0,.3-.55A.71.71,0,0,0,10.41,16.66Z"/><path id="path26685" class="cls-6" d="M12.24,18.09a.63.63,0,0,0,.18-.46.72.72,0,0,0-.06-.29,1.41,1.41,0,0,0-1.26-.57,2.24,2.24,0,0,0-.46.05.76.76,0,0,1,.08.11,2.33,2.33,0,0,1,.38,0,1.26,1.26,0,0,1,1.13.5.53.53,0,0,1,.06.24.56.56,0,0,1-.21.44l.19.33.11-.09Z"/><path id="path26687" class="cls-5" d="M12.27,18.42l-.2-.34a.62.62,0,0,0,.2-.45.59.59,0,0,0,0-.23,1.24,1.24,0,0,0-1.12-.49,1.58,1.58,0,0,0-.38,0l-.09-.12a1.22,1.22,0,0,1,.47-.07,1.41,1.41,0,0,1,1.27.57.66.66,0,0,1,.07.3.74.74,0,0,1-.18.47l.13.2ZM11.1,16.88a1.24,1.24,0,0,1,1.14.51.53.53,0,0,1,.06.24.6.6,0,0,1-.21.45l.19.3.09-.08-.13-.2a.75.75,0,0,0,.17-.47.55.55,0,0,0-.07-.28,1.38,1.38,0,0,0-1.24-.56,2.25,2.25,0,0,0-.46,0s.06.05.09.09A1.45,1.45,0,0,1,11.1,16.88Z"/><path id="path26689" class="cls-6" d="M12,17a.89.89,0,0,1,.32.32.72.72,0,0,1,.06.29.63.63,0,0,1-.18.46l.13.2a.84.84,0,0,0,.17-.5A.92.92,0,0,0,12,17Z"/><path id="path26691" class="cls-5" d="M12.37,18.32l-.13-.22a.75.75,0,0,0,.17-.47.58.58,0,0,0-.07-.28A.76.76,0,0,0,12,17a.76.76,0,0,1,.19.12.78.78,0,0,1,.15,1.15Zm0-1,0,0a.66.66,0,0,1,.07.3.77.77,0,0,1-.18.48l.11.15a.81.81,0,0,0,.16-.47A.75.75,0,0,0,12.34,17.29Z"/><path id="path26693" class="cls-1" d="M8.52,17.65a.14.14,0,1,1,.14.13A.13.13,0,0,1,8.52,17.65Z"/><path id="path26695" class="cls-5" d="M8.66,17.8a.16.16,0,0,1-.16-.15c0-.17.32-.17.32,0A.16.16,0,0,1,8.66,17.8Zm0-.27a.12.12,0,0,0-.13.12c0,.13.26.13.26,0A.12.12,0,0,0,8.66,17.53Z"/><path id="path26697" class="cls-1" d="M8.52,17.38a.14.14,0,0,1,.28,0,.14.14,0,0,1-.28,0Z"/><path id="path26699" class="cls-5" d="M8.66,17.53a.15.15,0,0,1-.16-.15c0-.16.32-.16.32,0A.15.15,0,0,1,8.66,17.53Zm0-.27a.13.13,0,0,0-.13.12c0,.14.26.14.26,0A.13.13,0,0,0,8.66,17.26Z"/><path id="path26701" class="cls-1" d="M8.55,17.1a.11.11,0,1,1,.11.11A.11.11,0,0,1,8.55,17.1Z"/><path id="path26703" class="cls-5" d="M8.66,17.22a.12.12,0,0,1-.13-.12c0-.14.26-.14.26,0A.12.12,0,0,1,8.66,17.22Z"/><path id="path26705" class="cls-1" d="M8.57,16.84a.09.09,0,1,1,.09.08A.1.1,0,0,1,8.57,16.84Z"/><path id="path26707" class="cls-1" d="M8.6,16.62a.06.06,0,1,1,.12,0,.06.06,0,1,1-.12,0Z"/><path id="path26709" class="cls-6" d="M8.67,18.46l.1,0a.25.25,0,0,0,0,.12.36.36,0,0,0,.37.35.37.37,0,0,0,.35-.24s0-.13,0-.13a.71.71,0,0,1,0,.14.38.38,0,0,0,.74-.06v0l.11-.12.06.15a.4.4,0,0,0,0,.15.35.35,0,0,0,.35.34.35.35,0,0,0,.29-.15l.08-.1V19a.21.21,0,0,0,.17.24.47.47,0,0,0,.3-.13,1.54,1.54,0,0,0,.27-.24V19a1.09,1.09,0,0,1-.3.31.48.48,0,0,1-.31.08.28.28,0,0,1-.23-.2.46.46,0,0,1-.26.07.5.5,0,0,1-.48-.29.49.49,0,0,1-.39.17A.54.54,0,0,1,9.48,19a.51.51,0,0,1-.36.14.54.54,0,0,1-.45-.23.54.54,0,0,1-.45.23A.51.51,0,0,1,7.86,19a.54.54,0,0,1-.42.19A.51.51,0,0,1,7.05,19a.5.5,0,0,1-.47.29.47.47,0,0,1-.27-.07.29.29,0,0,1-.23.2.48.48,0,0,1-.31-.08,1.09,1.09,0,0,1-.3-.31v-.13a2.22,2.22,0,0,0,.27.24.48.48,0,0,0,.3.13c.12,0,.16-.12.16-.24v-.12l.08.1a.35.35,0,0,0,.29.15.34.34,0,0,0,.35-.34.27.27,0,0,0,0-.15L7,18.5l.11.12v0a.37.37,0,0,0,.37.35.35.35,0,0,0,.36-.29s0-.13,0-.14,0,.13,0,.13a.38.38,0,0,0,.73-.11.27.27,0,0,0,0-.12Z"/><path id="path26711" class="cls-5" d="M11.3,19.42h-.05A.32.32,0,0,1,11,19.2a.53.53,0,0,1-.75-.21.53.53,0,0,1-.8,0,.55.55,0,0,1-.81-.09.54.54,0,0,1-.81.09A.54.54,0,0,1,7,19a.52.52,0,0,1-.74.22.25.25,0,0,1-.21.21.62.62,0,0,1-.33-.09A1.2,1.2,0,0,1,5.45,19l0-.15s.12.11.29.24a.47.47,0,0,0,.29.12c.1,0,.15-.1.15-.22v-.12l.1.09a.35.35,0,0,0,.62-.18.33.33,0,0,0,0-.14L7,18.5l.13.11a.37.37,0,0,0,.36.39.36.36,0,0,0,.36-.28c0-.13,0-.15,0-.15h0s0,0,0,.09a.37.37,0,0,0,.71-.06.5.5,0,0,0,0-.12l.11,0,.1,0c0,.05,0,.09,0,.13a.35.35,0,0,0,.36.34.35.35,0,0,0,.33-.24c0-.11,0-.13.07-.13s0,0,0,.11A.36.36,0,0,0,9.9,19a.35.35,0,0,0,.35-.34l0,0a.38.38,0,0,1-.75.09s0-.09,0-.11a.14.14,0,0,1,0,.06.39.39,0,0,1-.76-.07.32.32,0,0,1,0-.13l-.17,0a.14.14,0,0,1,0,.11.37.37,0,0,1-.39.36.38.38,0,0,1-.36-.24.43.43,0,0,0,0-.11v.07a.37.37,0,0,1-.38.35.38.38,0,0,1-.38-.37L7,18.52l0,.14a.26.26,0,0,1,0,.14.4.4,0,0,1-.68.2l-.07-.1,0,.11c0,.14-.07.24-.18.25a.51.51,0,0,1-.31-.13,1.36,1.36,0,0,1-.27-.25V19a1.09,1.09,0,0,0,.3.3.61.61,0,0,0,.26.08.3.3,0,0,0,.26-.2A.55.55,0,0,0,7,19a.58.58,0,0,0,.81,0,.57.57,0,0,0,.81-.09.58.58,0,0,0,.81.09.58.58,0,0,0,.81,0,.56.56,0,0,0,.74.21.38.38,0,0,0,.24.2h0a.61.61,0,0,0,.26-.08,1.26,1.26,0,0,0,.3-.31l0-.11a.83.83,0,0,1-.24.24.48.48,0,0,1-.31.13c-.11,0-.18-.11-.18-.25v-.12l0,.11a.38.38,0,0,1-.3.15.37.37,0,0,1-.37-.35.33.33,0,0,1,0-.15l-.06-.14-.09.11.09-.12.09.15a.42.42,0,0,0,0,.15A.36.36,0,0,0,11,19l.08-.09,0,.12c0,.12,0,.21.15.22a.45.45,0,0,0,.29-.12,1.45,1.45,0,0,0,.26-.25l.05.15a1.06,1.06,0,0,1-.31.32A.54.54,0,0,1,11.3,19.42Z"/><path id="path26713" class="cls-1" d="M11.2,18.92c0-.06,0-.12,0-.13a.12.12,0,0,0-.08.22A.1.1,0,0,0,11.2,18.92Z"/><path id="path26715" class="cls-5" d="M11.1,19h0a.18.18,0,0,1-.05-.17.14.14,0,0,1,.11-.09l.08,0a.24.24,0,0,1,0,.12A.14.14,0,0,1,11.1,19Z"/><path id="path26717" class="cls-1" d="M9.6,18.61a.11.11,0,0,0-.07-.13s-.09.05-.1.11a.11.11,0,0,0,.07.13S9.6,18.68,9.6,18.61Z"/><path id="path26719" class="cls-5" d="M9.5,18.73c-.05,0-.09-.06-.08-.14a.11.11,0,0,1,.1-.12c.07,0,.1.07.1.15A.13.13,0,0,1,9.5,18.73Z"/><path id="path26721" class="cls-1" d="M7.74,18.61a.11.11,0,0,1,.07-.13s.09.05.1.11a.11.11,0,0,1-.07.13S7.75,18.68,7.74,18.61Z"/><path id="path26723" class="cls-5" d="M7.83,18.73a.13.13,0,0,1-.11-.11c0-.08,0-.14.09-.15a.11.11,0,0,1,.11.12c0,.08,0,.14-.08.14Z"/><path id="path26725" class="cls-1" d="M6.13,18.92c0-.06,0-.12,0-.13s.1,0,.12.08a.11.11,0,0,1,0,.14S6.15,19,6.13,18.92Z"/><path id="path26727" class="cls-6" d="M6.83,17.85a.39.39,0,0,1,.17.23l0,0a.19.19,0,0,1,.09,0,.84.84,0,0,1,0,.1.66.66,0,0,1,0,.17.52.52,0,0,1,0,.13.16.16,0,0,0-.12,0,.14.14,0,0,0-.1.07.82.82,0,0,1-.09-.11c0-.06-.06-.13-.09-.15L6.6,18.1a.23.23,0,0,1,.09,0l.06,0A.5.5,0,0,1,6.83,17.85Z"/><path id="path26729" class="cls-5" d="M6.84,18.47h0l-.09-.11a.41.41,0,0,1-.06-.11l-.08-.13.1,0,.08,0a.27.27,0,0,1,.05-.27.34.34,0,0,1,.2.24c.08-.08.11-.08.12-.08s0,.09,0,.12,0,.12,0,.17a.23.23,0,0,1-.05.13.23.23,0,0,0-.11,0,.14.14,0,0,0-.1.06Zm-.19-.38,0,0,.06.06.08.16.08.09a.14.14,0,0,1,.1-.07.19.19,0,0,1,.12,0s0-.06,0-.11a.3.3,0,0,0,0-.13l0-.13-.06,0,0,0H7a.38.38,0,0,0-.17-.21.49.49,0,0,0-.05.25v0Z"/><path id="path26731" class="cls-6" d="M6.87,18.62a.1.1,0,0,1,0-.08.17.17,0,0,1,0-.1l-.13-.05H6.43a.11.11,0,0,1,0,0l0,0a.42.42,0,0,0-.23.16.42.42,0,0,0,.27.07.24.24,0,0,0,0,.07v0l.08,0a.43.43,0,0,0,.16-.07A.63.63,0,0,0,6.87,18.62Z"/><path id="path26733" class="cls-5" d="M6.5,18.83v-.06l-.25-.13a.35.35,0,0,1,.22-.18l0,0a.31.31,0,0,0-.21.15.51.51,0,0,0,.22.05h0v.11l.07,0,.16-.07.1-.09s0,0,0-.07a.16.16,0,0,1,0-.1s-.07,0-.13,0a.66.66,0,0,0-.17,0l-.09,0h.09a.69.69,0,0,1,.18,0l.14.05c0,.05,0,.07,0,.1a.12.12,0,0,0,0,.08s0,.07-.11.12l-.16.07Z"/><path id="path26735" class="cls-6" d="M7.08,18.58a.15.15,0,0,0,0-.09.22.22,0,0,0,0-.08.4.4,0,0,1,.11-.09.59.59,0,0,1,.16-.08l.08,0v.05l0,.06a.43.43,0,0,1,.27.08.38.38,0,0,1-.23.15.25.25,0,0,1,0,.06l0,0H7.22A.74.74,0,0,1,7.08,18.58Z"/><path id="path26737" class="cls-5" d="M7.48,18.67H7.4a.68.68,0,0,1-.19,0l-.14,0a.22.22,0,0,0,0-.11.25.25,0,0,0,0-.07.28.28,0,0,1,.11-.12l.17-.07.08,0v.05H7.32l-.15.08-.12.09s0,0,.06.07a.14.14,0,0,1,0,.09l.12,0,.18,0h.07Zm0,0,0-.09a.4.4,0,0,0,.22-.15.87.87,0,0,0-.22-.05h0v0a.46.46,0,0,1,.27.08.36.36,0,0,1-.24.18Z"/><path id="path26739" class="cls-4" d="M6.8,18.51a.16.16,0,0,1,.32,0,.16.16,0,1,1-.32,0Z"/><path id="path26741" class="cls-5" d="M7,18.68a.18.18,0,0,1-.18-.17c0-.18.36-.18.36,0A.18.18,0,0,1,7,18.68Zm0-.31a.15.15,0,0,0-.15.14c0,.15.29.15.29,0A.14.14,0,0,0,7,18.37Z"/><path id="path26743" class="cls-6" d="M8.67,17.61a.42.42,0,0,1,.14.28s0,0,.07,0a.16.16,0,0,1,.09,0,.51.51,0,0,1,0,.11s0,.11-.06.18a.76.76,0,0,1-.07.14.17.17,0,0,0-.26,0,1.45,1.45,0,0,1-.08-.14c0-.07-.05-.16-.06-.18l0-.11a.16.16,0,0,1,.09,0c.06,0,.07,0,.07,0A.43.43,0,0,1,8.67,17.61Z"/><path id="path26745" class="cls-5" d="M8.8,18.29h0a.15.15,0,0,0-.23,0,.29.29,0,0,1-.1-.14c0-.05,0-.1,0-.14l-.05-.15h0l0,.09c0,.1,0,.14.06.19l.08.13c0-.07.17-.08.24,0a.63.63,0,0,0,.07-.12.43.43,0,0,0,0-.14A1.14,1.14,0,0,0,9,17.84H9L9,18a1.83,1.83,0,0,0-.06.19.44.44,0,0,1-.09.14Zm.06-.4H8.8a.42.42,0,0,0-.14-.27.51.51,0,0,0-.12.27l-.15,0h.07l.08,0a.32.32,0,0,1,.12-.29.45.45,0,0,1,.16.28s0,0,0,0H9Z"/><path id="path26747" class="cls-6" d="M8.55,18.47a.16.16,0,0,1-.05-.11.12.12,0,0,1,.05-.09l-.15-.09a.84.84,0,0,0-.2-.05H8.11s0,0,0,.05l0,.06a.56.56,0,0,0-.28.13.44.44,0,0,0,.28.14l0,.07a.12.12,0,0,1,0,.05l.09,0a.84.84,0,0,0,.2-.05Z"/><path id="path26749" class="cls-5" d="M8.1,18.64v-.08c-.06-.06-.17-.1-.25-.18a.43.43,0,0,1,.29-.16v0a.39.39,0,0,0-.28.13.53.53,0,0,0,.28.1h0l-.05.11H8.2l.2-.05.14-.09s0-.05,0-.09a.19.19,0,0,1,0-.1h0a.57.57,0,0,1-.13-.07l-.19,0-.09,0,.09,0a.84.84,0,0,1,.2.05.88.88,0,0,1,.14.08.3.3,0,0,0,0,.11.17.17,0,0,0,0,.1s-.07.07-.14.1a.77.77,0,0,1-.19.05Z"/><path id="path26751" class="cls-6" d="M8.79,18.47a.21.21,0,0,0,0-.11.11.11,0,0,0,0-.09l.14-.09a1.15,1.15,0,0,1,.2-.05h.09v.05a.14.14,0,0,1,0,.06.55.55,0,0,1,.29.13.44.44,0,0,1-.29.14.25.25,0,0,1,0,.07.18.18,0,0,1,0,.05l-.09,0a1.15,1.15,0,0,1-.2-.05A.88.88,0,0,1,8.79,18.47Z"/><path id="path26753" class="cls-5" d="M9.22,18.63h-.1s-.14,0-.2-.06a.88.88,0,0,1-.14-.08.34.34,0,0,0,0-.12.12.12,0,0,0,0-.08.28.28,0,0,1,.14-.11.84.84,0,0,1,.2-.05l.1,0a.35.35,0,0,1,0,.14.32.32,0,0,1,.28.12.43.43,0,0,1-.29.16v0a.4.4,0,0,0,.28-.12.49.49,0,0,0-.28-.11h0l0-.09H9.13a.65.65,0,0,0-.19,0l-.14.09a.09.09,0,0,1,0,.08.16.16,0,0,1,0,.11h0l.13.07.18,0,.1,0h0v0h0v0Z"/><path id="path26755" class="cls-6" d="M10.51,17.85a.39.39,0,0,0-.17.23l-.06,0a.15.15,0,0,0-.08,0,.84.84,0,0,0,0,.1.45.45,0,0,0,0,.17.36.36,0,0,0,0,.13.17.17,0,0,1,.12,0,.14.14,0,0,1,.1.07.82.82,0,0,0,.09-.11,1.2,1.2,0,0,0,.08-.15l.06-.09a.23.23,0,0,0-.09,0l-.06,0A.43.43,0,0,0,10.51,17.85Z"/><path id="path26757" class="cls-5" d="M10.51,18.47v0a.24.24,0,0,0-.09-.06.16.16,0,0,0-.11,0s-.06-.06-.07-.13,0-.09,0-.13l0-.15a.12.12,0,0,1,.1,0l.06.05a.31.31,0,0,1,.15-.23.35.35,0,0,1,.1.28l0,0-.05,0a.58.58,0,0,0-.09-.27.54.54,0,0,0-.15.22v0l-.07-.05s0,0,0,.06a.58.58,0,0,0,0,.17.35.35,0,0,0,0,.12.1.1,0,0,1,.09,0,.15.15,0,0,1,.12.07l.08-.09a.48.48,0,0,0,.05-.11l0-.08v0a.59.59,0,0,1-.08.16.82.82,0,0,1-.09.11Z"/><path id="path26759" class="cls-6" d="M10.47,18.62a.1.1,0,0,0,0-.08.17.17,0,0,0,0-.1l.13-.05h.27l0,0,0,0a.46.46,0,0,1,.23.16.42.42,0,0,1-.27.07.24.24,0,0,1,0,.07v0l-.08,0a.48.48,0,0,1-.15-.07A.63.63,0,0,1,10.47,18.62Z"/><path id="path26761" class="cls-5" d="M10.82,18.83l-.07,0-.17-.07-.11-.1s0-.06,0-.1a.11.11,0,0,0,0-.08s.07-.05.14-.07a.69.69,0,0,1,.18,0h.09l-.05.1a.44.44,0,0,1,.23.16.35.35,0,0,1-.25.1v.11Zm-.33-.21.11.08a.66.66,0,0,0,.15.07l.07,0,0-.05v-.06a.5.5,0,0,0,.26-.07.42.42,0,0,0-.22-.13h0l0-.07,0,0a.66.66,0,0,0-.17,0l-.13.05s0,0,0,.08A.1.1,0,0,1,10.49,18.62Z"/><path id="path26763" class="cls-6" d="M10.26,18.58a.14.14,0,0,1,0-.09.12.12,0,0,1,0-.08.28.28,0,0,0-.11-.09.48.48,0,0,0-.16-.08l-.08,0a.18.18,0,0,0,0,.05.15.15,0,0,0,0,.06.45.45,0,0,0-.27.08.38.38,0,0,0,.23.15l0,.06,0,0h.26A.5.5,0,0,0,10.26,18.58Z"/><path id="path26765" class="cls-5" d="M9.84,18.67l0-.07a1.69,1.69,0,0,1-.19-.19.34.34,0,0,1,.24-.1l0-.08,0,.11a.5.5,0,0,0-.26.07.45.45,0,0,0,.22.13h0l-.07.1H10l.17,0,.13-.05a.07.07,0,0,1,0-.08.16.16,0,0,1,0-.09l-.11-.07L10,18.25l-.08,0v0l.07,0a.77.77,0,0,1,.17.07.6.6,0,0,1,.11.1l0,.09a.14.14,0,0,0,0,.09s-.07.05-.15.07l-.17,0Z"/><path id="path26767" class="cls-4" d="M10.22,18.51a.16.16,0,0,1,.16-.15.16.16,0,1,1,0,.31A.16.16,0,0,1,10.22,18.51Z"/><path id="path26769" class="cls-5" d="M10.38,18.68a.18.18,0,0,1-.18-.17c0-.18.36-.18.36,0A.18.18,0,0,1,10.38,18.68Zm0-.31a.15.15,0,0,0-.15.14c0,.15.3.15.3,0A.15.15,0,0,0,10.38,18.37Z"/><path id="path26771" class="cls-4" d="M12,18.85a.14.14,0,0,0-.18,0,.13.13,0,0,0,0,.17A.14.14,0,0,0,12,19,.13.13,0,0,0,12,18.85Z"/><path id="path26773" class="cls-5" d="M11.89,19.08l-.07,0c0-.11,0-.16,0-.19a.19.19,0,0,1,.12,0l.08,0c0,.1,0,.15,0,.18A.21.21,0,0,1,11.89,19.08Z"/><path id="path26775" class="cls-6" d="M11.81,19a.18.18,0,0,1,0-.08.14.14,0,0,1,.18,0s0,0,0,0a.68.68,0,0,1,.18-.2.48.48,0,0,1,.26,0,.22.22,0,0,0-.22-.22.24.24,0,0,0-.19.08v-.08a.23.23,0,0,0-.15.14.48.48,0,0,0,0,.28.67.67,0,0,0-.06-.11.59.59,0,0,0-.19-.13.47.47,0,0,1-.1-.06v0a.12.12,0,0,0,0,.07.57.57,0,0,0-.29,0,.47.47,0,0,0,.19.18l-.06,0,0,0h.09a.65.65,0,0,0,.21,0Z"/><path id="path26777" class="cls-5" d="M11.65,19h-.17l-.1,0,.09-.12a.24.24,0,0,1-.2-.15.38.38,0,0,1,.23-.06h0l.06-.09s.07,0,.12,0a.67.67,0,0,1,.19.12s0,0,0,0a.41.41,0,0,1,0-.19.22.22,0,0,1,.17-.14l0,.09a.2.2,0,0,1,.18-.1.24.24,0,0,1,.24.24.62.62,0,0,0-.27.05.49.49,0,0,0-.17.2l-.1,0a.21.21,0,0,0-.1,0,.14.14,0,0,0,0,.08l-.14,0Zm-.13-.33a.45.45,0,0,0-.23,0,.41.41,0,0,0,.19.14l-.06.08.06,0h.17v0l0,0h.13s0-.05,0-.08l.07,0a.44.44,0,0,1-.08-.1s-.12-.09-.17-.12l-.11-.06v.11Zm.45.17.08,0a.59.59,0,0,1,.17-.2.6.6,0,0,1,.22,0c.06-.16-.25-.24-.35-.11l0-.08a.29.29,0,0,0-.12.13.48.48,0,0,0,0,.27Z"/><path id="path26779" class="cls-6" d="M5.53,19a.12.12,0,0,0,0-.08.14.14,0,0,0-.18,0s0,0,0,0a.68.68,0,0,0-.18-.2.48.48,0,0,0-.26,0,.22.22,0,0,1,.22-.22.24.24,0,0,1,.19.08l0-.08a.2.2,0,0,1,.14.14.48.48,0,0,1,0,.28.67.67,0,0,1,.06-.11.59.59,0,0,1,.19-.13l.11-.06v.11a.53.53,0,0,1,.28,0,.37.37,0,0,1-.19.18l.06,0,0,0H5.87a.65.65,0,0,1-.21,0Z"/><path id="path26781" class="cls-5" d="M5.69,19H5.53a.35.35,0,0,0-.06-.09.21.21,0,0,0-.1,0l0,0H5.28a.55.55,0,0,0-.18-.2.39.39,0,0,0-.21,0v0a.43.43,0,0,1,.23,0,.5.5,0,0,1,.18.22c0-.07.08-.07.12-.05s0,0,0,0a.74.74,0,0,0,0-.25.17.17,0,0,0-.14-.12v.06c-.15-.09-.35-.07-.4.06,0-.17.29-.2.39-.07v-.07a.19.19,0,0,1,.18.13.62.62,0,0,1,0,.19s0,0,0,0a.55.55,0,0,1,.19-.12l.1-.06v0h0s0,0-.08.06a.63.63,0,0,0-.18.12.64.64,0,0,0-.06.11l0,0a.24.24,0,0,1,.06.09h.12l0,0v0H5.9l0,0Zm.24-.08-.08,0a.61.61,0,0,0,.2-.19l-.21,0h0l-.07,0,0,0v0a.71.71,0,0,1,.29,0,.33.33,0,0,1-.2.2l.07,0Z"/><path id="path26783" class="cls-4" d="M5.3,18.85a.14.14,0,0,1,.18,0,.13.13,0,0,1,0,.17.14.14,0,0,1-.18,0C5.28,19,5.26,18.89,5.3,18.85Z"/><path id="path26785" class="cls-5" d="M5.45,19.08a.21.21,0,0,1-.12,0,.15.15,0,0,1-.06-.11c.09-.21.16-.12.22-.06a.16.16,0,0,1,.06.12C5.51,19.07,5.48,19.08,5.45,19.08Z"/><path id="path26787" class="cls-4" d="M8.5,18.37a.16.16,0,0,1,.17-.16.16.16,0,0,1,.16.16.16.16,0,0,1-.16.15A.16.16,0,0,1,8.5,18.37Z"/><path id="path26789" class="cls-5" d="M8.67,18.53a.17.17,0,0,1-.18-.16c0-.19.36-.19.36,0A.17.17,0,0,1,8.67,18.53Zm0-.3a.15.15,0,0,0-.15.14c0,.15.3.15.3,0A.15.15,0,0,0,8.67,18.23Z"/><path id="path26791" class="cls-9" d="M8.33,16A.34.34,0,0,1,9,16a.34.34,0,0,1-.67,0Z"/><path id="path26793" class="cls-5" d="M8.66,16.35A.33.33,0,0,1,8.32,16,.34.34,0,0,1,9,16a.33.33,0,0,1-.34.33Zm0-.63A.31.31,0,1,0,9,16,.31.31,0,0,0,8.66,15.72Z"/><path id="path26795" class="cls-6" d="M8.57,15.14v.17H8.4v.17h.17V16H8.35s0,0,0,0l0,.13H9A.28.28,0,0,0,9,16s0,0,0,0H8.75v-.5h.19v-.17H8.75v-.17Z"/><path id="path26797" class="cls-5" d="M9,16.16H8.36a.25.25,0,0,1,0-.14h0a.18.18,0,0,0,0,.13H9s0-.07,0-.12l-.24,0v-.51h.19l0-.16H8.75v-.18H8.57v.16H8.39v.16h.17V16h0v-.49l-.18,0v-.19h.19v-.16h.18l0,.18h.17v.18l-.19,0,0,.48H9a.25.25,0,0,1,0,.18H9"/><path id="path26799" class="cls-7" d="M8.7,29.31a6.34,6.34,0,0,1-2.77-.64,1.78,1.78,0,0,1-1-1.59v-2.5h7.53v2.5a1.79,1.79,0,0,1-1,1.59A6.32,6.32,0,0,1,8.7,29.31Z"/><path id="path26801" class="cls-5" d="M8.7,29.33a6.55,6.55,0,0,1-2.79-.64,1.81,1.81,0,0,1-1-1.61v-2.5l7.55,0,0,2.52a1.8,1.8,0,0,1-1,1.61A6.45,6.45,0,0,1,8.7,29.33Zm3.74-4.75-7.52,0,0,2.48a1.75,1.75,0,0,0,1,1.57,6.44,6.44,0,0,0,5.51,0,1.76,1.76,0,0,0,1-1.57Z"/><path id="path26803" class="cls-7" d="M8.68,24.57h3.77V20.39H8.68Z"/><path id="path26805" class="cls-5" d="M12.47,24.59H8.68l0-4.2h3.79Zm0-4.2-3.76,0,0,4.16h3.74Z"/><path id="path26807" class="cls-4" d="M8.68,27.08A1.83,1.83,0,0,1,6.8,28.86a1.84,1.84,0,0,1-1.89-1.78V24.57H8.68Z"/><path id="path26809" class="cls-6" d="M5.74,28.55a1.89,1.89,0,0,0,.45.21V24.48H5.74Z"/><path id="path26811" class="cls-5" d="M6.21,28.78h0a2.19,2.19,0,0,1-.38-.17l-.07-.05V24.48l.46,0Zm0-4.3-.42,0v4.05l.08,0a1.33,1.33,0,0,0,.34.16Z"/><path id="path26813" class="cls-6" d="M4.91,27a1.85,1.85,0,0,0,.43,1.17V24.5H4.91Z"/><path id="path26815" class="cls-5" d="M5.34,28.24h0A1.85,1.85,0,0,1,4.89,27V24.5l.44,0v3.76Zm0-3.74-.41,0,0,2.52a1.87,1.87,0,0,0,.39,1.12Z"/><path id="path26817" class="cls-10" d="M6.58,28.85a2.15,2.15,0,0,0,.44,0V24.48H6.58Z"/><path id="path26819" class="cls-5" d="M6.8,28.88H6.58l0-4.39.46,0,0,4.39A.69.69,0,0,1,6.8,28.88Zm.2-4.4-.42,0,0,4.35H7Z"/><path id="path26821" class="cls-6" d="M7.4,28.76a1.84,1.84,0,0,0,.46-.2V24.48H7.42Z"/><path id="path26823" class="cls-5" d="M7.39,28.78v-4.3l.46,0,0,4.1a1.37,1.37,0,0,1-.47.22Zm.45-4.3-.42,0v4.24a2.12,2.12,0,0,0,.42-.19Z"/><path id="path26825" class="cls-4" d="M4.91,24.57H8.68V20.39H4.91Z"/><path id="path26827" class="cls-5" d="M8.7,24.59H4.91v-4.2H8.68Zm0-4.2-3.75,0,0,4.16H8.66Z"/><path id="path26829" class="cls-6" d="M8.27,28.17a1.75,1.75,0,0,0,.42-1V24.48H8.26Z"/><path id="path26831" class="cls-5" d="M8.25,28.22V24.48l.46,0v2.76a1.69,1.69,0,0,1-.43,1Zm.43-3.74-.42,0,0,3.63a1.87,1.87,0,0,0,.38-.92Z"/><path id="path26833" class="cls-5" d="M6.8,28.88a1.85,1.85,0,0,1-1.9-1.8V24.57l3.78,0,0,2.53A1.85,1.85,0,0,1,6.8,28.88Zm1.86-4.31-3.75,0,0,2.49A1.83,1.83,0,0,0,6.8,28.84a1.82,1.82,0,0,0,1.86-1.76Z"/><path id="path26835" class="cls-4" d="M12.46,24.57v2.51a1.89,1.89,0,0,1-3.78,0V24.57Z"/><path id="path26837" class="cls-5" d="M10.57,28.88a1.86,1.86,0,0,1-1.91-1.8V24.57l3.8,0,0,2.53A1.86,1.86,0,0,1,10.57,28.88Zm1.87-4.31-3.76,0,0,2.49a1.87,1.87,0,0,0,3.74,0Z"/><path id="path26839" class="cls-6" d="M9.37,26.46v0a.07.07,0,0,1-.08.08.08.08,0,0,1-.09-.08.06.06,0,0,1,0,0H9.09v0a.21.21,0,0,0,.13.19V27h.14v-.31a.16.16,0,0,0,.12-.12h.35v-.1Zm1.69,0v.1h-.31a.05.05,0,0,1,0,0l.37.41-.11.08-.35-.41h0v.67H10.5v-.68h0l-.37.41L10,27l.37-.41s0,0,0,0h-.32v-.1Zm.21,0v.1h.35a.18.18,0,0,0,.12.12V27h.13v-.3A.21.21,0,0,0,12,26.5s0,0,0,0h-.12v0a.07.07,0,0,1-.08.08.08.08,0,0,1-.09-.08.06.06,0,0,1,0,0Zm-.52,1.73a1.29,1.29,0,0,0,.28-.08l.07.1a1.46,1.46,0,0,1-.34.1.21.21,0,0,1-.4,0,1.14,1.14,0,0,1-.36-.1l.07-.1a1.47,1.47,0,0,0,.3.08.19.19,0,0,1,.12-.1v-.53h.12v.52A.28.28,0,0,1,10.75,28.19ZM9.88,28l-.06.11a1.61,1.61,0,0,1-.28-.24.19.19,0,0,1-.19,0,.18.18,0,0,1,0-.27h0a1.64,1.64,0,0,1-.1-.38h.13a.85.85,0,0,0,.09.32h.1l.32-.35.1.08-.32.35a.18.18,0,0,1,0,.22A1.11,1.11,0,0,0,9.88,28Zm-.47-.37a.09.09,0,1,1,.13.11.09.09,0,0,1-.12,0A.08.08,0,0,1,9.41,27.64Zm-.16-.35-.13,0,0-.33.12-.05v.2A.76.76,0,0,0,9.25,27.29Zm.11-.42.13,0v.16c0-.06,0,.17,0,.17l-.13,0a1.34,1.34,0,0,1,0-.2Zm.43,1.07a1.28,1.28,0,0,0,.38.21l0-.13a1.2,1.2,0,0,1-.32-.16Zm-.07.11a1.27,1.27,0,0,0,.38.2l-.09.09a1.77,1.77,0,0,1-.31-.15Zm.18-.73.12.05.23-.25L10.18,27Zm-.1-.08-.08-.11.23-.26.13.06Zm1.42.77,0,.11a1.37,1.37,0,0,0,.29-.24.21.21,0,0,0,.2,0,.19.19,0,0,0,0-.27h0a1.64,1.64,0,0,0,.1-.38h-.13a1.07,1.07,0,0,1-.08.32h-.11l-.33-.35-.09.08.32.35a.18.18,0,0,0,0,.22A1.11,1.11,0,0,1,11.22,28Zm.47-.37a.08.08,0,0,0-.12,0,.08.08,0,0,0,0,.12.09.09,0,0,0,.12,0A.08.08,0,0,0,11.69,27.64Zm.16-.35.13,0,0-.33-.13-.05v.2A.75.75,0,0,1,11.85,27.29Zm-.11-.42-.13,0s0,.21,0,.16a1.3,1.3,0,0,0,0,.17l.13,0a.68.68,0,0,0,0-.2Zm-.43,1.07a1.41,1.41,0,0,1-.38.21l0-.13a1.2,1.2,0,0,0,.32-.16Zm.06.11a1.07,1.07,0,0,1-.38.2l.11.09a1.68,1.68,0,0,0,.3-.15Zm-.17-.73-.13.05-.22-.25.07-.11Zm.1-.08.07-.11-.23-.26-.12.06Zm-1.58-.68,0,.13h.35l0-.13Zm1.66,0,0,.13H11l0-.13Zm-.91,1.71a.08.08,0,0,1,.09-.08.08.08,0,0,1,.08.08.09.09,0,0,1-.08.08A.09.09,0,0,1,10.47,28.27Zm.15-.61.13,0v-.33l-.13,0Zm-.13,0-.13,0v-.33l.13,0Z"/><path id="path26841" class="cls-6" d="M9.09,26.46a.18.18,0,0,1,.14-.14V25.9h.13v.42a.19.19,0,0,1,.14.13H9.37a.12.12,0,0,0-.08,0,.09.09,0,0,0-.08,0Zm1,0h.31v0L10,26l.1-.08.39.43h0v-.57h.13v.57h0l.38-.43.09.08-.38.43a.08.08,0,0,1,0,.05h-.7Zm1.68,0a.09.09,0,0,1,.08,0,.12.12,0,0,1,.08,0H12a.2.2,0,0,0-.14-.14V25.9h-.13v.42a.19.19,0,0,0-.13.13h.12ZM9.37,25.3l.48.53.1-.08-.48-.53,0,0h.34v-.11H9.5a.21.21,0,1,0-.27.24v.41h.13V25.3Zm2.5,0v.41h-.13V25.3s0,0,0,0l-.48.53-.1-.08.49-.54a0,0,0,0,1,0,0h-.35v-.11h.35a.18.18,0,0,1,.19-.14.21.21,0,0,1,.21.2A.19.19,0,0,1,11.87,25.3Zm-1.25,0v.25h-.13V25.3a.2.2,0,0,1-.14-.13h-.3v-.11h.3a.2.2,0,0,1,.2-.14.22.22,0,0,1,.2.14h.31v.11h-.31A.27.27,0,0,1,10.62,25.3Zm-1.39.3-.13,0V26l.13,0Zm.13,0,.13,0V26l-.13,0Zm2.38,0-.13,0V26l.13,0Zm.13,0,.13,0V26l-.13,0Zm-2,.07.13-.05.23.25-.08.11Zm-.1.08-.07.1.23.26.13-.05Zm1.45-.09-.12-.05-.23.26.07.1Zm.1.08.07.11-.22.25L11,26.05Zm-1.6.71,0-.13h.35l0,.13Zm-.51-1.33A.09.09,0,0,1,9.3,25a.08.08,0,0,1,.08.09.08.08,0,0,1-.08.08A.09.09,0,0,1,9.21,25.12Zm.94.05,0,.13H9.76l0-.13Zm0-.11,0-.13H9.76l0,.13Zm1.23,1.39,0-.13H11l0,.13Zm.34-1.33a.09.09,0,0,1,.09-.09.08.08,0,0,1,.08.09.08.08,0,0,1-.08.08A.09.09,0,0,1,11.72,25.12Zm-1.26,0a.09.09,0,0,1,.18,0,.09.09,0,0,1-.18,0Zm.49.05,0,.13h.35l0-.13Zm0-.11,0-.13h.35l0,.13Zm-.46.38-.13,0v.34l.13,0Zm.13,0,.13,0v.34l-.13,0Z"/><path id="path26843" class="cls-6" d="M10.56,28.47a.21.21,0,0,1-.21-.16.74.74,0,0,1-.25,0h0l-.08.1h0a1.3,1.3,0,0,1-.31-.16l0-.13-.15-.13a1.11,1.11,0,0,1,.16.12l.09.06,0-.1L9.78,28a1,1,0,0,1-.15-.14.18.18,0,0,0,0-.21l.32-.37-.09-.07-.31.36h-.1a.26.26,0,0,1,.09,0l.32-.35.1.08-.31.37a.18.18,0,0,1,0,.21.64.64,0,0,0,.15.13l.08-.09a1.37,1.37,0,0,0,.32.16l0,.13.19,0a.18.18,0,0,1,.12-.1v-.52h.14v.53a.16.16,0,0,1,.12.11c.09,0,.19-.05.28-.09l.07.11a1,1,0,0,1-.34.11A.2.2,0,0,1,10.56,28.47Zm-.49-.24h0a1,1,0,0,0,.25.06.21.21,0,0,0,.39,0l.35-.1-.08-.1a.62.62,0,0,1-.27.09.28.28,0,0,0-.13-.11v-.53H10.5v.52a.24.24,0,0,0-.12.1,1.33,1.33,0,0,1-.21,0h0l-.11,0,0,.1Zm-.35-.17,0,.13.3.15.09-.08,0,0-.05,0a.76.76,0,0,1-.18-.09h0Zm.17,0,.18.09.09,0,0-.12a.73.73,0,0,1-.31-.14L9.8,28Zm-.42-.12a.2.2,0,0,1-.13,0,.23.23,0,0,1-.08-.14.18.18,0,0,1,.06-.15.87.87,0,0,1-.08-.26l-.12,0,0-.34.13-.06v-.18a.2.2,0,0,1-.15-.19.23.23,0,0,1,.15-.2v-.4h.13l0,.42a.27.27,0,0,1,.13.13h.33v.13H9.48a.16.16,0,0,1-.12.12v.19l.12,0,0,.34-.14.05.06.18a.47.47,0,0,1-.07-.17v0a.3.3,0,0,1,0-.1h-.1v.06a.08.08,0,0,0,0,0,.87.87,0,0,0,.08.26.23.23,0,0,0-.06.16.24.24,0,0,0,.07.13.25.25,0,0,0,.12,0h0Zm-.25-1-.12.05,0,.32.11,0s0-.07,0-.1v-.29Zm.15.11v.18a.28.28,0,0,0,0,.09l.12,0,0-.32-.11,0Zm0-1.1H9.22l0,.4a.21.21,0,0,0-.14.19.19.19,0,0,0,.13.18v.24l.1,0v-.29a.22.22,0,0,0,.13-.12h.36v-.11H9.49a.21.21,0,0,0-.14-.12Zm1.28,1.48H10.5v0h.11v-.66l0,0ZM11,27.1l-.16-.17.16.15.09-.08-.37-.39h0l.33.4Zm-.89,0L10,27l.09-.11L10,27l.09.06.36-.41v0Zm.23-.51-.29,0,0-.13h0v.11h.32Zm.65,0h.07v-.11h-.3l0,0,.27,0v.13Zm-.64-.15L10,26l.1-.09.15.16-.15-.15L10,26l.39.43Zm.29-.08v0l.37-.42.11.08-.08.09L11.1,26,11,25.9Zm-.14,0,0,0v-.55h.14V26l0-.21h-.11Zm-.65-.48-.28-.31.28.28.09-.07-.48-.51h.06l.43.52Zm-.63-.12V25.3a.19.19,0,0,1-.14-.18c0-.21.36-.26.42-.07h.34v.13h0v-.12H9.5c-.09-.18-.4-.13-.4.06a.19.19,0,0,0,.13.17v.41h.11v-.4l0,0v.38Z"/><path id="path26845" class="cls-6" d="M11.09,28.36l-.1-.1.27-.14,0-.1a1,1,0,0,1-.28.13h0l0-.14a1.38,1.38,0,0,0,.32-.17l.1.09a1.85,1.85,0,0,0,.14-.14.15.15,0,0,1,0-.21l-.32-.34.1-.1.34.36.07,0a.72.72,0,0,0,.09-.2l-.13,0v-.34l.13,0v-.19a.16.16,0,0,1-.12-.12h-.34v-.13h.35a.21.21,0,0,1,.13-.13V26l-.13,0v-.34l.14-.05v.31h.12v.42a.2.2,0,0,1,.14.19.19.19,0,0,1-.15.19v.2l.13,0,0,.35-.13,0a2.58,2.58,0,0,1-.08.26.22.22,0,0,1,.06.15.23.23,0,0,1-.08.14.24.24,0,0,1-.14,0,1,1,0,0,0-.24.16h0l0,.12a1,1,0,0,1-.32.17Zm.23-.26,0,0a1.28,1.28,0,0,1-.29.13l.11.08a2,2,0,0,0,.29-.16l0-.11Zm-.11-.23a1,1,0,0,1-.31.16l0,.1a1.24,1.24,0,0,0,.36-.19Zm0-.71-.08.09.32.34a.18.18,0,0,0,0,.21,1.27,1.27,0,0,1-.25.22l.06.09.09-.06a1.57,1.57,0,0,0,.19-.18.28.28,0,0,0,.19,0,.18.18,0,0,0,0-.27c0-.11.05-.19.07-.28s0-.07,0-.11h-.12v.1l-.07.22h-.12Zm.66-.17v.19a.34.34,0,0,0,0,.1l.11,0v-.33l-.11,0Zm-.26-.44a.25.25,0,0,0,.12.13V27h.11v-.29A.23.23,0,0,0,12,26.5a.21.21,0,0,0-.13-.18V25.9h-.11V26h0v.29a.25.25,0,0,0-.13.14h-.35v.11Zm-1.6.83-.12-.05.27-.33.09.11Zm.15-.37-.27.32.12,0,.23-.25Zm-.37.24-.08-.11.23-.27.13.05Zm.15-.37-.22.26.07.09.27-.31ZM9.35,26V25.6l.15,0V26Zm0-.41,0,.39.12,0v-.32ZM9.24,26,9.1,26v-.34l.13-.05Zm2-.19-.1-.08.16-.18-.15.17.09.06.47-.52v0Zm.5-.11v0h.12v-.4a.21.21,0,0,0,.14-.18c0-.19-.33-.24-.39-.07h-.35v.11h.34l0,0h-.32v-.13h.35c.05-.17.41-.13.41.08a.21.21,0,0,1-.15.19v.39Zm-1.12-.16h-.13V25.3a.21.21,0,0,1-.14-.12H10v-.13h.31c0-.15.34-.16.4,0h.31v.13h-.33a.18.18,0,0,1-.12.13v.24Zm-.27-.39a.27.27,0,0,0,.14.12v.26h.1V25.3a.19.19,0,0,0,.12-.13h.33v-.12h-.3a.22.22,0,0,0-.38,0h-.32v.11Z"/><path id="path26847" class="cls-6" d="M10.61,27.68v-.42l.14,0v.35Zm0-.41v.38l.12,0v-.33Zm-.12.41-.14,0v-.35l.14,0Zm.57-.3-.23-.26.08-.12.29.31Zm.23-.13L11,26.94l.13-.08.24.26Zm0-.55H11l-.05-.14h.44Zm0-.14-.42,0,0,.11h.34Zm-1.25.14H9.77l0-.14h.44Zm0-.14-.43,0,0,.11h.34Zm1.24-.11H11l0-.13h.37Zm-.06-.13H11l0,.11h.41Zm-1.16.13H9.72l0-.13h.37Zm-.06-.13H9.77l0,.11h.41Zm-.18-.2-.23-.25.07-.13.29.31Zm1.24,0L11,26.06l.27-.33.09.11Zm.14-.37-.27.31.12,0,.23-.25Zm.55.28V25.6l.15,0V26Zm0-.41V26L12,26v-.33ZM10.15,26l-.28-.32.13-.06.24.25Zm.79,0-.08-.12.22-.27.14,0Zm.15-.37-.22.25.07.08.27-.3Zm.26-.31H11l-.05-.13h.44Zm0-.14H11l.05.12h.34Zm-1.25.14H9.76l0-.13h.43Zm0-.14H9.72l0,.12h.34Zm1.24-.11H11l0-.13h.36Zm-.05-.13H11l0,.12.41,0Zm-1.17.13H9.72l0-.13h.37Zm-.06-.13H9.76l0,.12.41,0Z"/><path id="path26849" class="cls-6" d="M10.6,25.86v-.42l.15,0v.35Zm0-.41v.39l.13,0v-.33Zm-.12.41-.15,0v-.35l.15-.05Z"/><path id="path26851" class="cls-8" d="M10.35,26.5a.2.2,0,0,1,.21-.19.19.19,0,0,1,.2.19.2.2,0,0,1-.2.2A.2.2,0,0,1,10.35,26.5Z"/><path id="path26853" class="cls-11" d="M10.6,21.42v-.07a.69.69,0,0,1-.19,0,.51.51,0,0,1-.18-.09c-.06-.05-.08-.08-.13-.09a.23.23,0,0,0-.17,0,.4.4,0,0,1,.13.1.32.32,0,0,0,.14.11,1,1,0,0,0,.25,0Z"/><path id="path26855" class="cls-5" d="M10.6,21.44l-.13,0h-.14v0h-.11a.35.35,0,0,1-.15-.12.3.3,0,0,0-.13-.09s.06-.07.14-.07a.2.2,0,0,1,.14.06.52.52,0,0,0,.22.13h.19Zm-.15,0h.14v0h-.18a.4.4,0,0,1-.18-.1c-.07-.06-.09-.08-.12-.09a.43.43,0,0,0-.15,0,.19.19,0,0,1,.12.08.35.35,0,0,0,.14.11h.22Z"/><path id="path26857" class="cls-12" d="M11.17,21.25v.11c0,.05,0,.09,0,.12a.14.14,0,0,0,0,.07.56.56,0,0,0,0,.07l-.06,0,0,0a.56.56,0,0,1,0,.07l0,.1a.28.28,0,0,1,.09.1.46.46,0,0,1,0,.1.23.23,0,0,0-.07-.06l-.09-.05a.21.21,0,0,1,.06.12.55.55,0,0,1,0,.12.54.54,0,0,0-.07-.09L11,21.9A.5.5,0,0,1,11,22c0,.06,0,.19,0,.19a.28.28,0,0,0-.05-.08l-.08,0s0,0,0,.08a.64.64,0,0,0,.15.35c.07.11.17.29.41.23s.14-.37.1-.52a1.45,1.45,0,0,1-.08-.37c0-.05,0-.22,0-.25a.74.74,0,0,1,0-.25c0-.1.06-.13.07-.17a.76.76,0,0,0,0-.11.46.46,0,0,0,0-.1.43.43,0,0,1,0,.11.28.28,0,0,1,0,.11.19.19,0,0,1,.07-.12l.16-.11,0,0a.51.51,0,0,1-.05.2l-.13.16a.3.3,0,0,1,.09,0h.06a.47.47,0,0,0-.1.13,1.22,1.22,0,0,0-.08.17c0,.07-.08.07-.13.11s0,.33,0,.37a3.58,3.58,0,0,1,.15.43.39.39,0,0,1-.11.36c-.09.08-.24.08-.27.1a.24.24,0,0,0-.1.21c0,.14.05.16.09.19s.09,0,.1,0,0,0,0,.06a.06.06,0,0,1,0,.06s-.06.1-.09.14a1.24,1.24,0,0,0-.06.18.22.22,0,0,0,0,.11s.07.08,0,.09-.07,0-.08,0l-.07,0s0,0,0-.06,0-.05,0-.05,0,0,0,0,0,.07,0,.07l-.05,0S11,24,11,24a.1.1,0,0,1,.06-.07s.06,0,0,0a0,0,0,0,0,0,0s-.07,0-.06,0,0-.05,0-.06,0,0,0-.06.06,0,.11,0,.07,0,.08-.05a.14.14,0,0,0,0-.11s-.07,0-.08-.06a.41.41,0,0,1,0-.07v.17L11,23.53a.34.34,0,0,1,0-.1s0,.07,0,.1,0,0,0,.06-.06-.05-.08-.06l-.07-.08a.37.37,0,0,1,0-.11.48.48,0,0,1,0-.12l0-.08h-.1c-.06,0-.1,0-.13,0s0,.11,0,.22,0,.14,0,.16a.12.12,0,0,1-.05.07s0,0-.07,0a.14.14,0,0,0-.09,0h-.11l-.08,0s-.06,0,0,.05,0,.06,0,.06l-.07,0s-.06,0-.06,0,0,0,0-.06,0,0,0,0H10s0,0,0,0,0,0,0-.08,0-.09,0-.09.11,0,.11,0,0,0,0-.06,0,0,0-.05l.05,0s0-.07.06-.05,0,.05.05.1a.15.15,0,0,0,.15.07c.08,0,.1,0,.1-.05v-.07a.21.21,0,0,1,0-.08l-.05,0a.12.12,0,0,1,0,.05.35.35,0,0,1,0-.07.56.56,0,0,1,0-.07.31.31,0,0,0,0-.07.41.41,0,0,1,0,.07.28.28,0,0,0,0,.08.13.13,0,0,1,0-.12c0-.05,0-.13,0-.15s.05-.13.15-.13h.21l.16,0-.28-.15a.56.56,0,0,1-.15-.16.42.42,0,0,1,0-.12.2.2,0,0,0-.08,0,.34.34,0,0,0-.09.08l-.06.07s0-.07,0-.09v-.07a.34.34,0,0,1-.08.14l-.11.09v-.07a.64.64,0,0,1,0-.07.18.18,0,0,1-.1.06c-.05,0-.13,0-.14,0s0,.08,0,.11l0,0a.1.1,0,0,0-.06,0H9.54s0,0,0-.05.05-.05,0-.06,0,0-.06,0-.08,0-.07,0a.12.12,0,0,0,0-.08s0,0,0-.05.09,0,.09,0,0,0-.06-.05-.07,0,0-.06,0,0,0,0,0-.06.06,0,0,.06.08.07a.28.28,0,0,0,.16,0l.11-.08.12-.08-.08-.06S9.87,22,9.85,22A.88.88,0,0,0,9.7,22l-.13,0,.06,0s0,0,.07,0H9.61s-.07,0-.1,0H9.45a.28.28,0,0,1,.1-.05h.09a.29.29,0,0,1-.1-.05l0-.07s0,0-.05,0,0,0-.08,0,0,0,0-.05v0s-.05-.06,0-.07h.1s0-.05-.06-.06-.07,0,0-.06l.06,0s0-.07.06-.05.06.09.08.08,0-.06,0-.08,0-.07,0-.06,0,0,.08,0,.08,0,.07,0a.15.15,0,0,1,0,.08.14.14,0,0,0,0,.11.29.29,0,0,0,.09.11l.13.06.17.11.06,0h.09a.66.66,0,0,0,.2,0c.05,0,.1-.05.08-.09s-.11-.07-.1-.1,0,0,.1,0,.14,0,.15-.08,0-.12-.06-.14-.14,0-.15-.08,0-.07,0-.09l.11,0h.14s0,0,.05-.07a.35.35,0,0,1,.12,0,1.27,1.27,0,0,1,.2.13.72.72,0,0,1,.18.17Z"/><path id="path26859" class="cls-5" d="M11.24,24.06,11.19,24l-.08,0L11,24a.11.11,0,0,1,.07-.08L11,23.82v-.1h0v.09l.11,0L11,24h0l.07,0,.08-.07.05.12v0l.1,0a.9.9,0,0,1,0-.17,1.08,1.08,0,0,1,.06-.2l.05-.07,0-.12h0l-.14-.11s-.08-.06-.08-.19a.27.27,0,0,1,.11-.23c.13,0,.2,0,.25-.09a.35.35,0,0,0,.12-.33,1.32,1.32,0,0,0-.12-.35.43.43,0,0,1,0-.1s-.06-.3,0-.38a.38.38,0,0,0,.13-.11.93.93,0,0,1,.08-.17,1.15,1.15,0,0,1,.09-.12l0,0a.52.52,0,0,0-.1.12.23.23,0,0,0,0,.09l0,.07a.16.16,0,0,1-.09.09c-.11.09-.08.34-.06.38a.33.33,0,0,0,0,.1,1.25,1.25,0,0,1,.12.34.46.46,0,0,1-.12.38.58.58,0,0,1-.21.07.21.21,0,0,0-.15.22c0,.12,0,.14.06.17h0l.11.06,0,.13s0,0,0,.07a.43.43,0,0,0,0,.07,1.56,1.56,0,0,0-.07.17.15.15,0,0,0,0,.1s0,.06,0,.09Zm-.11-.34-.09,0,.05,0c.08,0,.1,0,.1,0a.06.06,0,0,0,0-.09l-.07-.07v.07a.93.93,0,0,1,0-.14l.12.12a.11.11,0,0,1,0,.13A.11.11,0,0,1,11.13,23.72Zm-1,0-.09,0,0-.06v0H10s-.05,0-.05-.09l0-.09H10v-.07l.14-.13.05.11a.15.15,0,0,0,.15.06c.08,0,.09,0,.09,0v-.07l0-.07,0,.08c0,.11,0,.11-.1.12a.16.16,0,0,1-.17-.07l0-.07-.07,0h0v.13H10l0,.14h0l.1,0v.08l.07.05h0l.13-.06,0,.09Zm.48-.05h-.07l-.09,0-.17,0h.13l.14,0a.16.16,0,0,0,.11-.05s0-.06,0-.11-.05-.24,0-.28.06,0,.09,0h.15l0,.11a.21.21,0,0,0,0,.11.38.38,0,0,0,0,.1.3.3,0,0,0,.08.08l.06.09h0l-.06-.05-.1-.1a1,1,0,0,1,0-.11.28.28,0,0,1,0-.13l0-.09-.22,0h0a.47.47,0,0,0,0,.2.54.54,0,0,1,0,.18l-.06.07Zm-.26-.34s0-.05,0-.09v-.07l0,.07v0a.11.11,0,0,1,0-.13v-.16c0-.05.07-.13.16-.13a.42.42,0,0,1,.16,0l.19,0a1.13,1.13,0,0,1-.27-.13.49.49,0,0,1-.15-.17.33.33,0,0,1-.06-.12.8.8,0,0,0-.14.11l-.06.07s0-.07,0-.09a.1.1,0,0,1-.05.07l-.11.09,0,0V22.5a.09.09,0,0,1-.06,0l-.13,0v.11H9.64l0-.07c0-.09.05-.09.11-.1a.16.16,0,0,0,.12-.06l0,0v.12s0,0,.08,0a.33.33,0,0,0,.07-.13.3.3,0,0,1,0,.12l0,0a.23.23,0,0,1,.09-.08l.09,0a1.29,1.29,0,0,0,.06.12.56.56,0,0,0,.15.16l.27.14s-.12.05-.16.06h-.21a.17.17,0,0,0-.13.11l0,.08s0,.06,0,.08a.2.2,0,0,0,0,.09v-.06l0-.06h0l0,.1a.31.31,0,0,0,0,.11h0Zm1-.49a.4.4,0,0,1-.33-.23.91.91,0,0,1-.16-.37.1.1,0,0,0,0-.08h0l0,0,.07,0s0,0,.05.05A.81.81,0,0,1,11,22a.49.49,0,0,0,0-.14s.07,0,.11.05l.06.07v-.09a.23.23,0,0,0,0-.11s.08,0,.11,0l.05,0a.13.13,0,0,1,0-.06l-.07-.08a.25.25,0,0,1-.05-.11v-.08h0v0l.08.07,0-.18v-.17h0a.59.59,0,0,0,0,.11v.11l0,.15h0v0l-.07-.08v.06a.25.25,0,0,0,0,.09s.07.07.08.1a.23.23,0,0,1,0,.11l-.08-.05,0,0a.19.19,0,0,1,0,.08.44.44,0,0,1,0,.12S11.07,22,11,22l0,0A.23.23,0,0,1,11,22c0,.06,0,.19,0,.19s-.06,0-.09-.06l0,0,0,0a.62.62,0,0,0,.14.35c.08.12.18.27.39.22a.23.23,0,0,0,.12-.09.56.56,0,0,0,0-.41,1.47,1.47,0,0,1-.07-.38,1,1,0,0,1,0-.12,1.23,1.23,0,0,1,0-.13.74.74,0,0,1,0-.25c0-.07,0-.11.05-.14l0-.14a.46.46,0,0,0,0-.1s.07.08.08.1a.07.07,0,0,1,0,.05.15.15,0,0,1,0-.07l.16-.1h0a.19.19,0,0,1-.1.1c-.15.09-.12.15-.12.14s0,0,0,0a.2.2,0,0,1,0-.1l0-.05v.05a.14.14,0,0,1,0,.07l-.09.21a.89.89,0,0,0,0,.24s0,.06,0,.14a.65.65,0,0,0,0,.11,1.08,1.08,0,0,0,.07.37.57.57,0,0,1,0,.44.16.16,0,0,1-.13.09ZM9.59,22.7l-.16-.09v-.1l.07-.08-.07-.07.05-.08h0l.07,0,.07.07a.34.34,0,0,0,.15,0l.11-.08.12-.07-.07,0L9.84,22,9.7,22l-.13,0,.06-.06h0l-.08,0h.06l.11,0h0l-.13.08s.09,0,.11,0a.53.53,0,0,1,.15.05l.09.08s.07.05.07.05-.1.1-.12.12l-.12.07a.3.3,0,0,1-.17,0l-.08-.08-.07.08c.07,0,.1.06.1.08h0l-.06,0,0,.08h.12l0,.08.09,0Zm0-.91,0,0s-.06,0-.06,0l0-.08H9.37s0,0-.06-.07l0-.11.09,0h0l-.09-.09.14-.13.08.09h0l0-.13.1,0v0l.08,0a.13.13,0,0,1,0,.1s0,.08,0,.1a.2.2,0,0,0,.07.1l.15.07.15.11a.38.38,0,0,0,.15,0,.64.64,0,0,0,.2,0c.05,0,.07-.05.07-.06h0l-.09-.12c0-.05.05-.05.11-.05s.12,0,.14-.06,0-.11-.05-.12-.15,0-.17-.09v-.11s.05,0,.1,0h.15l.05-.08.11,0a.83.83,0,0,1,.22.13.74.74,0,0,1,.18.17s-.11-.09-.19-.15a1.13,1.13,0,0,0-.21-.13l-.1,0,0,.07-.12,0c-.1,0-.12,0-.14,0s.06.12.12.13.13.09.12.17-.1.08-.15.08-.1,0-.1,0l.1.1a.12.12,0,0,1-.09.1.51.51,0,0,1-.18,0,.27.27,0,0,0-.11,0,.56.56,0,0,1-.19-.1l-.13-.07c-.1-.06-.14-.11-.15-.15a.11.11,0,0,1,0-.12.2.2,0,0,0,0-.08l-.12,0c0,.06,0,.13-.06.14h0l0-.05-.11,0c0,.06.08.09.08.11l-.11,0,0,.08.12,0,.08.09a.13.13,0,0,0,.1.07S9.6,21.78,9.56,21.79Zm2.23-.48s.09-.14.12-.18,0-.12,0-.16,0,.13,0,.18l-.1.12h.09Z"/><path id="path26861" class="cls-5" d="M10.39,21.2a.26.26,0,0,1,0-.05v0s.06,0,.05,0,0,0,0,0A0,0,0,0,0,10.39,21.2Z"/><path id="path26863" class="cls-5" d="M10.69,21.09v0a.2.2,0,0,1,.09,0,.32.32,0,0,1,.07.08l-.07,0h0s0,0,0,0a0,0,0,0,1,0,0Z"/><path id="path26865" class="cls-11" d="M9.55,21.18a.19.19,0,0,0,.06,0h.06a.11.11,0,0,0,0-.07.13.13,0,0,0-.1-.11s0,.06,0,.08a.3.3,0,0,1,0,.07Z"/><path id="path26867" class="cls-11" d="M9.37,21.26a.1.1,0,0,0-.1-.05.18.18,0,0,0-.1.06s.07,0,.09,0,0,.06,0,.06l0,0Z"/><path id="path26869" class="cls-11" d="M9.3,21.5a.27.27,0,0,0-.1,0,.22.22,0,0,0,0,.11.19.19,0,0,1,.08,0h.09a.2.2,0,0,1,0-.06A.2.2,0,0,0,9.3,21.5Z"/><path id="path26871" class="cls-5" d="M9.17,21.65a.17.17,0,0,1,0-.12.28.28,0,0,1,.09-.05h0l0,.08a0,0,0,0,1,0,0l0-.08h0a.17.17,0,0,0-.07,0,.11.11,0,0,0,0,.06s.1,0,.13,0-.05,0-.07,0l0,0Z"/><path id="path26873" class="cls-5" d="M10.39,21.49l0,0,0,0Z"/><path id="path26875" class="cls-5" d="M10.45,21.49l0,0,0,0Z"/><path id="path26877" class="cls-5" d="M10.42,21.24l.06,0-.05,0Z"/><path id="path26879" class="cls-5" d="M10.5,21.26h.05l0,0Z"/><path id="path26881" class="cls-5" d="M10.32,22.37l0,0,.11-.06.08-.08s0-.09,0-.11,0,0,0-.06l-.05,0-.13.06-.07,0s0-.08,0-.13v0l-.15.09a.13.13,0,0,0-.06.07h0s0-.07.08-.09l.1-.05h.06v0a.24.24,0,0,1,0-.09H10.2l-.11,0h0a.14.14,0,0,0-.1,0s0-.05,0-.1a.28.28,0,0,1,.09-.05v0a.15.15,0,0,0-.08,0c0,.05,0,0,0,0h0l.1,0h0l.09,0s0,.09,0,.12l0,.09a.24.24,0,0,1,0,.09h0a.22.22,0,0,0,.13-.06.27.27,0,0,0,.06-.07s0,.09,0,.11,0,.08,0,.11,0,0,0,0l.08,0h0l0,0v0s0,0,0,0l0,0a.29.29,0,0,0,0,.09.66.66,0,0,1,0,.11l0-.07a.18.18,0,0,0,.05-.07s0,0,0,.09a.31.31,0,0,0,0,.09s-.06-.11-.08-.13l0,0v0a.15.15,0,0,1-.06.05l-.06,0h0s0,.07-.07.09Z"/><path id="path26883" class="cls-11" d="M9.49,22.26a.09.09,0,0,0-.09,0,.18.18,0,0,0-.09.07h.07l0,0,0,0A.15.15,0,0,1,9.49,22.26Z"/><path id="path26885" class="cls-11" d="M9.42,22.48a.08.08,0,0,0-.08,0s0,.09,0,.09a.1.1,0,0,1,.06,0,.09.09,0,0,1,.06,0s0,0,0,0A.08.08,0,0,0,9.42,22.48Z"/><path id="path26887" class="cls-11" d="M9.53,22.69a.15.15,0,0,0,0,.09.15.15,0,0,0,.08,0,.42.42,0,0,1,0-.06.1.1,0,0,1,0-.06.1.1,0,0,0-.06,0Z"/><path id="path26889" class="cls-5" d="M10.86,23.15s.06-.12.06-.19-.1-.14-.15-.16l0,0s.16.11.15.19A.5.5,0,0,1,10.86,23.15Z"/><path id="path26891" class="cls-11" d="M10.08,23.21a.11.11,0,0,0-.08,0,.22.22,0,0,0-.12,0s.07,0,.09,0l0,.05.05,0Z"/><path id="path26893" class="cls-11" d="M9.92,23.43s-.07,0-.1,0a.12.12,0,0,0,0,.1.11.11,0,0,1,.08,0l.08,0a.35.35,0,0,1,0-.06Z"/><path id="path26895" class="cls-11" d="M10.07,23.65s0,.05,0,.08a.21.21,0,0,0,.08.06.08.08,0,0,1,0-.06l0-.06Z"/><path id="path26897" class="cls-11" d="M11,23.74s-.06,0-.09,0-.07.11-.07.11.06-.05.1,0a.14.14,0,0,1,.07,0,.11.11,0,0,0,0-.06Z"/><path id="path26899" class="cls-5" d="M10.82,23.89v-.05s0-.08.07-.11H11v0h0a.1.1,0,0,0-.08.06H11v0a.17.17,0,0,0-.15,0Z"/><path id="path26901" class="cls-11" d="M11,24a.13.13,0,0,0,0,.09l.05.08s0-.06,0-.07a.11.11,0,0,1,.07,0l0,0Z"/><path id="path26903" class="cls-11" d="M11.27,24a.08.08,0,0,0,0,.1.12.12,0,0,0,.08,0,.3.3,0,0,1,0-.09l.05,0-.07,0Z"/><path id="path26905" class="cls-13" d="M8.87,28.2a.3.3,0,0,1,.24.3c0,.18-.17.31-.39.31s-.41-.13-.41-.31a.27.27,0,0,1,.23-.3l0,0,0-.05a.16.16,0,0,1,.1,0l0,0,0,0a.17.17,0,0,1,.06,0l0,0,0,0,.06,0,.06,0a.21.21,0,0,1,0,.06A.17.17,0,0,0,8.87,28.2Z"/><path id="path26907" class="cls-5" d="M8.72,28.83c-.25,0-.43-.15-.43-.33a.28.28,0,0,1,.24-.31v0a.26.26,0,0,0-.22.28.37.37,0,0,0,.4.3.34.34,0,0,0,.38-.3.31.31,0,0,0-.23-.29h0l0-.07,0,0H8.76l0-.08v0l-.11.07-.09,0v.05l-.06-.08.1,0v0L8.73,28l.07.1h0l.1-.07v.08a.4.4,0,0,1,.23.35A.37.37,0,0,1,8.72,28.83Z"/><path id="path26909" class="cls-8" d="M8.68,29a2.19,2.19,0,0,0-.43-.23,1.52,1.52,0,0,0-.42,0,.73.73,0,0,1,.13.11.8.8,0,0,0,.26.14A.94.94,0,0,0,8.68,29Z"/><path id="path26911" class="cls-5" d="M8.41,29.06a.68.68,0,0,1-.2,0A.81.81,0,0,1,8,28.89a.63.63,0,0,0-.14-.1l.11,0h.13l.21,0A2.41,2.41,0,0,1,8.7,29S8.57,29.06,8.41,29.06Zm-.54-.27a.36.36,0,0,1,.1.07.68.68,0,0,0,.25.14.91.91,0,0,0,.45,0c-.06,0-.31-.17-.42-.19l-.2,0Z"/><path id="path26913" class="cls-8" d="M8.77,29a.77.77,0,0,1,.39-.22,1.19,1.19,0,0,1,.48,0l-.12.07a.67.67,0,0,1-.31.12l-.37,0Z"/><path id="path26915" class="cls-5" d="M9.2,29.05H8.79l.06,0H9.2v0a.53.53,0,0,0,.29-.11l.12-.07s0,.07-.08.09a.53.53,0,0,1-.33.13Zm-.41,0,0,0a.86.86,0,0,1,.4-.23,1,1,0,0,1,.46,0h0c-.1,0-.19,0-.31,0H9.16A.79.79,0,0,0,8.79,29Z"/><path id="path26917" class="cls-4" d="M8.71,28.78a.39.39,0,0,1,0-.56.36.36,0,0,1,.12.28A.4.4,0,0,1,8.71,28.78Z"/><path id="path26919" class="cls-5" d="M8.71,28.8h0a.39.39,0,0,1-.13-.29.41.41,0,0,1,.13-.29.35.35,0,0,1,.15.29.39.39,0,0,1-.13.29Zm0-.56a.43.43,0,0,0-.09.26.36.36,0,0,0,.1.25.37.37,0,0,0,.1-.25A.35.35,0,0,0,8.7,28.24Z"/><path id="path26921" class="cls-8" d="M8.63,29.18a.6.6,0,0,0,0-.21.5.5,0,0,0,0-.16h.06a.62.62,0,0,1,0,.16c0,.08,0,.18,0,.18H8.7Z"/><path id="path26923" class="cls-5" d="M8.65,29.19h0A1.26,1.26,0,0,0,8.67,29a.9.9,0,0,0,0-.16l.08,0a.35.35,0,0,1,0,.18c0,.08,0,.18,0,.18l-.11,0A0,0,0,0,0,8.65,29.19Zm.06-.38s0,.09,0,.16a.69.69,0,0,1,0,.19h0A.25.25,0,0,0,8.75,29a.51.51,0,0,0,0-.15A0,0,0,0,1,8.71,28.81Z"/><path id="path26925" class="cls-1" d="M12.41,18.38a.08.08,0,1,1,.08.08A.08.08,0,0,1,12.41,18.38Z"/><path id="path26927" class="cls-1" d="M12.52,18.18a.09.09,0,0,1,.08-.08.09.09,0,0,1,.09.08.08.08,0,0,1-.09.07A.07.07,0,0,1,12.52,18.18Z"/><path id="path26929" class="cls-1" d="M12.59,18a.1.1,0,0,1,.09-.08.08.08,0,1,1,0,.16A.1.1,0,0,1,12.59,18Z"/><path id="path26931" class="cls-1" d="M12.61,17.7a.08.08,0,1,1,.08.08A.08.08,0,0,1,12.61,17.7Z"/><path id="path26933" class="cls-1" d="M12.54,17.46a.09.09,0,0,1,.09-.08.08.08,0,0,1,0,.16A.09.09,0,0,1,12.54,17.46Z"/><path id="path26935" class="cls-1" d="M12.42,17.24a.08.08,0,0,1,.16,0,.09.09,0,0,1-.08.08S12.42,17.28,12.42,17.24Z"/><path id="path26937" class="cls-1" d="M12.25,17.06a.08.08,0,0,1,.08-.08.08.08,0,0,1,.09.08.08.08,0,0,1-.09.07A.08.08,0,0,1,12.25,17.06Z"/><path id="path26939" class="cls-1" d="M12.05,16.91a.08.08,0,0,1,.09-.08.08.08,0,0,1,.08.08.08.08,0,0,1-.08.07A.08.08,0,0,1,12.05,16.91Z"/><path id="path26941" class="cls-1" d="M11.82,16.78a.08.08,0,1,1,.08.08A.09.09,0,0,1,11.82,16.78Z"/><path id="path26943" class="cls-1" d="M11.57,16.69a.1.1,0,0,1,.09-.08.08.08,0,0,1,0,.16A.1.1,0,0,1,11.57,16.69Z"/><path id="path26945" class="cls-1" d="M11.31,16.65a.07.07,0,0,1,.08-.08.08.08,0,0,1,.08.08.08.08,0,0,1-.08.07A.07.07,0,0,1,11.31,16.65Z"/><path id="path26947" class="cls-1" d="M11,16.63a.09.09,0,0,1,.09-.08.08.08,0,1,1,0,.16A.09.09,0,0,1,11,16.63Z"/><path id="path26949" class="cls-1" d="M10.79,16.64a.08.08,0,0,1,.08-.08.08.08,0,0,1,.09.08.09.09,0,0,1-.09.08A.09.09,0,0,1,10.79,16.64Z"/><path id="path26951" class="cls-1" d="M10.54,16.64a.08.08,0,0,1,.08-.08.07.07,0,0,1,.08.08.08.08,0,0,1-.08.08A.09.09,0,0,1,10.54,16.64Z"/><path id="path26953" class="cls-1" d="M10.67,16.86a.07.07,0,0,1,.08-.08.08.08,0,0,1,.08.08.08.08,0,0,1-.08.07A.07.07,0,0,1,10.67,16.86Z"/><path id="path26955" class="cls-1" d="M10.72,17.1A.07.07,0,0,1,10.8,17a.08.08,0,0,1,.08.08.08.08,0,0,1-.08.07A.07.07,0,0,1,10.72,17.1Z"/><path id="path26957" class="cls-1" d="M10.73,17.33a.08.08,0,0,1,.08-.07.08.08,0,0,1,.09.07.08.08,0,0,1-.09.08A.08.08,0,0,1,10.73,17.33Z"/><path id="path26959" class="cls-1" d="M10.65,17.55a.09.09,0,0,1,.08-.08.08.08,0,1,1,0,.16A.09.09,0,0,1,10.65,17.55Z"/><path id="path26961" class="cls-1" d="M10.52,17.75a.07.07,0,0,1,.07-.08.08.08,0,0,1,.09.08.09.09,0,0,1-.09.08A.08.08,0,0,1,10.52,17.75Z"/><path id="path26963" class="cls-1" d="M10.35,16.49a.09.09,0,0,1,.08-.08.08.08,0,1,1,0,.16A.09.09,0,0,1,10.35,16.49Z"/><path id="path26965" class="cls-1" d="M10.12,16.36a.09.09,0,0,1,.09-.08.09.09,0,0,1,.08.08.08.08,0,0,1-.08.08A.08.08,0,0,1,10.12,16.36Z"/><path id="path26967" class="cls-1" d="M9.87,16.29a.08.08,0,0,1,.09-.08.09.09,0,0,1,.09.08.1.1,0,0,1-.09.08A.09.09,0,0,1,9.87,16.29Z"/><path id="path26969" class="cls-1" d="M9.62,16.24a.08.08,0,0,1,.16,0,.08.08,0,0,1-.08.08A.07.07,0,0,1,9.62,16.24Z"/><path id="path26971" class="cls-1" d="M9.37,16.25a.08.08,0,1,1,.08.08A.08.08,0,0,1,9.37,16.25Z"/><path id="path26973" class="cls-1" d="M9.1,16.29a.08.08,0,0,1,.09-.07.08.08,0,0,1,.08.07.09.09,0,0,1-.08.08A.09.09,0,0,1,9.1,16.29Z"/><path id="path26975" class="cls-1" d="M8.86,16.38A.08.08,0,0,1,9,16.3a.07.07,0,0,1,.07.08.08.08,0,0,1-.07.08A.09.09,0,0,1,8.86,16.38Z"/><path id="path26977" class="cls-1" d="M4.74,18.38a.09.09,0,0,1,.09-.08.08.08,0,0,1,0,.16A.09.09,0,0,1,4.74,18.38Z"/><path id="path26979" class="cls-1" d="M4.63,18.18a.09.09,0,0,1,.08-.08.09.09,0,0,1,.09.08.08.08,0,0,1-.09.07A.07.07,0,0,1,4.63,18.18Z"/><path id="path26981" class="cls-1" d="M4.56,18a.08.08,0,1,1,.08.08A.09.09,0,0,1,4.56,18Z"/><path id="path26983" class="cls-1" d="M4.55,17.7a.08.08,0,1,1,.08.08A.08.08,0,0,1,4.55,17.7Z"/><path id="path26985" class="cls-1" d="M4.61,17.46a.08.08,0,0,1,.08-.08.08.08,0,0,1,0,.16A.08.08,0,0,1,4.61,17.46Z"/><path id="path26987" class="cls-1" d="M4.73,17.24a.08.08,0,0,1,.09-.08.08.08,0,0,1,.08.08.09.09,0,0,1-.08.08C4.77,17.31,4.73,17.28,4.73,17.24Z"/><path id="path26989" class="cls-1" d="M4.9,17.06A.08.08,0,0,1,5,17a.08.08,0,0,1,.09.08.08.08,0,0,1-.09.07A.08.08,0,0,1,4.9,17.06Z"/><path id="path26991" class="cls-1" d="M5.1,16.91a.08.08,0,0,1,.08-.08.07.07,0,0,1,.08.08.07.07,0,0,1-.08.07A.08.08,0,0,1,5.1,16.91Z"/><path id="path26993" class="cls-1" d="M5.33,16.78a.09.09,0,0,1,.09-.08.08.08,0,1,1,0,.16A.09.09,0,0,1,5.33,16.78Z"/><path id="path26995" class="cls-1" d="M5.58,16.69a.08.08,0,0,1,.07-.08.08.08,0,1,1,0,.16A.08.08,0,0,1,5.58,16.69Z"/><path id="path26997" class="cls-1" d="M5.85,16.65a.08.08,0,0,1,.16,0,.08.08,0,0,1-.16,0Z"/><path id="path26999" class="cls-1" d="M6.1,16.63a.1.1,0,0,1,.09-.08.08.08,0,1,1,0,.16A.1.1,0,0,1,6.1,16.63Z"/><path id="path27001" class="cls-1" d="M6.36,16.64a.08.08,0,0,1,.08-.08.08.08,0,0,1,.09.08.09.09,0,0,1-.09.08A.09.09,0,0,1,6.36,16.64Z"/><path id="path27003" class="cls-1" d="M6.61,16.64a.08.08,0,0,1,.09-.08.08.08,0,0,1,.08.08.09.09,0,0,1-.08.08A.09.09,0,0,1,6.61,16.64Z"/><path id="path27005" class="cls-1" d="M6.49,16.86a.08.08,0,0,1,.16,0,.08.08,0,0,1-.16,0Z"/><path id="path27007" class="cls-1" d="M6.43,17.1A.08.08,0,0,1,6.52,17a.08.08,0,0,1,.08.08.08.08,0,0,1-.08.07A.08.08,0,0,1,6.43,17.1Z"/><path id="path27009" class="cls-1" d="M6.43,17.33a.07.07,0,0,1,.08-.07.08.08,0,0,1,.08.07.08.08,0,0,1-.08.08A.07.07,0,0,1,6.43,17.33Z"/><path id="path27011" class="cls-1" d="M6.5,17.55a.09.09,0,0,1,.08-.08.08.08,0,1,1,0,.16A.09.09,0,0,1,6.5,17.55Z"/><path id="path27013" class="cls-1" d="M6.64,17.75a.08.08,0,0,1,.09-.08.07.07,0,0,1,.07.08.08.08,0,0,1-.07.08A.09.09,0,0,1,6.64,17.75Z"/><path id="path27015" class="cls-1" d="M6.8,16.49a.09.09,0,0,1,.09-.08.08.08,0,0,1,0,.16A.09.09,0,0,1,6.8,16.49Z"/><path id="path27017" class="cls-1" d="M7,16.36a.09.09,0,0,1,.08-.08.09.09,0,0,1,.09.08.08.08,0,0,1-.09.08A.08.08,0,0,1,7,16.36Z"/><path id="path27019" class="cls-1" d="M7.27,16.29a.08.08,0,0,1,.09-.08.08.08,0,0,1,.08.08.09.09,0,0,1-.08.08A.09.09,0,0,1,7.27,16.29Z"/><path id="path27021" class="cls-1" d="M7.53,16.24a.08.08,0,0,1,.09-.07.08.08,0,0,1,.08.07.09.09,0,0,1-.08.08A.08.08,0,0,1,7.53,16.24Z"/><path id="path27023" class="cls-1" d="M7.79,16.25a.08.08,0,1,1,.08.08A.08.08,0,0,1,7.79,16.25Z"/><path id="path27025" class="cls-1" d="M8.05,16.29a.07.07,0,0,1,.08-.07s.09,0,.09.07a.1.1,0,0,1-.09.08A.08.08,0,0,1,8.05,16.29Z"/><path id="path27027" class="cls-1" d="M8.29,16.38a.08.08,0,0,1,.08-.08.07.07,0,0,1,.08.08.08.08,0,0,1-.08.08A.09.09,0,0,1,8.29,16.38Z"/><path id="path27029" class="cls-6" d="M6.24,21.37H6.18v-.06H6.05v.27h.13v.18H5.92v.55h.13v1.08H5.78V24H7.87v-.57H7.6V22.31h.14v-.55H7.48v-.18H7.6v-.27H7.48v.06H7.41v-.06H7.3v.06H7.21v-.06H7.09v.27h.12v.18H7v-.59h.14V20.9H7V21H6.89V20.9H6.77V21H6.7V20.9H6.56v.27H6.7v.59H6.45v-.18h.11v-.27H6.45v.06H6.38v-.06H6.24Z"/><path id="path27031" class="cls-5" d="M5.78,24v-.59h.28V22.32H5.92l0-.56h.28l0-.17-.1,0v-.29l.15,0v.08l0,0H6.15v-.08h-.1v.12h.49v-.13l-.14,0,0-.05h.11l0,.29-.13,0v.15H6.7l0-.58H6.56V20.9l.17,0,0,.08-.12-.05,0,.12h.5V20.9l-.15,0,0,0h.14l0,.29H7l0,.57h.24v-.17l-.11,0,0-.29.15,0v.08h0l0,0v-.08H7.09v.15l.5,0,0-.13-.13,0,0-.05H7.6l0,.29-.14,0,0,.16h.24v.56H7.6l0,1.06h.25l0,.58Zm1.83,0h.26V23.8l-.12,0H6.3l0,.11h1v-.12l0,.12h.22v-.12Zm.14-.14h.12v-.13H7.36l-1.2,0,0,.1H7.47v-.12l0,.12h.25l0-.12h0Zm-.14-.13h.26v-.14H7.75v0H6.3l0,.11h1v-.12l0,.12h.22v-.12Zm-.11-.14h.22v-.12H7.6v0H6.46v.13h.77l0-.14h0v.14h.24v-.14Zm-.14-.15H7.6v-.12l-.1,0v0l-.28,0H6.55l0,.1h.49v-.1l0,.1h.23v-.1Zm.14-.12h.1v-.14H6.72v.12H7l0-.12H7v.12h.25l0-.12h0v.12H7.5l0-.12h0Zm-.14-.14H7.6V23L7,23H6.8l0,.13h.24V23l0,.13h.23V23ZM7,23H7.6v-.14l-.87,0V23H7l0-.12H7Zm-.91,0h.64l0-.11H6.06Zm.76-.14h.76V22.7l-.61,0H6.8Zm-.77,0H6.8v-.11H6.06ZM7,22.7h.61v-.14l-.48,0H6.72v.12H7l0-.12H7Zm-.92,0h.65l0-.12-.62,0Zm1.05-.14h.48v-.13l-.09,0v0l-.27,0v0l-.25,0H6.8l0,.11H7.1l0-.11h0Zm-1.05,0h.52l0-.11h-.5Zm1.44-.13h.09v-.12H6.72v.12H7l0-.12H7v.12h.25l0-.12h0v.12H7.5l0-.12h0Zm.12-.14h.12v-.14l-.23,0H6.8l0,.12H7.1l0-.12h0v.12h.25l0-.12h0v.12h.25l0-.12h0Zm-.12-.14h.23V22l-.1,0v0l-.51,0H6.72v.11H7l0-.11H7v.11h.25l0-.11h0v.11H7.5l0-.11h0ZM7.62,22h.1v-.14l-.92,0,0,.12H7.1l0-.12h0V22h.5l0-.12h0ZM6.07,22h.51l0-.11H6.07Zm-.14-.14H7.72v-.12l-.24,0v0H7.22l-.27,0v0l-.5,0H5.92Zm1.28-.28v0h.11l.14,0v0l.13,0v-.09H7.1v.11l.1,0h.27Zm-1,0h.25v0l.13,0v-.12l-.49,0v.11l.11,0h.27l-.27,0Zm.52-.41h.24v0l.15,0V21l-.5,0v.1l.37,0-.25,0Z"/><path id="path27033" class="cls-6" d="M7.17,24V23.6c0-.07,0-.27-.35-.27s-.34.2-.34.27V24Z"/><path id="path27035" class="cls-5" d="M7.2,24H6.48l0-.38c0-.05,0-.29.36-.29s.38.24.38.29Zm-.38-.64c-.31,0-.32.22-.32.26V24l.66,0V23.6C7.16,23.54,7.13,23.34,6.82,23.34Z"/><path id="path27037" class="cls-6" d="M6.6,23.62l-.17,0c0-.07,0-.17.07-.2l.15.12A.14.14,0,0,0,6.6,23.62Z"/><path id="path27039" class="cls-5" d="M6.62,23.63H6.43a.24.24,0,0,1,.06-.24l.17.12c0,.05,0,.09,0,.12Z"/><path id="path27041" class="cls-6" d="M7.05,23.62l.17,0c0-.07,0-.17-.06-.2L7,23.52A.19.19,0,0,1,7.05,23.62Z"/><path id="path27043" class="cls-5" d="M7,23.63H7a.25.25,0,0,0,0-.09l.15-.15a.26.26,0,0,1,.1.22Z"/><path id="path27045" class="cls-6" d="M6.89,23.45,7,23.3a.29.29,0,0,0-.16,0,.25.25,0,0,0-.14,0l.09.15Z"/><path id="path27047" class="cls-5" d="M6.9,23.46H6.77l-.1-.16a.27.27,0,0,1,.31,0Z"/><path id="path27049" class="cls-6" d="M6.57,23v-.37a.18.18,0,0,0-.19-.19.18.18,0,0,0-.18.19V23Z"/><path id="path27051" class="cls-5" d="M6.58,23H6.2l0-.39a.2.2,0,0,1,.4,0Zm-.2-.56a.16.16,0,0,0-.17.17V23h.34v-.36A.16.16,0,0,0,6.38,22.48Z"/><path id="path27053" class="cls-6" d="M7.1,23v-.37a.18.18,0,0,1,.18-.19.18.18,0,0,1,.19.19V23Z"/><path id="path27055" class="cls-5" d="M7.49,23H7.1l0-.39c0-.24.41-.24.41,0Zm-.21-.56a.16.16,0,0,0-.17.17V23h.34v-.36A.16.16,0,0,0,7.28,22.48Z"/><path id="path27057" class="cls-6" d="M7.47,22.11l0-.34H7.17l0,.34Z"/><path id="path27059" class="cls-5" d="M7.48,22.13H7.2l0-.36.34,0Zm0-.36-.31,0,0,.32.24,0Z"/><path id="path27061" class="cls-6" d="M6.69,22.11l0-.34H7l0,.34Z"/><path id="path27063" class="cls-5" d="M7,22.12H6.69l-.05-.35.36,0Zm0-.35-.32,0,0,.31H7Z"/><path id="path27065" class="cls-6" d="M6.45,22.1l0-.33H6.15l0,.33Z"/><path id="path27067" class="cls-5" d="M6.47,22.12H6.18l0-.35.34,0Zm0-.35h-.3l0,.32h.23Z"/><path id="path27069" class="cls-14" d="M7.05,24v-.31a.2.2,0,0,0-.23-.2.2.2,0,0,0-.22.2V24Z"/><path id="path27071" class="cls-14" d="M6.54,23v-.32a.16.16,0,0,0-.16-.17.15.15,0,0,0-.15.17V23Z"/><path id="path27073" class="cls-14" d="M7.13,23v-.32a.15.15,0,0,1,.15-.17.15.15,0,0,1,.16.17V23Z"/><path id="path27075" class="cls-4" d="M7.47,24.56a1.3,1.3,0,0,1,1.22-1.38,1.38,1.38,0,0,1,0,2.75,1.3,1.3,0,0,1-1.22-1.37Z"/><path id="path27077" class="cls-5" d="M8.69,26a1.4,1.4,0,0,1,0-2.79,1.4,1.4,0,0,1,0,2.79Zm0-2.74a1.35,1.35,0,0,0,0,2.69,1.35,1.35,0,0,0,0-2.69Z"/><path id="path27079" class="cls-9" d="M7.83,24.56a1,1,0,0,1,.86-1,1,1,0,0,1,0,2A.94.94,0,0,1,7.83,24.56Z"/><path id="path27081" class="cls-5" d="M8.69,25.58a1,1,0,0,1,0-2.06,1,1,0,0,1,0,2.06Zm0-2a1,1,0,0,0,0,2,1,1,0,0,0,0-2Z"/><path id="path27083" class="cls-6" d="M8.29,23.86a.38.38,0,0,0-.11.22.53.53,0,0,0,0,.19.11.11,0,0,0-.1-.08A.11.11,0,0,0,8,24.3s0,0,0,.06l0,.07a.09.09,0,0,1,.08,0,.09.09,0,0,1,.08.08h-.1v.08H8.2l0,.12.07,0,.07.07.06-.07.08,0-.06-.12h.08v-.08H8.36a0,0,0,0,1,0,0,.09.09,0,0,1,.09-.08.08.08,0,0,1,.07,0l0-.07s0,0,0-.06a.12.12,0,0,0-.12-.11.11.11,0,0,0-.1.08.53.53,0,0,0,0-.19A.4.4,0,0,0,8.29,23.86Z"/><path id="path27085" class="cls-5" d="M8.29,24.73h0l0-.07-.07,0,0-.14-.08,0v-.1h.1l-.09,0,.08.05,0,.14.07-.05.06.06.06-.06.09,0-.08-.1.1,0-.09-.05a.09.09,0,0,1,.16-.07v-.07c0-.18-.13-.18-.17-.1a1.36,1.36,0,0,1,0-.18.37.37,0,0,0-.1-.21.71.71,0,0,0-.07.21.52.52,0,0,0,0,.17c-.09-.05-.21,0-.21.05l.05.13c0-.07.16-.05.16,0h0s-.05-.07-.08-.07l-.09,0h0l0-.07c0-.19.1-.21.18-.16a.28.28,0,0,1,0-.13.49.49,0,0,1,.1-.23.31.31,0,0,1,.13.23.51.51,0,0,1,0,.13.12.12,0,0,1,.19.09l-.05.14-.08,0a.07.07,0,0,0-.07.07h.08v.09l-.09,0,.07.1H8.35l0,.06Z"/><path id="path27087" class="cls-6" d="M8.12,24.56h.33v-.08H8.12Z"/><path id="path27089" class="cls-5" d="M8.46,24.58H8.11v-.1h.35Z"/><path id="path27091" class="cls-6" d="M9.08,23.86a.4.4,0,0,0-.1.22.53.53,0,0,0,0,.19.11.11,0,0,0-.1-.08.11.11,0,0,0-.12.11s0,0,0,.06l0,.07a.08.08,0,0,1,.07,0,.08.08,0,0,1,.08.08H8.92v.08H9L9,24.68l.07,0,.06.07.07-.07.07,0-.05-.12h.08v-.08h-.1a.09.09,0,0,1,.08-.08.09.09,0,0,1,.08,0l0-.07s0,0,0-.06a.11.11,0,0,0-.11-.11.11.11,0,0,0-.1.08.53.53,0,0,0,0-.19A.38.38,0,0,0,9.08,23.86Z"/><path id="path27093" class="cls-5" d="M9.08,24.73h0L9,24.66,9,24.7l0-.14-.07,0s0-.09,0-.1H9l-.08,0,.08.05L9,24.69,9,24.64l.06.06.05-.06.1,0-.08-.1.1,0-.1-.05a.09.09,0,0,1,.17-.07v-.07c0-.18-.13-.18-.17-.1a1.36,1.36,0,0,1,0-.18.37.37,0,0,0-.1-.21.71.71,0,0,0-.07.21.52.52,0,0,0,0,.17c-.1-.05-.21,0-.21.05l0,.13c0-.07.15-.05.15,0H9a.08.08,0,0,0-.08-.07s-.06,0-.08,0h0l0-.07c0-.19.11-.21.19-.16a.28.28,0,0,1,0-.13.49.49,0,0,1,.1-.23.31.31,0,0,1,.13.23.28.28,0,0,1,0,.13.13.13,0,0,1,.2.09l0,.14-.09,0a.07.07,0,0,0-.06.07h.08v.09l-.09,0,.07.1h-.1l-.05.06Z"/><path id="path27095" class="cls-6" d="M8.92,24.56h.33v-.08H8.92Z"/><path id="path27097" class="cls-5" d="M9.26,24.58H8.91v-.1h.35Z"/><path id="path27099" class="cls-6" d="M8.68,24.55a.39.39,0,0,0-.1.21.46.46,0,0,0,0,.19.1.1,0,0,0-.1-.07A.11.11,0,0,0,8.4,25s0,0,0,.05l0,.08a.07.07,0,0,1,.07,0,.08.08,0,0,1,.09.07v0h-.1v.08H8.6l-.06.12.08,0,.06.07.07-.07.07,0-.05-.12h.08v-.08H8.76s0,0,0,0a.08.08,0,0,1,.09-.07.07.07,0,0,1,.07,0L9,25S9,25,9,25a.11.11,0,0,0-.11-.11.1.1,0,0,0-.1.07.46.46,0,0,0,0-.19A.38.38,0,0,0,8.68,24.55Z"/><path id="path27101" class="cls-5" d="M8.68,25.42h0l-.05-.07-.07,0,0-.14-.07,0v-.1H8.6l-.08,0v.07H8.6l0,.14.07-.05.06.06.06-.06.09,0-.08-.11h.09v-.07H8.76a.09.09,0,1,1,.16-.06V25c0-.18-.13-.17-.17-.09a1.49,1.49,0,0,1,0-.19.31.31,0,0,0-.1-.2s-.08.11-.08.2a.41.41,0,0,0,0,.17c-.1-.05-.21,0-.21.06l.05.13c0-.08.15-.05.15,0h0a.08.08,0,0,0-.08-.07s-.06,0-.08,0h0l0-.08c0-.18.11-.21.18-.16a.39.39,0,0,1,0-.13.41.41,0,0,1,.1-.22.31.31,0,0,1,.13.22.39.39,0,0,1,0,.13A.13.13,0,0,1,9,25l-.05.14-.08,0c-.05,0-.07,0-.07.06h.07l0,.09-.09,0,.07.1-.1,0-.05.07h0"/><path id="path27103" class="cls-6" d="M8.52,25.25h.33v-.08H8.52Z"/><path id="path27105" class="cls-5" d="M8.86,25.27H8.52v-.1h.34Z"/><path id="path27107" class="cls-6" d="M11.12,20.93h0s0,0,0,0,0,0-.06,0,0,0,0,0h0s0,0,0-.06a0,0,0,0,0,0,0v0h0v0a0,0,0,0,1,0,0v0h0s-.06-.08-.06-.1h0a.36.36,0,0,1,0,.11.21.21,0,0,1,0,.08.59.59,0,0,1,.22.13.76.76,0,0,1,.18.18l.09,0,.1,0h0s-.11,0-.11,0v0h0a0,0,0,0,1,0,0h0v0h0a0,0,0,0,1-.06,0s0,0,0,0,0,0,0,0,0,0,0-.06,0,0,0,0v0"/><path id="path27109" class="cls-5" d="M11.17,21.28h0a.67.67,0,0,0-.17-.18L10.77,21s0,0,0-.1a.31.31,0,0,0,0-.1v0s0,.06,0,.06h.08v0l0,0h-.08a.07.07,0,0,1-.07-.06v.06a.22.22,0,0,1,0,.09.7.7,0,0,1,.22.12.55.55,0,0,1,.17.18l.08,0h.08a.1.1,0,0,1-.07,0v-.05l.09.05v0h0l-.08,0-.09,0Zm.07-.15v0h-.09L11.09,21l0-.07L11,21,11,20.92v0L11,21l.09,0,0,.08.06.06h.1Z"/><path id="path27111" class="cls-5" d="M11,21h0s0,0,0,0h0S11,21,11,21Z"/><path id="path27113" class="cls-5" d="M11,21.05l0,0s0,0,0,0h0l0,0,0,0h0s0,0,0,0Z"/><path id="path27115" class="cls-5" d="M10.89,21h0a0,0,0,0,1,0,0h0Z"/><path id="path27117" class="cls-5" d="M10.82,20.9h0s0,0,0,0h0v0Z"/><path id="path27119" class="cls-5" d="M11.11,21.1s0,0,0,0h0s0,0,0,0Z"/><path id="path27121" class="cls-5" d="M11.14,21.15h0s0,0,0,0h0l0,0h0Z"/><path id="path27123" class="cls-5" d="M11.22,21.21v0h0v0Z"/><path id="path27125" class="cls-6" d="M11,20.75h0v.06h0l.07,0Z"/><path id="path27127" class="cls-6" d="M10.89,20.79v0H11l0-.06Z"/><path id="path27129" class="cls-6" d="M11,20.87l0,0,0-.05H11Z"/><path id="path27131" class="cls-6" d="M10.94,20.82s0,0,0,0,0,0,0,0,0,0,0,0S10.94,20.83,10.94,20.82Z"/><path id="path27133" class="cls-6" d="M10.79,20.75a.12.12,0,0,1,0-.05l0,0s0,0,.06,0,0,.06,0,.06Z"/><path id="path27135" class="cls-6" d="M10.87,20.78l0,0-.05,0h.08Z"/><path id="path27137" class="cls-6" d="M10.77,20.75h0s0,0,0,0,0,0,0,0S10.77,20.76,10.77,20.75Z"/><path id="path27139" class="cls-6" d="M11.18,20.86h0l0,.06h0l0,0Z"/><path id="path27141" class="cls-6" d="M11.06,20.88v0l.07,0h0v0l0-.05Z"/><path id="path27143" class="cls-6" d="M11.19,21l0,0,0-.06v0h0l.06,0Z"/><path id="path27145" class="cls-6" d="M11.11,20.92a0,0,0,0,1,0,0v0s0,0,0,0A0,0,0,0,1,11.11,20.92Z"/><path id="path27147" class="cls-6" d="M11.33,21v0l-.07,0h0l0-.06Z"/><path id="path27149" class="cls-6" d="M11.32,21.12h0l0-.06h0l.06,0Z"/><path id="path27151" class="cls-6" d="M11.21,21l0,0,.07,0h0l0-.07Z"/><path id="path27153" class="cls-6" d="M11.28,21.07s0,0,0,0,0,0,0,0v0Z"/><path id="path27155" class="cls-6" d="M11.38,21.21h.06l0,0a.06.06,0,0,0,0-.06s-.07,0-.07,0Z"/><path id="path27157" class="cls-6" d="M11.34,21.14l0,0,0,0h0v-.07Z"/><path id="path27159" class="cls-6" d="M11.39,21.22s0,0,0,0h0s0,0,0,0Z"/></g></g></g></svg>