<svg xmlns="http://www.w3.org/2000/svg" viewBox="0 0 44.61 44.61"><defs><style>.cls-1{fill:#fff;}.cls-1,.cls-2,.cls-3,.cls-4{fill-rule:evenodd;}.cls-2{fill:#333d97;}.cls-3{fill:#f7f7f7;}.cls-4{fill:#d81b34;}</style></defs><title>frances</title><g id="Capa_2" data-name="Capa 2"><g id="Capa_1-2" data-name="Capa 1"><g id="g34077"><path id="path25719" class="cls-1" d="M22.3,44.61A22.31,22.31,0,1,0,0,22.3,22.31,22.31,0,0,0,22.3,44.61Z"/><path id="path25721" class="cls-2" d="M11.51,37.81v-31a18.88,18.88,0,0,0,0,31Z"/><path id="path25723" class="cls-3" d="M21.81,41.19h1a18.83,18.83,0,0,0,10.29-3.38V6.8a18.89,18.89,0,0,0-21.58,0v31A18.84,18.84,0,0,0,21.81,41.19Z"/><path id="path25725" class="cls-4" d="M33.09,6.8v31a18.89,18.89,0,0,0,0-31Z"/></g></g></g></svg>