<svg xmlns="http://www.w3.org/2000/svg" viewBox="0 0 44.61 44.61"><defs><style>.cls-1{fill:#fff;}.cls-1,.cls-2,.cls-3,.cls-4,.cls-5,.cls-6{fill-rule:evenodd;}.cls-2{fill:#e81d28;}.cls-3{fill:#2e672e;}.cls-4{fill:#ecee1e;}.cls-5{fill:#100f0e;}.cls-6{fill:#2e3188;}</style></defs><title>portugues</title><g id="Capa_2" data-name="Capa 2"><g id="Capa_1-2" data-name="Capa 1"><g id="g34769"><path id="path27203" class="cls-1" d="M22.3,44.61A22.31,22.31,0,1,0,0,22.31,22.3,22.3,0,0,0,22.3,44.61Z"/><path id="path27205" class="cls-2" d="M21.89,41.19h.81A18.89,18.89,0,1,0,12.56,6.12V38.5A18.73,18.73,0,0,0,21.89,41.19Z"/><path id="path27207" class="cls-3" d="M12.56,38.5V6.12a18.9,18.9,0,0,0,0,32.38Z"/><path id="path27209" class="cls-4" d="M20,28.16c-2.86-.08-15.93-8.25-16-9.55l.73-1.2C6,19.3,19.31,27.24,20.63,27Z"/><path id="path27211" class="cls-4" d="M4.5,17.24c-.25.69,3.42,3,7.82,5.65s8.22,4.34,8.51,4.11c0,0,.13-.24.12-.24s-.18.1-.38,0a44.3,44.3,0,0,1-8.16-4.1c-3.84-2.34-7.19-4.49-7.71-5.41A.47.47,0,0,1,4.64,17h0l-.11.2,0,0ZM20,28.2c-.05.09-.13.1-.31.07-1.07-.11-4.3-1.69-8.13-4-4.45-2.67-8.13-5.1-7.74-5.74L4,18.36H4c-.36,1.07,7.26,5.44,7.71,5.71,4.41,2.74,8.12,4.33,8.45,3.92Z"/><path id="path27213" class="cls-5" d="M19.83,28.31H19.7c-1.09-.12-4.36-1.72-8.14-4-5.06-3-7.6-4.85-7.77-5.57a.27.27,0,0,1,0-.2l.11-.19v.06l-.06.16a.21.21,0,0,0,0,.16c.17.7,2.71,2.52,7.75,5.54,3.77,2.26,7,3.86,8.11,4,.17,0,.25,0,.29-.06l.07-.12-.14,0c-.9,0-4.24-1.49-8.26-4l-.3-.19C6.43,21,3.94,19.18,3.93,18.45c.1.48,1.25,1.77,7.46,5.43l.3.18c4,2.49,7.34,4,8.23,4a.26.26,0,0,0,.19-.06h0a0,0,0,0,1,0,.05l-.06.18A.2.2,0,0,1,19.83,28.31Zm.9-1.27c-.66,0-4.27-1.61-8.42-4.13-4.75-2.89-8.09-5-7.83-5.67L4.6,17h0l-.07.21c-.27.72,4,3.33,7.8,5.64C16.48,25.39,20.07,27,20.73,27h.07c0-.05.05-.1.08-.14a.5.5,0,0,1-.32,0,44.56,44.56,0,0,1-8.16-4.11c-3.51-2.13-7.17-4.44-7.72-5.41A.47.47,0,0,1,4.61,17a2.17,2.17,0,0,1,.11.26c.55,1,4.41,3.39,7.71,5.4a45.71,45.71,0,0,0,8.15,4.1c.17,0,.3,0,.35,0s.05,0-.05.22A.15.15,0,0,1,20.73,27Z"/><path id="path27215" class="cls-4" d="M12.58,19.4A26.68,26.68,0,0,0,21,18.2l-.43-.71c-1.2.66-4.73,1.1-8,1.17-3.84,0-6.55-.4-7.92-1.31l-.41.75A20.57,20.57,0,0,0,12.58,19.4Z"/><path id="path27217" class="cls-4" d="M21.1,18.22a12.47,12.47,0,0,1-3.34.91,36,36,0,0,1-5.19.37,37,37,0,0,1-5-.32,13.86,13.86,0,0,1-3.49-.92,1.14,1.14,0,0,1,.1-.19A15.84,15.84,0,0,0,7.62,19a38.8,38.8,0,0,0,4.94.31,33.5,33.5,0,0,0,5.15-.39A8.42,8.42,0,0,0,21,18Zm-.39-.72a10,10,0,0,1-3.19.86,34.36,34.36,0,0,1-4.93.34,32,32,0,0,1-4.77-.3,13.07,13.07,0,0,1-3.31-.84l.11-.19a11.27,11.27,0,0,0,3.23.82,32.72,32.72,0,0,0,4.74.3,33.41,33.41,0,0,0,4.89-.35,8.66,8.66,0,0,0,3.1-.87Z"/><path id="path27219" class="cls-5" d="M12.51,19.52a36.48,36.48,0,0,1-4.92-.31,14.88,14.88,0,0,1-3.46-.91v-.12l.06-.13a16.44,16.44,0,0,0,3.45.9,36.49,36.49,0,0,0,4.9.31,34.15,34.15,0,0,0,5.18-.38A8.47,8.47,0,0,0,20.93,18l.19.25a10.54,10.54,0,0,1-3.36.94,34.26,34.26,0,0,1-5.19.37ZM4.2,18.09l-.07.18a17.43,17.43,0,0,0,3.47.89,36.32,36.32,0,0,0,4.91.31v0l.06,0a35.71,35.71,0,0,0,5.19-.37,12.39,12.39,0,0,0,3.32-.9L20.93,18c-.1.19-1.11.6-3.21.94a35.64,35.64,0,0,1-5.16.39A36.58,36.58,0,0,1,7.63,19,15.1,15.1,0,0,1,4.2,18.09Zm8.36.64a33.86,33.86,0,0,1-4.74-.3,12.64,12.64,0,0,1-3.16-.79l-.16-.06.06-.17s.05-.06.07-.06a11.42,11.42,0,0,0,3.22.82,34.78,34.78,0,0,0,4.7.29,33.08,33.08,0,0,0,4.93-.35,8.71,8.71,0,0,0,3.07-.86l.19.23a8.58,8.58,0,0,1-3.21.9,33.5,33.5,0,0,1-4.94.35h0Zm-8-1.34-.07.18.14,0a12.46,12.46,0,0,0,3.16.78,33.47,33.47,0,0,0,4.72.31v0l0,0a33,33,0,0,0,4.92-.35,9.74,9.74,0,0,0,3.19-.85l-.15-.2a7.39,7.39,0,0,1-3.07.89,34.33,34.33,0,0,1-4.89.34,34.87,34.87,0,0,1-4.74-.29A11.11,11.11,0,0,1,4.6,17.39Z"/><path id="path27221" class="cls-4" d="M3.41,23c1.84.87,5.59,1.32,9.14,1.34,3.36,0,7.73-.51,9.37-1.38L21.87,22c-.51.81-5.19,1.57-9.36,1.54-4,0-7.64-.61-9.1-1.39V23Z"/><path id="path27223" class="cls-4" d="M3.42,23.1v-.24a17.39,17.39,0,0,0,3.64.93,35.15,35.15,0,0,0,5.46.38,38.76,38.76,0,0,0,5.74-.39A12.45,12.45,0,0,0,22,22.71v.22A10.16,10.16,0,0,1,18.28,24a37.58,37.58,0,0,1-5.77.4A35.58,35.58,0,0,1,7,24,16.08,16.08,0,0,1,3.42,23.1ZM22,21.9v.23a10.36,10.36,0,0,1-3.72,1.05,37.83,37.83,0,0,1-5.78.4A35.68,35.68,0,0,1,7,23.2a15.46,15.46,0,0,1-3.61-.92v-.23A16.73,16.73,0,0,0,7.05,23a35.25,35.25,0,0,0,5.46.38,37.15,37.15,0,0,0,5.74-.4A11.81,11.81,0,0,0,22,21.9Z"/><path id="path27225" class="cls-5" d="M3.43,23.13v-.06A16.19,16.19,0,0,0,7,24a35.22,35.22,0,0,0,5.49.38A38.79,38.79,0,0,0,18.28,24,10.3,10.3,0,0,0,22,22.91v-.2a10.71,10.71,0,0,1-3.72,1.09,38.43,38.43,0,0,1-5.75.4,36.08,36.08,0,0,1-5.46-.38,17.1,17.1,0,0,1-3.64-.93v0a20,20,0,0,0,3.64.91,36.15,36.15,0,0,0,5.46.37,38.47,38.47,0,0,0,5.74-.39A11.82,11.82,0,0,0,22,22.68l.05.25A10,10,0,0,1,18.29,24a38.85,38.85,0,0,1-5.78.4h0A36.57,36.57,0,0,1,7,24,16.83,16.83,0,0,1,3.43,23.13Zm0-.87A16.09,16.09,0,0,0,7,23.17a36.68,36.68,0,0,0,5.49.38,38.69,38.69,0,0,0,5.77-.39A10.67,10.67,0,0,0,22,22.11V21.9A10.75,10.75,0,0,1,18.26,23a38.33,38.33,0,0,1-5.75.4A36.17,36.17,0,0,1,7.05,23a17.17,17.17,0,0,1-3.64-.94v0A19,19,0,0,0,7.05,23a36.17,36.17,0,0,0,5.46.38A38.28,38.28,0,0,0,18.25,23,12.09,12.09,0,0,0,22,21.88l.05.25a10,10,0,0,1-3.75,1.08,38.83,38.83,0,0,1-5.78.39A36.66,36.66,0,0,1,7,23.23a16.88,16.88,0,0,1-3.61-.91h0Z"/><path id="path27227" class="cls-4" d="M12.54,28a32.61,32.61,0,0,1-8.23-1.27l.54.83a22.13,22.13,0,0,0,7.73,1.26c3.07-.09,5.75-.33,7.64-1.25l.54-.86A28.7,28.7,0,0,1,12.54,28Z"/><path id="path27229" class="cls-4" d="M20.42,27.38c-.08.12-.16.25-.24.36a22.85,22.85,0,0,1-2.89.74,26.88,26.88,0,0,1-4.75.44,23,23,0,0,1-7.87-1.35l-.11-.19v0l.19.07a25.17,25.17,0,0,0,7.81,1.29,26.19,26.19,0,0,0,4.65-.43,13.45,13.45,0,0,0,3.13-.86Zm.48-.78h0l-.18.31a19.14,19.14,0,0,1-3.65.81,28.62,28.62,0,0,1-4.48.39,30.56,30.56,0,0,1-8.34-1.25l-.1-.2a35.14,35.14,0,0,0,8.44,1.24A30.7,30.7,0,0,0,17,27.51a23.81,23.81,0,0,0,3.64-.8,0,0,0,0,0,0,0Z"/><path id="path27231" class="cls-5" d="M12.54,29a22.65,22.65,0,0,1-7.88-1.36l-.13-.2s0-.07,0-.07l.19.08a25.07,25.07,0,0,0,7.79,1.28,26.38,26.38,0,0,0,4.65-.43,13,13,0,0,0,3.14-.86h0s0,0,0,0l0,0h0l-.24.37a20.92,20.92,0,0,1-2.91.75A27,27,0,0,1,12.54,29Zm-8-1.58.13.18a23,23,0,0,0,7.85,1.34,26.06,26.06,0,0,0,4.74-.43,21.25,21.25,0,0,0,2.89-.74c0-.09.11-.17.17-.27a13.4,13.4,0,0,1-3.12.85,26.15,26.15,0,0,1-4.58.44,25.66,25.66,0,0,1-7.89-1.29Zm8,.76a31,31,0,0,1-8.34-1.24l-.12-.22a37.68,37.68,0,0,0,8.46,1.2,28.31,28.31,0,0,0,4-.33l.4-.05a24.75,24.75,0,0,0,3.59-.79l.26-.13v0l-.21.12a19.86,19.86,0,0,1-3.63.83l-.4.06a30.45,30.45,0,0,1-4.05.32,34.54,34.54,0,0,1-8.45-1.24l.14.17a31.19,31.19,0,0,0,8.31,1.23,25.36,25.36,0,0,0,3.94-.31l.53-.07a20.15,20.15,0,0,0,3.64-.81l.18-.29-.14.33a19.36,19.36,0,0,1-3.67.82l-.53.07A25.52,25.52,0,0,1,12.59,28.13Z"/><path id="path27233" class="cls-4" d="M12.54,13.91a8.4,8.4,0,1,1-8.38,8.4A8.4,8.4,0,0,1,12.54,13.91Zm0-.84A9.23,9.23,0,1,1,3.48,24c0-.55-.07-1.11-.07-1.67s0-1.13.07-1.69A9.26,9.26,0,0,1,12.54,13.07Z"/><path id="path27235" class="cls-4" d="M3.59,25a19.34,19.34,0,0,1-.18-2.65,20.47,20.47,0,0,1,.17-2.62,9.35,9.35,0,1,1,0,5.27Zm9-11.79a9.15,9.15,0,1,1-9.14,9.15A9.18,9.18,0,0,1,12.55,13.17Z"/><path id="path27237" class="cls-5" d="M3.43,23.13c0-.27,0-.54,0-.82s0-.53,0-.8a9.23,9.23,0,1,1,0,1.62Zm.19,2-.06-.37a9.34,9.34,0,1,0,0-4.89c0-.12,0-.25,0-.37a9.38,9.38,0,1,1,0,5.63ZM12.55,13.2a9.12,9.12,0,1,0,9.11,9.12A9.12,9.12,0,0,0,12.55,13.2Z"/><path id="path27239" class="cls-4" d="M12.56,13.74A8.57,8.57,0,1,1,4,22.31,8.6,8.6,0,0,1,12.56,13.74Zm0,.21a8.36,8.36,0,1,1-8.35,8.36A8.39,8.39,0,0,1,12.56,14Z"/><path id="path27241" class="cls-5" d="M12.56,30.9a8.6,8.6,0,1,1,8.59-8.59A8.59,8.59,0,0,1,12.56,30.9Zm0-17.13a8.54,8.54,0,1,0,8.53,8.54A8.55,8.55,0,0,0,12.56,13.77Zm0,16.92a8.39,8.39,0,1,1,8.38-8.38A8.39,8.39,0,0,1,12.56,30.69Zm0-16.72a8.34,8.34,0,1,0,8.32,8.34A8.35,8.35,0,0,0,12.56,14Z"/><path id="path27243" class="cls-4" d="M12.17,31.74H13V12.92h-.82Z"/><path id="path27245" class="cls-4" d="M12.86,12.82h.2v19h-.21Zm-.8,0h.2v19h-.2Z"/><path id="path27247" class="cls-5" d="M13.07,31.85h-.21l0-19,.23,0,0,19a0,0,0,0,1,0,0Zm0-19-.17,0,0,19,.15,0Zm-.76,19h-.21l0-19,.23,0,0,19h0Zm0-19-.18,0,0,19,.15,0Z"/><path id="path27249" class="cls-4" d="M3.41,21.73c1.44-1,5.49-1.59,9.1-1.57,3.83,0,8.37.81,9.36,1.74v.8c-.83-.78-4.35-1.71-9.37-1.72-4.59,0-8,.79-9.1,1.54v-.79Z"/><path id="path27251" class="cls-5" d="M21.93,22.68,21.87,22a0,0,0,1,1,.06,0Z"/><path id="path27253" class="cls-4" d="M3.41,22.62v-.24a9.94,9.94,0,0,1,3-1,32.71,32.71,0,0,1,6.16-.55,31.88,31.88,0,0,1,6,.54c1.75.35,3,.79,3.41,1.28v.24c-.51-.61-2.17-1.06-3.45-1.31a31.44,31.44,0,0,0-6-.54,32.37,32.37,0,0,0-6.13.55A10.28,10.28,0,0,0,3.41,22.62Zm9.15-2.55a31.08,31.08,0,0,1,6,.54c1.75.35,3,.79,3.41,1.28v.24c-.51-.61-2.17-1.06-3.45-1.32a33.15,33.15,0,0,0-6-.54,34.29,34.29,0,0,0-6.13.55,10.49,10.49,0,0,0-3,1v-.24a10.5,10.5,0,0,1,3-1A33.73,33.73,0,0,1,12.56,20.07Z"/><path id="path27255" class="cls-5" d="M3.41,22.65v-.06a10.55,10.55,0,0,1,3-1,34,34,0,0,1,6.14-.55,32,32,0,0,1,6,.54c1.06.21,2.91.67,3.46,1.33L22,22.69c-.39-.45-1.56-.89-3.38-1.26a33.24,33.24,0,0,0-6-.53,34.16,34.16,0,0,0-6.2.54,9.72,9.72,0,0,0-3,1v-.07a10.21,10.21,0,0,1,3-1,34.1,34.1,0,0,1,6.17-.55,32.46,32.46,0,0,1,6,.54c1.84.37,3,.82,3.43,1.29v.26c-.59-.63-2.44-1.08-3.48-1.29a32.56,32.56,0,0,0-5.94-.53,33.33,33.33,0,0,0-6.19.54A10.31,10.31,0,0,0,3.41,22.65Zm9.15-2.4a32.13,32.13,0,0,1,6,.54c1.06.21,2.91.66,3.46,1.32L22,21.89c-.39-.45-1.56-.89-3.38-1.26a33,33,0,0,0-6-.54,34.2,34.2,0,0,0-6.23.55,10,10,0,0,0-3,1v-.07a10.4,10.4,0,0,1,3-.95A34,34,0,0,1,12.56,20a32.22,32.22,0,0,1,6,.54c1.84.37,3,.81,3.43,1.29v.26c-.59-.63-2.43-1.08-3.48-1.29a32.73,32.73,0,0,0-5.95-.54,34,34,0,0,0-6.17.55,9.73,9.73,0,0,0-3,1v-.07a10.31,10.31,0,0,1,3-1A34,34,0,0,1,12.56,20.25Z"/><path id="path27257" class="cls-4" d="M12.51,16c3.48,0,6.51.48,7.9,1.2l.51.87c-1.21-.65-4.48-1.32-8.4-1.23-3.2,0-6.61.36-8.32,1.27l.6-1C6.2,16.35,9.52,16,12.51,16Z"/><path id="path27259" class="cls-4" d="M12.56,16.7a31.53,31.53,0,0,1,5.42.38A9.9,9.9,0,0,1,21,18l.15.26A11.06,11.06,0,0,0,18,17.29a31.41,31.41,0,0,0-5.41-.38,32.13,32.13,0,0,0-5.47.37,10,10,0,0,0-2.94.92l.15-.28a9.66,9.66,0,0,1,2.76-.84,32,32,0,0,1,5.51-.38Zm0-.8a31.57,31.57,0,0,1,5.23.36,8.71,8.71,0,0,1,2.71.89l.22.35a7.08,7.08,0,0,0-3-1,33.84,33.84,0,0,0-5.14-.37,31.68,31.68,0,0,0-5.26.39,8.51,8.51,0,0,0-2.62.81l.2-.29a9.19,9.19,0,0,1,2.38-.72A31.13,31.13,0,0,1,12.56,15.9Z"/><path id="path27261" class="cls-5" d="M21.1,18.25h0A10.75,10.75,0,0,0,18,17.31a30.19,30.19,0,0,0-5.22-.37h-.38a30.73,30.73,0,0,0-5.26.37,9.15,9.15,0,0,0-2.93.92l.1-.32A9.72,9.72,0,0,1,7,17.05a32.63,32.63,0,0,1,5.52-.38h.11a31.24,31.24,0,0,1,5.31.38,10,10,0,0,1,3,.89l.15.27v0Zm-8.43-1.52h-.11a31.66,31.66,0,0,0-5.51.37,10.33,10.33,0,0,0-2.75.84l-.14.27a8,8,0,0,1,2.92-.95,30.86,30.86,0,0,1,5.27-.37h.38a29.34,29.34,0,0,1,5.23.37,12,12,0,0,1,3.07.88l-.1-.17A9.89,9.89,0,0,0,18,17.11,31.33,31.33,0,0,0,12.67,16.73Zm8,.8h0a7.21,7.21,0,0,0-3-1,32.69,32.69,0,0,0-5.14-.37,31.61,31.61,0,0,0-5.26.39,8.79,8.79,0,0,0-2.6.8L4.85,17a9.07,9.07,0,0,1,2.4-.73,31.83,31.83,0,0,1,5.31-.39h.15a30.91,30.91,0,0,1,5.08.36,8.39,8.39,0,0,1,2.72.9l.23.35a0,0,0,0,1,0,0A0,0,0,0,1,20.72,17.53Zm-8.16-1.45a34,34,0,0,1,5.14.36,9.18,9.18,0,0,1,2.9.91l-.12-.18a8.33,8.33,0,0,0-2.7-.88,29.72,29.72,0,0,0-5.07-.36h-.15a31.62,31.62,0,0,0-5.29.38A9.9,9.9,0,0,0,4.89,17l-.18.29a7,7,0,0,1,2.58-.86A31.79,31.79,0,0,1,12.56,16.08Z"/><path id="path27263" class="cls-4" d="M17.2,26.2a24.76,24.76,0,0,0-4.64-.35c-5.8.07-7.67,1.19-7.9,1.53l-.43-.7C5.7,25.6,8.86,25,12.59,25.07a29.61,29.61,0,0,1,5,.43Z"/><path id="path27265" class="cls-4" d="M12.52,25.75a28.19,28.19,0,0,1,4.72.38l-.11.19a24.64,24.64,0,0,0-4.6-.35,22.18,22.18,0,0,0-6.19.72c-.59.17-1.58.55-1.68.86l-.1-.18c0-.18.62-.57,1.73-.88A22.23,22.23,0,0,1,12.52,25.75Zm.07-.81a28.94,28.94,0,0,1,5.07.44l-.11.2a26.48,26.48,0,0,0-4.94-.43,23.7,23.7,0,0,0-6.5.76c-.66.2-1.82.61-1.86.95l-.1-.2c0-.3,1-.7,1.92-1A23.84,23.84,0,0,1,12.59,24.94Z"/><path id="path27267" class="cls-5" d="M4.66,27.58h0l-.11-.19c0-.22.66-.61,1.75-.92a22.52,22.52,0,0,1,6.24-.74,29.37,29.37,0,0,1,4.73.38l-.09.23A26.57,26.57,0,0,0,12.74,26h-.46a22.13,22.13,0,0,0-5.93.72c-.63.18-1.57.56-1.66.85l0,0Zm7.86-1.8a22,22,0,0,0-6.22.73c-1.12.32-1.7.7-1.72.87l.08.12c.19-.35,1.26-.72,1.67-.83a21.86,21.86,0,0,1,5.95-.73h.46a23.82,23.82,0,0,1,4.39.36l.09-.19A32.39,32.39,0,0,0,12.52,25.78ZM4.25,26.89l0,0-.1-.19c0-.42,1.48-.87,1.92-1a23.63,23.63,0,0,1,6.54-.77,29.39,29.39,0,0,1,5.08.44l-.09.24a28.53,28.53,0,0,0-5-.41,22.63,22.63,0,0,0-6.47.76c-.88.25-1.82.65-1.85.92,0,0,0,0,0,0ZM12.59,25a23.3,23.3,0,0,0-6.51.77c-1.15.33-1.89.7-1.91.94l.08.12c.18-.4,1.68-.85,1.85-.9a23,23,0,0,1,6.51-.76,26.21,26.21,0,0,1,4.95.43l.08-.19A33.17,33.17,0,0,0,12.59,25Z"/><path id="path27269" class="cls-5" d="M10.87,25.5a.1.1,0,0,1,0-.07.07.07,0,0,1,.06,0s0,0,0,0,0,0,0,0a.07.07,0,0,1,0,0s0,0,0,.05l0,0h0s0,0,0,0l0,0S10.86,25.52,10.87,25.5Zm0,0a.07.07,0,0,0,0,.05s0,0,0,0,0,0,0,0a.08.08,0,0,0,0-.05v0l0,0h-.07A.14.14,0,0,0,10.89,25.5Zm.22,0h0s0,0,0,0,0,0,0,0h0s0,0,0,0h0a0,0,0,0,1,0,0h0v0s0,0,0,0h0s0,0,0,0h0a0,0,0,0,0,0,0h0v0h0a0,0,0,0,0,0,0v0h-.08v0Zm.21,0h0s0,0,0,0h0a0,0,0,0,1,0,0s0,0,0,0,0,0,0-.05l0,0h.05s0,0,0,0h-.09s0,0,0,0h.05Zm-.06,0h.06v0s0,0,0,0,0,0,0,0Zm.1.08h0s0,0,0,0h0s0,0,0,0,0,0,0,0l0,0,0,0v-.08l0,0h0l0,0v0h0v.11s0,0,0,0l0,0h-.07A0,0,0,0,1,11.36,25.56Zm0-.08s0,0,0,0,0,0,0,0h0s0,0,0,0a0,0,0,0,0,0,0h0a0,0,0,0,0,0,0Zm.1.06,0-.13h0v0a0,0,0,0,1,0,0h0s0,0,0,0h0a.05.05,0,0,1,0,0h0v.12h0v-.1h0s0,0,0,0v.07h0v-.08s0,0,0,0,0,0,0,0h0s0,0,0,0v.06Zm.29-.05h0s0,0,0,0l0,0,0,0a.06.06,0,0,1,0,0,.09.09,0,0,1,0-.06l0,0s0,0,0,0,0,0,0,0h-.1a0,0,0,0,0,0,0h0A0,0,0,0,0,11.78,25.49Zm-.06,0h.07a0,0,0,0,0,0,0h0a0,0,0,0,0,0,0Zm.1.07,0-.13h0v0s0,0,0,0h0s0,0,0,0v0l0,.08h0l0-.08v0h-.05s0,0,0,0v.07Zm.19,0h0a0,0,0,0,1,0,0h0v-.1h0v0l0,0v0h0v.08h0Zm0-.05,0-.05,0,0,0,0a.07.07,0,0,1,0,.05s0,0,0,0l0,0h0l0,0A.07.07,0,0,1,12,25.46Zm0,0s0,0,0,0h0a.05.05,0,0,0,0,0v0h0s0,0,0,0S12.05,25.44,12,25.46Zm.27,0h0l0,0h0s0,0,0,0a.07.07,0,0,1,0-.05.08.08,0,0,1,0-.05l0,0,0,0a.07.07,0,0,1,0,.05h-.1v0h0s0,0,0,0Zm-.07,0h.08a0,0,0,0,0,0,0h-.05Zm.11.07,0-.18h0l0,.18Zm.07-.15v0h0v0Zm0,.15,0-.13h0l0,.13Zm0,0,0-.13h0v0s0,0,0,0h0s0,0,0,0a0,0,0,0,1,0,0h0s0,0,0,0l0,.09h0v-.1h0s0,0,0,0a0,0,0,0,0,0,0l0,.08h0v-.11h0s0,0,0,0a0,0,0,0,0,0,0v0l0,.07Zm.22-.15v0h0v0Zm0,.15,0-.13h0l0,.13Zm0,0,0-.12h0v0s0,0,0,0h0v.12h0v-.1h0s0,0,0,0,0,0,0,0l0,.06Zm.21,0s0,0,0,0h-.05a0,0,0,0,1,0,0s0,0,0,0h.08a0,0,0,0,0,0,0v0h0s0,0,0,0h0s0,0,0,0,0,0,0,0h0s0,0,0,0h0v.09h0Zm0,0h-.05s0,0,0,0h0s0,0,0,0h.06v0Zm.12.06v0s0,0,0,0h0s0,0,0,0v0l0,0s0,0,0,0h.05l0,0v-.06h0l0,.17Zm0-.06v0h0l0,0s0,0,0,0h0s0,0,0,0l0,0Zm.11,0s0,0,0,0,0,0,0,0,0,0,0,0,0,0,0,.05l0,0s0,0,0,0h0s0,0,0,0S13.09,25.48,13.1,25.45Zm0,0v0h.05s0,0,0,0v0h0s0,0,0,0A.05.05,0,0,0,13.12,25.46Zm.17.06,0-.12h0v0a0,0,0,0,0,0,0h0v0h0s0,0,0,0v.06Zm.17,0h0l0,0h0l0,0a.07.07,0,0,1,0-.05l0-.05h.08a.13.13,0,0,1,0,.06h-.1a0,0,0,0,0,0,0s0,0,0,0h0Zm-.06,0h.07v0l0,0a0,0,0,0,0,0,0Zm.1,0h0s0,0,0,0h.06s0,0,0,0h0l0,0h0v0h0s0,0,0,0h.05a0,0,0,0,1,0,0,0,0,0,0,1,0,0h0s0,0,0,0h0v0h0a0,0,0,0,0,0,0l0,0h0s0,0,0,0a0,0,0,0,1,0,0Zm.11.09,0-.18h0v0a0,0,0,0,0,0,0h0s0,0,0,0l0,0v0l0,0s0,0,0,0h0a0,0,0,0,1,0,0v.06Zm0-.11s0,0,0,0h0a.05.05,0,0,0,0,0v0a0,0,0,0,0,0,0l0,0A0,0,0,0,0,13.65,25.47Zm.19,0h0l0,0h-.05s0,0,0,0,0,0,0,0,0,0,0-.05,0,0,0,0a.05.05,0,0,1,0,0v.05h-.09a0,0,0,0,0,0,0h0Zm-.06,0h.06v0s0,0,0,0h0A0,0,0,0,0,13.78,25.46Zm.13-.07v0h0v0Zm0,.15,0-.13h0l0,.12Zm.11,0v0h0s0,0,0,0h0v-.11h0v0h0v0h0v0h0v.07h0Zm.09,0H14v0h.1a0,0,0,0,0,0,0l0,0h0l0,0h0a0,0,0,0,0,0,0h.09v0a0,0,0,0,1,0,0v0a.08.08,0,0,0,0,0h0Zm0-.05h0a0,0,0,0,1,0,0h0s0,0,0,0h.05s0,0,0,0Zm.11,0a.05.05,0,0,1,0,0h0l0,0a0,0,0,0,1,0,.05s0,0,0,0l0,0h0s0,0-.05,0Zm0,0a0,0,0,0,0,0,0l0,0h0s0,0,0,0,0,0,0,0h0S14.22,25.48,14.21,25.5Zm.16.12,0-.18h0v0l0,0h.05s0,0,0,0v0s0,0,0,0,0,0,0,0H14.4v.06Zm0-.12s0,0,0,0,0,0,0,0l0,0s0,0,0,0,0,0,0,0h0S14.41,25.49,14.41,25.5Zm.1.07,0-.12h0v0h0v0a0,0,0,0,0,0,0s0,0,0,0h0a0,0,0,0,0,0,0v.06Zm.08-.05s0,0,0-.06h0s0,0,0,0,0,0,0,0l0,0s0,0,0,0h0l0,0Zm0,0v0h0s0,0,0,0l0,0s0,0,0,0l0,0h0A.05.05,0,0,0,14.61,25.52Zm.13-.08v0h0v0Zm-.06.2v0h0s0,0,0,0l0-.14h0l0,.14,0,0s0,0,0,0Zm.18-.09h0l0,0h0l0,0a0,0,0,0,1,0,0l0-.05s0,0,0,0l0,0s0,0,0,.05h-.1a0,0,0,0,0,0,0h.06Zm-.06,0h.06v0s0,0,0,0h0S14.8,25.51,14.8,25.52Z"/><path id="path27271" class="cls-5" d="M15,25.56h0l0,0h0s0,0,0,0a.07.07,0,0,1,0-.05.08.08,0,0,0,0,0l0,0H15a0,0,0,0,1,0,0h0s0,0,0,0,0,0,0,0h0s0,0,0,0v0h0s0,0,0,0Zm.07,0v0h0s0,0,0,0h0v-.09h0v0h0v0h0l0,0h0v0h0v.07h0Zm0-.05,0-.05h.05a0,0,0,0,1,0,0s0,0,0,0,0,0,0,0l0,0h0s0,0,0,0S15.08,25.58,15.08,25.55Zm0,0v0l0,0h0s0,0,0,0,0,0,0,0h-.05l0,0Zm.24.09h-.06v0a.06.06,0,0,1,0,0s0,0,0,0l0,0h0s0,0,0,0l0-.06h0l-.05.17Zm-.05-.07v0l0,0h0a.05.05,0,0,0,0,0v0h0Zm.2.05h0l0,0h-.05s0,0,0,0a0,0,0,0,1,0-.05.05.05,0,0,1,0,0l.05,0,0,0a0,0,0,0,1,0,.05h-.08s0,0,0,0l0,0h0Zm-.06-.05h.07a0,0,0,0,0,0,0s0,0,0,0h0A0,0,0,0,0,15.43,25.57Zm.29.05h0a0,0,0,0,1,0,0l-.05,0,0,0,0,0a.07.07,0,0,1,0-.05.08.08,0,0,1,0,0l0,0s0,0,.05,0h0a0,0,0,0,1,0,0h0v0l0,0h0l0,0s0,0,0,0,0,0,0,0v0h.07l0,0Zm0,0a.07.07,0,0,1,0-.05h0s0,0,.05,0a0,0,0,0,1,0,.05s0,0,0,0l0,0h0s0,0,0,0A.07.07,0,0,1,15.76,25.62Zm0,0v0h0s0,0,0,0,0,0,0,0v0h0s0,0,0,0S15.79,25.6,15.78,25.62Zm.1.08,0-.17h0l0,.17Zm.13,0H16l0,0h0v-.1h0l0,.07a0,0,0,0,0,0,0s0,0,0,0h0s0,0,0,0l0,0v-.07h0l0,.12Zm0,0,0-.13h0v0a0,0,0,0,1,0,0h0v0a.05.05,0,0,1,0,0s0,0,0,0a0,0,0,0,1,0,0l0,.09h0l0-.08v0h-.05s0,0,0,0l0,.07h0l0-.08a0,0,0,0,0,0,0h-.05s0,0,0,0l0,.06Zm.21,0h0l.05-.17h0v.06a0,0,0,0,1,0,0h0s0,0,0,0,0,0,0,0a0,0,0,0,1,0,0s0,0,0,0l0,0s0,0,0,0Zm0-.07v0s0,0,0,0h0a.05.05,0,0,0,0,0s0,0,0,0a0,0,0,0,0,0,0h0Zm.18.08h-.05l0,0v0s0,0,0,0h0a0,0,0,0,1,0,0h0s0,0,0,0h.09v0a.08.08,0,0,0,0,0v0h0Zm0-.05h-.06s0,0,0,0,0,0,0,0h0v0Zm0,.07,0-.12h0v0s0,0,0,0h0v0l0,.08h0l0-.07v0h0a0,0,0,0,0,0,0h0v0l0,.07Zm.13,0a.07.07,0,0,1,0,0h0l0,0a.11.11,0,0,1,0,.05l0,0s0,0,0,0h0l0,0Zm0,0v0h0s0,0,0,0a.05.05,0,0,0,0,0v0h-.05Z"/><path id="path27273" class="cls-2" d="M17.15,26.35h0a.07.07,0,0,1,0-.07l.51-.9a0,0,0,0,1,.06,0,.07.07,0,0,1,0,.06l-.52.9A0,0,0,0,1,17.15,26.35Z"/><path id="path27275" class="cls-4" d="M4.72,17.07c2.87,0,16.13,8.11,16.16,9.61l-.81,1.25c-.37-1.74-13.83-9.66-16-9.51Z"/><path id="path27277" class="cls-5" d="M20.15,27.87l.65-1.1a0,0,0,0,1,0,0s0,0,0,0Z"/><path id="path27279" class="cls-5" d="M4.08,18.35l.6-1.22s0,0,0,0,0,0,0,0Z"/><path id="path27281" class="cls-4" d="M3.94,18.37c.54-.36,4.45,1.38,8.55,3.85s8,5.28,7.64,5.81l-.12.18-.06,0s.08-.08,0-.27c-.17-.57-2.94-2.78-7.54-5.56S4.2,18.13,3.83,18.59Zm17,8.4c.33-.67-3.29-3.41-7.8-6.07S5.25,16.55,4.64,17l-.13.24s0,0,0,0a.61.61,0,0,1,.37-.09c1,0,4,1.39,8.21,3.79C15,22,20.87,25.77,20.85,26.84a.24.24,0,0,1,0,.16Z"/><path id="path27283" class="cls-5" d="M20,28.27l0,0s0,0,0,0,.06-.06,0-.24c-.18-.59-3.11-2.88-7.53-5.55-3.79-2.26-7.29-3.9-8.32-3.9a.34.34,0,0,0-.24.07h0a.06.06,0,0,1,0,0l.05-.21a.49.49,0,0,1,.25-.05c1,0,4.71,1.71,8.34,3.9s7.49,4.91,7.67,5.7a.16.16,0,0,1,0,.14l-.12.19h0ZM4.08,18.49c1,0,4.55,1.64,8.34,3.91,4.49,2.71,7.37,5,7.56,5.57a.47.47,0,0,1,0,.18L20.1,28a.09.09,0,0,0,0-.1c-.16-.77-4.06-3.49-7.64-5.67S5.2,18.35,4.16,18.35a.33.33,0,0,0-.2,0l-.08.14A.37.37,0,0,1,4.08,18.49ZM20.83,27h0v0a.2.2,0,0,0,0-.09c0-1.09-6-4.94-7.71-5.94C8.94,18.54,6,17.16,4.91,17.15a.54.54,0,0,0-.35.08h0a.38.38,0,0,1,.34-.14c1.07,0,4.07,1.4,8.25,3.79,1.2.71,7.76,4.8,7.73,6v0l.08-.11c.3-.61-3.12-3.26-7.79-6-4.95-2.81-8-4.1-8.5-3.69l-.12.21s-.06,0-.06,0L4.61,17A.61.61,0,0,1,5,16.9c1.29,0,5.18,2.05,8.23,3.77,4.06,2.41,8.18,5.37,7.8,6.11l-.14.2S20.85,27,20.83,27Z"/><path id="path27285" class="cls-1" d="M7,23.35a5.61,5.61,0,0,0,11.21,0V15.87H7Z"/><path id="path27287" class="cls-5" d="M12.55,29a5.67,5.67,0,0,1-5.62-5.63V15.86l11.23,0,0,7.51A5.65,5.65,0,0,1,12.55,29Zm5.58-13.11L7,15.89l0,7.46a5.57,5.57,0,0,0,11.14,0Z"/><path id="path27289" class="cls-2" d="M7.17,23.36h0a5.37,5.37,0,0,0,9.16,3.79,5.3,5.3,0,0,0,1.58-3.78V16.11H7.17Zm8.59-5.08v5.11c0,.13,0,.27,0,.39a3.14,3.14,0,0,1-.92,1.87,3.21,3.21,0,0,1-5.46-2.28v-5.1Z"/><path id="path27291" class="cls-5" d="M12.54,28.74a5.38,5.38,0,0,1-3.81-1.58,5.31,5.31,0,0,1-1.59-3.8V16.11l10.76,0,0,7.28a5.3,5.3,0,0,1-1.58,3.79A5.37,5.37,0,0,1,12.54,28.74Zm5.35-12.63-10.72,0,0,7.22a5.35,5.35,0,0,0,10.7,0Zm-5.35,10.5a3.21,3.21,0,0,1-2.27-1,3.27,3.27,0,0,1-.95-2.28V18.25h6.44l0,4.64v.49a2.8,2.8,0,0,1,0,.4,3.14,3.14,0,0,1-.92,1.87A3.25,3.25,0,0,1,12.54,26.61ZM9.37,18.29v5.08a3.21,3.21,0,0,0,.94,2.25,3.15,3.15,0,0,0,4.48,0,3.12,3.12,0,0,0,.92-1.85c0-.12,0-.27,0-.39V18.28Z"/><path id="path27293" class="cls-6" d="M11.87,22.53a.78.78,0,0,0,.2.54.68.68,0,0,0,.5.22.67.67,0,0,0,.5-.22.79.79,0,0,0,.21-.54v-1H11.87Z"/><path id="path27295" class="cls-1" d="M13,21.76a.14.14,0,0,0-.13.15A.13.13,0,0,0,13,22a.13.13,0,0,0,.14-.13A.15.15,0,0,0,13,21.76Z"/><path id="path27297" class="cls-1" d="M12.58,22.14a.15.15,0,0,0-.14.14.14.14,0,0,0,.14.14.14.14,0,0,0,.14-.14A.14.14,0,0,0,12.58,22.14Z"/><path id="path27299" class="cls-1" d="M13,22.53a.15.15,0,0,0-.14.15.14.14,0,1,0,.28,0A.15.15,0,0,0,13,22.53Z"/><path id="path27301" class="cls-1" d="M12.21,22.54a.14.14,0,0,0-.14.14.14.14,0,1,0,.28,0A.14.14,0,0,0,12.21,22.54Z"/><path id="path27303" class="cls-1" d="M12.21,21.76a.14.14,0,1,0,0,.28.14.14,0,0,0,0-.28Z"/><path id="path27305" class="cls-6" d="M11.86,25a.79.79,0,0,0,.21.54.64.64,0,0,0,.49.22.69.69,0,0,0,.51-.22.78.78,0,0,0,.2-.54V24H11.86Z"/><path id="path27307" class="cls-1" d="M13,24.2a.14.14,0,0,0,0,.28.14.14,0,1,0,0-.28Z"/><path id="path27309" class="cls-1" d="M12.57,24.58a.13.13,0,0,0-.13.14.13.13,0,0,0,.13.14.15.15,0,0,0,.15-.14A.15.15,0,0,0,12.57,24.58Z"/><path id="path27311" class="cls-1" d="M13,25a.14.14,0,0,0,0,.28A.14.14,0,1,0,13,25Z"/><path id="path27313" class="cls-1" d="M12.2,25a.14.14,0,1,0,.14.14A.14.14,0,0,0,12.2,25Z"/><path id="path27315" class="cls-1" d="M12.2,24.2a.14.14,0,1,0,.14.14A.14.14,0,0,0,12.2,24.2Z"/><path id="path27317" class="cls-6" d="M9.9,22.54a.86.86,0,0,0,.21.54.68.68,0,0,0,.5.22.65.65,0,0,0,.5-.22.79.79,0,0,0,.21-.54v-1H9.9Z"/><path id="path27319" class="cls-1" d="M11,21.77a.15.15,0,0,0-.14.14.14.14,0,0,0,.14.14.14.14,0,1,0,0-.28Z"/><path id="path27321" class="cls-1" d="M10.62,22.15a.14.14,0,0,0-.14.14.14.14,0,0,0,.14.14.15.15,0,0,0,.14-.14.14.14,0,0,0-.14-.14Z"/><path id="path27323" class="cls-1" d="M11,22.54a.14.14,0,1,0,0,.28.14.14,0,0,0,0-.28Z"/><path id="path27325" class="cls-1" d="M10.24,22.54a.15.15,0,0,0-.14.14.14.14,0,0,0,.14.14.15.15,0,0,0,.15-.14A.15.15,0,0,0,10.24,22.54Z"/><path id="path27327" class="cls-1" d="M10.24,21.77a.15.15,0,0,0-.14.14.14.14,0,0,0,.14.14.14.14,0,1,0,0-.28Z"/><path id="path27329" class="cls-6" d="M13.83,22.54a.81.81,0,0,0,.21.54.67.67,0,0,0,1,0,.79.79,0,0,0,.21-.54v-1H13.83v1Z"/><path id="path27331" class="cls-1" d="M14.94,21.77a.14.14,0,1,0,0,.28.14.14,0,0,0,0-.28Z"/><path id="path27333" class="cls-1" d="M14.54,22.15a.14.14,0,0,0-.14.14.13.13,0,0,0,.14.13.14.14,0,0,0,.14-.13A.14.14,0,0,0,14.54,22.15Z"/><path id="path27335" class="cls-1" d="M14.94,22.54a.14.14,0,1,0,0,.28.14.14,0,0,0,0-.28Z"/><path id="path27337" class="cls-1" d="M14.16,22.54a.14.14,0,0,0,0,.28.14.14,0,1,0,0-.28Z"/><path id="path27339" class="cls-1" d="M14.16,21.77a.14.14,0,0,0,0,.28.14.14,0,1,0,0-.28Z"/><path id="path27341" class="cls-6" d="M11.87,20.08a.74.74,0,0,0,.2.53.69.69,0,0,0,.5.23.64.64,0,0,0,.5-.23.75.75,0,0,0,.21-.53v-1H11.87Z"/><path id="path27343" class="cls-1" d="M13,19.31a.13.13,0,0,0-.13.14.13.13,0,0,0,.13.14.14.14,0,0,0,.14-.14A.14.14,0,0,0,13,19.31Z"/><path id="path27345" class="cls-1" d="M12.58,19.69a.14.14,0,0,0-.14.14.14.14,0,0,0,.28,0A.14.14,0,0,0,12.58,19.69Z"/><path id="path27347" class="cls-1" d="M13,20.08a.14.14,0,1,0,.14.14A.14.14,0,0,0,13,20.08Z"/><path id="path27349" class="cls-1" d="M12.21,20.08a.14.14,0,1,0,.14.14A.14.14,0,0,0,12.21,20.08Z"/><path id="path27351" class="cls-1" d="M12.21,19.31a.15.15,0,0,0-.15.14.15.15,0,0,0,.15.14.13.13,0,0,0,.13-.14A.13.13,0,0,0,12.21,19.31Z"/><path id="path27353" class="cls-4" d="M7.86,18a.65.65,0,0,1,.39-.65.65.65,0,0,1,.4.65Z"/><path id="path27355" class="cls-4" d="M7.54,17.37l-.07.6h.4a.55.55,0,0,1,.38-.58.58.58,0,0,1,.39.58H9L9,17.37Z"/><path id="path27357" class="cls-5" d="M9.05,18H8.64a.65.65,0,0,0-.39-.58s-.35.07-.36.56l-.42,0,0-.62,1.44,0Zm-.84-.61H7.54l0,.58.37,0A.5.5,0,0,1,8.21,17.38Zm.07,0a.58.58,0,0,1,.38.59l.34,0-.06-.57Z"/><path id="path27359" class="cls-4" d="M7.45,18h1.6s.06,0,.06.07,0,.08-.06.08H7.45s-.06,0-.06-.08S7.42,18,7.45,18Z"/><path id="path27361" class="cls-5" d="M9.05,18.14H7.45s-.08,0-.08-.1a.09.09,0,0,1,.08-.1h1.6a.09.09,0,0,1,.08.1C9.13,18.1,9.1,18.14,9.05,18.14ZM7.45,18v.1h1.6a0,0,0,0,0,0-.05Z"/><path id="path27363" class="cls-4" d="M8,18a.4.4,0,0,1,.22-.4.4.4,0,0,1,.22.4Z"/><path id="path27365" class="cls-5" d="M8.5,18H8a.43.43,0,0,1,.21-.45A.44.44,0,0,1,8.5,18Zm-.26-.4a.45.45,0,0,0-.19.38l.4,0A.38.38,0,0,0,8.24,17.59Z"/><path id="path27367" class="cls-4" d="M7.48,17.12H9s.05,0,.05.07a.06.06,0,0,1-.05.06H7.48a.06.06,0,0,1-.05-.06S7.45,17.12,7.48,17.12Z"/><path id="path27369" class="cls-5" d="M9,17.27H7.48a.08.08,0,0,1-.08-.08.09.09,0,0,1,.08-.1H9a.09.09,0,0,1,.08.1A.08.08,0,0,1,9,17.27Zm-1.54-.13v.09H9s0,0,0,0Z"/><path id="path27371" class="cls-4" d="M7.52,17.25H9s.06,0,.06.07a.06.06,0,0,1-.06.06H7.52a.06.06,0,0,1-.06-.06S7.48,17.25,7.52,17.25Z"/><path id="path27373" class="cls-5" d="M9,17.41H7.52a.09.09,0,0,1,0-.18H9a.09.09,0,0,1,0,.18Zm-1.46-.14v.09H9a0,0,0,0,0,0,0Z"/><path id="path27375" class="cls-4" d="M8,16.25h.12v.08h.08v-.08h.12v.08H8.4v-.08h.12v.19a.06.06,0,0,1-.06,0H8.05a.06.06,0,0,1-.06,0Z"/><path id="path27377" class="cls-5" d="M8.46,16.51H8l0-.07v-.19l.14,0,0,.1.06,0,0-.06.14,0,0,.1.07,0,0-.06.15,0,0,.23Zm-.38-.26-.09,0,0,.16.44,0,0,0v-.19l-.09,0,0,.06-.11,0,0-.11-.1,0,0,.06-.11,0Z"/><path id="path27379" class="cls-4" d="M8.42,16.51l0,.61h-.4l0-.61Z"/><path id="path27381" class="cls-5" d="M8.47,17.14H8.05V16.5l.37,0Zm-.07-.63-.33,0v.59l.36,0Z"/><path id="path27383" class="cls-4" d="M8.5,16.55h.11v.08h.08v-.08h.12v.08h.08v-.08H9v.19a0,0,0,0,1-.05.05h-.4a0,0,0,0,1-.05-.05Z"/><path id="path27385" class="cls-5" d="M9,16.81H8.52l0-.07v-.19l.14,0,0,.1.06,0,0-.06.14,0,0,.11.06,0,0-.06.13,0,0,.24Zm-.37-.26-.08,0,0,.17.43.05,0-.05v-.19l-.09,0,0,.06-.1,0,0-.11-.09,0,0,.06-.1,0Z"/><path id="path27387" class="cls-4" d="M8.93,16.79l0,.33H8.56v-.33Z"/><path id="path27389" class="cls-5" d="M9,17.14H8.56v-.35l.38,0Zm-.06-.35-.34,0v.31l.34,0Z"/><path id="path27391" class="cls-4" d="M7.5,16.55h.11v.08h.08v-.08H7.8v.08h.09v-.08H8v.19a0,0,0,0,1,0,.05h-.4a0,0,0,0,1,0-.05Z"/><path id="path27393" class="cls-5" d="M8,16.81H7.52l0-.07v-.19l.14,0,0,.1.06,0,0-.06.13,0,0,.1.06,0,0-.06.13,0,0,.24Zm-.37-.26-.08,0,0,.17.43.05,0-.05v-.19l-.09,0,0,.06-.11,0,0-.11-.09,0,0,.06-.1,0Z"/><path id="path27395" class="cls-4" d="M7.93,16.79l0,.33h-.4l0-.33Z"/><path id="path27397" class="cls-5" d="M8,17.14H7.55v-.35l.39,0Zm-.06-.35-.34,0v.31l.35,0Z"/><path id="path27399" class="cls-5" d="M8.21,16.7c0-.06.09-.06.08,0v.14H8.21Z"/><path id="path27401" class="cls-5" d="M8.71,16.91a0,0,0,1,1,.08,0V17H8.71Z"/><path id="path27403" class="cls-5" d="M7.71,16.91a0,0,0,1,1,.08,0V17H7.71Z"/><path id="path27405" class="cls-4" d="M12.3,16.25h.12v.08h.09v-.08h.11v.08h.09v-.08h.12v.19a.06.06,0,0,1-.06,0h-.41a0,0,0,0,1,0,0Z"/><path id="path27407" class="cls-5" d="M12.77,16.51h-.43l-.06-.07v-.19l.14,0,0,.1.07,0,0-.06.14,0,0,.1.06,0,0-.06.14,0,0,.23Zm-.37-.26-.1,0,0,.16.44,0,0,0v-.19l-.09,0,0,.06-.11,0,0-.11-.09,0,0,.06-.11,0Z"/><path id="path27409" class="cls-4" d="M12.74,16.51l0,.61h-.4l0-.61Z"/><path id="path27411" class="cls-5" d="M12.79,17.14h-.43v-.63l.37,0Zm-.07-.63-.33,0v.59l.36,0Z"/><path id="path27413" class="cls-4" d="M12.81,16.55h.11v.08H13v-.08h.11v.08h.08v-.08h.12v.19a.05.05,0,0,1-.05.05h-.41a.05.05,0,0,1,0-.05Z"/><path id="path27415" class="cls-5" d="M13.26,16.81h-.42l-.05-.07v-.19l.13,0,0,.1.07,0,0-.06.14,0,0,.11.06,0,0-.06.14,0,0,.24Zm-.37-.26-.08,0,0,.17.43.05,0-.05v-.19l-.09,0,0,.06-.11,0,0-.11-.08,0,0,.06-.11,0Z"/><path id="path27417" class="cls-4" d="M13.24,16.79l0,.33h-.39v-.33Z"/><path id="path27419" class="cls-5" d="M12.84,17.14l0-.35.38,0,0,.36Zm.38-.35-.34,0v.29h.37Z"/><path id="path27421" class="cls-4" d="M11.81,16.55h.11v.08H12v-.08h.12v.08h.08v-.08h.12v.19a.05.05,0,0,1-.05.05h-.41a0,0,0,0,1,0-.05Z"/><path id="path27423" class="cls-5" d="M12.27,16.81h-.43l-.06-.07v-.19l.14,0,0,.1.06,0,0-.06.14,0,0,.1.06,0,0-.06.14,0,0,.23Zm-.38-.26-.08,0,0,.17.44.05,0-.05v-.19l-.09,0,0,.06-.11,0,0-.11-.09,0,0,.06-.11,0Z"/><path id="path27425" class="cls-4" d="M12.24,16.79l0,.33h-.39v-.33Z"/><path id="path27427" class="cls-5" d="M12.28,17.14h-.41v-.35l.38,0Zm-.06-.35-.34,0v.31l.34,0Z"/><path id="path27429" class="cls-4" d="M12.17,18a.66.66,0,0,1,.39-.65A.64.64,0,0,1,13,18Z"/><path id="path27431" class="cls-4" d="M11.86,17.37l-.07.6h.39a.55.55,0,0,1,.38-.58A.58.58,0,0,1,13,18h.39l-.07-.6Z"/><path id="path27433" class="cls-5" d="M13.37,18H13a.64.64,0,0,0-.39-.58.54.54,0,0,0-.36.56l-.41,0,0-.62,1.44,0Zm-.85-.61h-.66l0,.58.36,0A.51.51,0,0,1,12.52,17.38Zm.08,0A.61.61,0,0,1,13,18l.33,0-.06-.57Z"/><path id="path27435" class="cls-4" d="M11.77,18h1.59a.07.07,0,0,1,.06.07.06.06,0,0,1-.06.08H11.77A.07.07,0,0,1,11.7,18,.08.08,0,0,1,11.77,18Z"/><path id="path27437" class="cls-5" d="M13.36,18.14H11.77a.09.09,0,0,1-.09-.1.1.1,0,0,1,.09-.1h1.59a.1.1,0,0,1,.09.1A.09.09,0,0,1,13.36,18.14ZM11.77,18v.1h1.59s0,0,0-.05Z"/><path id="path27439" class="cls-4" d="M12.34,18a.41.41,0,0,1,.22-.4.43.43,0,0,1,.23.4Z"/><path id="path27441" class="cls-5" d="M12.81,18h-.47a.45.45,0,0,1,.21-.45.43.43,0,0,1,.26.43Zm-.26-.4a.43.43,0,0,0-.18.38l.39,0A.38.38,0,0,0,12.55,17.59Z"/><path id="path27443" class="cls-4" d="M11.8,17.12h1.53a.07.07,0,0,1,.06.07.06.06,0,0,1-.06.06H11.8a.06.06,0,0,1-.06-.06A.07.07,0,0,1,11.8,17.12Z"/><path id="path27445" class="cls-5" d="M13.33,17.28H11.79a.09.09,0,0,1,0-.18h1.54a.09.09,0,0,1,0,.18Zm-1.54-.14v.09h1.54s0,0,0,0Z"/><path id="path27447" class="cls-4" d="M11.83,17.25h1.46s.06,0,.06.07a.05.05,0,0,1-.06.06H11.83a.06.06,0,0,1-.06-.06A.07.07,0,0,1,11.83,17.25Z"/><path id="path27449" class="cls-5" d="M13.29,17.41H11.83a.09.09,0,0,1,0-.18h1.46a.09.09,0,0,1,0,.18Zm-1.46-.13v.08h1.46a0,0,0,0,0,0,0Z"/><path id="path27451" class="cls-5" d="M12.52,16.7a0,0,0,0,1,.09,0v.15h-.09Z"/><path id="path27453" class="cls-5" d="M13,16.91a0,0,0,0,1,.09,0V17H13Z"/><path id="path27455" class="cls-5" d="M12,16.91a0,0,0,1,1,.08,0V17H12Z"/><path id="path27457" class="cls-4" d="M16.57,16.26h.11v.08h.09v-.08h.12v.08H17v-.08h.12v.19s0,0-.05,0h-.41s-.06,0-.06,0Z"/><path id="path27459" class="cls-5" d="M17,16.52H16.6l-.05-.07v-.19l.13,0,0,.11.06,0,0,0,.14,0,0,.11.06,0,0,0,.14,0,0,.24Zm-.38-.26-.09,0,0,.17.45,0,0,0v-.19l-.1,0,0,.06-.11,0,0-.1-.09,0,0,.06-.11,0Z"/><path id="path27461" class="cls-4" d="M17,16.51l0,.61h-.4l0-.61Z"/><path id="path27463" class="cls-5" d="M17.06,17.14h-.43v-.63l.38,0ZM17,16.51l-.32,0v.59l.36,0Z"/><path id="path27465" class="cls-4" d="M17.08,16.56h.1v.08h.09v-.09h.11v.09h.09v-.09h.11v.19a0,0,0,0,1,0,.05h-.4a0,0,0,0,1-.05-.05Z"/><path id="path27467" class="cls-5" d="M17.53,16.82h-.42l-.06-.08v-.19l.13,0,0,.11.06,0,0-.06.13,0,0,.11.06,0,0-.06.13,0,0,.24Zm-.37-.27-.08,0,0,.16.43.05,0-.05v-.19l-.09,0,0,.07-.11,0,0-.11-.09,0,0,.07-.11,0Z"/><path id="path27469" class="cls-4" d="M17.51,16.79l0,.33h-.4v-.33Z"/><path id="path27471" class="cls-5" d="M17.55,17.15h-.42v-.36l.39,0Zm-.07-.36-.33,0v.3l.35,0Z"/><path id="path27473" class="cls-4" d="M16.07,16.56h.11v.08h.09v-.08h.11v.08h.09v-.08h.11v.18a0,0,0,0,1,0,.05h-.4a.06.06,0,0,1-.06-.05Z"/><path id="path27475" class="cls-5" d="M16.53,16.82h-.42l-.06-.08v-.19l.13,0,0,.11.06,0,0-.06.13,0,0,.11.06,0,0-.06.13,0,0,.24Zm-.37-.27-.09,0,0,.16.43.05,0-.05v-.19l-.09,0,0,.06-.11,0,0-.11-.09,0,0,.06-.11,0Z"/><path id="path27477" class="cls-4" d="M16.51,16.79v.33h-.38v-.33Z"/><path id="path27479" class="cls-5" d="M16.55,17.15h-.42v-.36l.39,0Zm-.07-.36-.34,0,0,.3.34,0Z"/><path id="path27481" class="cls-4" d="M16.44,18a.66.66,0,0,1,.39-.65.64.64,0,0,1,.39.66Z"/><path id="path27483" class="cls-4" d="M16.12,17.37l-.06.6h.39a.54.54,0,0,1,.38-.58.59.59,0,0,1,.39.58h.39l-.07-.6Z"/><path id="path27485" class="cls-5" d="M17.63,18h-.41a.61.61,0,0,0-.39-.57.51.51,0,0,0-.36.55l-.41,0,0-.62,1.44,0Zm-.84-.61-.67,0,0,.57.37,0A.51.51,0,0,1,16.79,17.38Zm.07,0a.6.6,0,0,1,.38.59l.34,0-.07-.58Z"/><path id="path27487" class="cls-4" d="M16,18h1.6s.06,0,.06.08a.07.07,0,0,1-.06.07H16a.07.07,0,0,1-.06-.07S16,18,16,18Z"/><path id="path27489" class="cls-5" d="M17.63,18.14H16a.08.08,0,0,1-.08-.09c0-.06,0-.1.08-.1h1.6c.05,0,.08,0,.08.1A.08.08,0,0,1,17.63,18.14ZM16,18v.11h1.6a0,0,0,0,0,0-.05Z"/><path id="path27491" class="cls-4" d="M16.61,18a.41.41,0,0,1,.22-.4.41.41,0,0,1,.22.4Z"/><path id="path27493" class="cls-5" d="M17.08,18h-.47a.43.43,0,0,1,.2-.44.42.42,0,0,1,.27.42Zm-.27-.4a.49.49,0,0,0-.17.38L17,18A.4.4,0,0,0,16.81,17.59Z"/><path id="path27495" class="cls-4" d="M16.06,17.12H17.6a.07.07,0,0,1,0,.14H16.06s0,0,0-.07S16,17.12,16.06,17.12Z"/><path id="path27497" class="cls-5" d="M17.6,17.28H16.06a.09.09,0,0,1,0-.18H17.6a.09.09,0,0,1,0,.18Zm-1.54-.14v.09H17.6s0,0,0,0Z"/><path id="path27499" class="cls-4" d="M16.09,17.26h1.47a.06.06,0,0,1,.06.06.07.07,0,0,1-.06.07H16.09s-.05,0-.05-.07S16.06,17.26,16.09,17.26Z"/><path id="path27501" class="cls-5" d="M17.56,17.41H16.09a.09.09,0,0,1,0-.18h1.47a.09.09,0,0,1,0,.18Zm-1.47-.13v.09h1.47s0,0,0-.05Z"/><path id="path27503" class="cls-5" d="M16.79,16.7c0-.06.08-.06.08,0v.15h-.08Z"/><path id="path27505" class="cls-5" d="M17.29,16.91a0,0,0,1,1,.08,0V17h-.08Z"/><path id="path27507" class="cls-5" d="M16.28,16.91a0,0,0,1,1,.08,0V17h-.08Z"/><path id="path27509" class="cls-4" d="M8,20.63h.11v.08H8.2v-.08h.11v.08H8.4v-.08h.12v.18s0,.05-.06.05H8.05A0,0,0,0,1,8,20.81Z"/><path id="path27511" class="cls-5" d="M8.46,20.88H8l0-.07v-.18l.14,0,0,.11.07,0,0-.05.14,0,0,.11.07,0,0-.05.15,0,0,.24Zm-.37-.25-.09,0,0,.16.44.05,0-.05v-.18l-.1,0,0,.06-.11,0,0-.1-.09,0,0,.06-.11,0Z"/><path id="path27513" class="cls-4" d="M8.43,20.88l0,.61h-.4l0-.61Z"/><path id="path27515" class="cls-5" d="M8.48,21.51H8.05v-.63l.38,0Zm-.08-.63-.33,0v.59l.36,0Z"/><path id="path27517" class="cls-4" d="M8.5,20.92h.11V21H8.7v-.09h.11V21H8.9v-.09H9v.19a.05.05,0,0,1,0,.05H8.55a0,0,0,0,1-.05-.05Z"/><path id="path27519" class="cls-5" d="M9,21.18H8.53l-.06-.07v-.19l.14,0,0,.11.07,0,0-.06.14,0,0,.11.07,0,0-.06.14,0,0,.23Zm-.37-.26L8.5,21l0,.16.44.05,0-.05v-.19L8.9,21l0,.06-.11,0,0-.11L8.7,21l0,.06-.11,0Z"/><path id="path27521" class="cls-4" d="M8.94,21.16v.33H8.56v-.33Z"/><path id="path27523" class="cls-5" d="M9,21.51H8.56v-.35l.39,0Zm-.06-.35-.34,0v.31l.34,0Z"/><path id="path27525" class="cls-4" d="M7.5,20.93h.11V21h.08v-.09h.12V21h.08v-.09H8v.19a.06.06,0,0,1-.06.05h-.4a0,0,0,0,1,0-.05Z"/><path id="path27527" class="cls-5" d="M8,21.18H7.52l0-.07v-.18l.14,0,0,.11.06,0,0-.07.14,0,0,.11.06,0,0-.07.14,0,0,.23Zm-.37-.25L7.5,21l0,.16.44.05,0-.05v-.19l-.1,0,0,.06-.11,0,0-.11-.1,0,0,.06-.11,0Z"/><path id="path27529" class="cls-4" d="M7.93,21.16l0,.33H7.56v-.33Z"/><path id="path27531" class="cls-5" d="M8,21.51H7.56v-.35l.38,0Zm-.06-.35-.34,0v.31l.34,0Z"/><path id="path27533" class="cls-4" d="M7.86,22.38a.66.66,0,0,1,.39-.65.65.65,0,0,1,.4.65Z"/><path id="path27535" class="cls-4" d="M7.55,21.74l-.07.6h.39a.56.56,0,0,1,.38-.58.58.58,0,0,1,.39.58H9L9,21.74Z"/><path id="path27537" class="cls-5" d="M9.06,22.36H8.64a.6.6,0,0,0-.39-.57.5.5,0,0,0-.35.55l-.42,0,0-.62,1.44,0Zm-.85-.61H7.55l0,.59.37,0A.52.52,0,0,1,8.21,21.75Zm.07,0a.61.61,0,0,1,.39.59l.33,0-.06-.58Z"/><path id="path27539" class="cls-4" d="M7.45,22.34h1.6a.07.07,0,0,1,.07.08.07.07,0,0,1-.07.07H7.45a.07.07,0,0,1-.06-.07C7.39,22.37,7.42,22.34,7.45,22.34Z"/><path id="path27541" class="cls-5" d="M9.05,22.51H7.45a.08.08,0,0,1-.08-.09c0-.06,0-.1.08-.1h1.6a.09.09,0,0,1,.09.1A.09.09,0,0,1,9.05,22.51Zm-1.6-.15v.11h1.6a0,0,0,0,0,0,0Z"/><path id="path27543" class="cls-4" d="M8,22.34a.43.43,0,0,1,.22-.4.41.41,0,0,1,.22.4Z"/><path id="path27545" class="cls-5" d="M8.5,22.36H8c0-.34.2-.44.22-.44a.41.41,0,0,1,.25.42ZM8.24,22a.45.45,0,0,0-.18.38l.39,0A.4.4,0,0,0,8.24,22Z"/><path id="path27547" class="cls-4" d="M7.49,21.49H9a.07.07,0,0,1,.06.07.06.06,0,0,1-.06.06H7.49a.06.06,0,0,1-.06-.06S7.45,21.49,7.49,21.49Z"/><path id="path27549" class="cls-5" d="M9,21.65H7.49a.09.09,0,1,1,0-.18H9a.09.09,0,0,1,0,.18Zm-1.53-.14v.09H9s0,0,0,0Z"/><path id="path27551" class="cls-4" d="M7.52,21.63H9a.07.07,0,0,1,.07.06.07.07,0,0,1-.07.07H7.52a.07.07,0,0,1-.06-.07A.06.06,0,0,1,7.52,21.63Z"/><path id="path27553" class="cls-5" d="M9,21.78H7.52a.09.09,0,0,1,0-.18H9a.09.09,0,0,1,0,.18Zm-1.46-.13v.09H9s0,0,0,0Z"/><path id="path27555" class="cls-5" d="M8.21,21.07a0,0,0,1,1,.09,0v.15H8.21Z"/><path id="path27557" class="cls-5" d="M8.72,21.28a0,0,0,1,1,.07,0v.12H8.72Z"/><path id="path27559" class="cls-5" d="M7.71,21.28a0,0,0,1,1,.08,0v.12H7.71Z"/><path id="path27561" class="cls-4" d="M16.32,25.24l.08.08-.06.06.06.06.06-.06.08.08-.06.06.07.06.06-.06.08.09-.13.13a.06.06,0,0,1-.08,0l-.29-.3s0-.05,0-.07Z"/><path id="path27563" class="cls-5" d="M16.52,25.78l-.06,0-.3-.31v-.09l.14-.13.1.08-.05.09.06,0,0-.06.12.09,0,.09,0,0,0-.06.13.08Zm-.21-.53-.1.14.31.36,0,0,.13-.13-.09-.05,0,.06-.09-.06.06-.09-.09-.06,0,.07-.09-.07.05-.09Z"/><path id="path27565" class="cls-4" d="M16.45,25.73l-.42.45-.28-.29.45-.41Z"/><path id="path27567" class="cls-5" d="M16,26.21l-.29-.3.44-.45.28.25Zm.15-.72-.42.42.27.23.4-.43Z"/><path id="path27569" class="cls-4" d="M16.46,25.81l.08.08-.06.05.06.06.07-.06.07.09-.05.06.05.05.06-.05.09.08-.14.13a0,0,0,0,1-.07,0L16.33,26a0,0,0,0,1,0-.07Z"/><path id="path27571" class="cls-5" d="M16.66,26.34l-.05,0L16.3,26v-.09l.14-.13.11.08,0,.09,0,0,0-.06.13.08-.07.09.07,0,0-.06.11.08Zm-.21-.52-.1.14.31.36,0,0,.13-.13-.08,0,0,.06-.1-.06.06-.09L16.58,26l0,.06L16.47,26l.06-.09Z"/><path id="path27573" class="cls-4" d="M16.61,26.28l-.23.24-.27-.27.24-.23Z"/><path id="path27575" class="cls-5" d="M16.38,26.56l-.29-.3.24-.25.3.25ZM16.33,26l-.2.22.25.23.21-.23Z"/><path id="path27577" class="cls-4" d="M15.76,25.1l.07.08-.05.06.05.06.07-.06.08.08-.06.06.06.06.05-.06.09.08-.14.13s0,0-.07,0l-.28-.29s0-.05,0-.07Z"/><path id="path27579" class="cls-5" d="M16,25.63l0,0-.29-.3v-.1l.13-.13.11.08-.06.09.06,0,0-.06.11.08-.06.09.06,0,0-.06.11.08Zm-.21-.52-.1.14.31.36v0l.14-.14L16,25.39l0,.06-.09-.06L16,25.3l-.08-.05,0,.06-.09-.06.06-.09Z"/><path id="path27581" class="cls-4" d="M15.9,25.58l-.22.24-.28-.28.24-.22Z"/><path id="path27583" class="cls-5" d="M15.68,25.85l-.29-.29.23-.26.29.26Zm-.06-.52-.21.23.26.22.21-.22Z"/><path id="path27585" class="cls-4" d="M15,26.39a.66.66,0,0,1,.73-.19.65.65,0,0,1-.18.74Z"/><path id="path27587" class="cls-4" d="M15.21,25.71l-.47.38.28.27a.52.52,0,0,1,.68-.13.58.58,0,0,1-.14.68l.28.28.38-.48Z"/><path id="path27589" class="cls-5" d="M15.84,27.22l-.29-.29a.62.62,0,0,0,.13-.69.49.49,0,0,0-.22,0,.6.6,0,0,0-.43.19l-.3-.27.47-.42,1,1Zm-.1-1a1,1,0,0,1,0,.18.67.67,0,0,1-.19.5l.25.22.36-.46Zm-.54-.52-.44.38.27.24a.62.62,0,0,1,.65-.16Z"/><path id="path27591" class="cls-4" d="M14.72,26.07l1.14,1.13a.08.08,0,0,1,0,.1s-.08,0-.1,0l-1.13-1.13a.07.07,0,0,1,0-.1A.06.06,0,0,1,14.72,26.07Z"/><path id="path27593" class="cls-5" d="M15.79,27.35l0,0L14.6,26.19a.08.08,0,0,1,0-.12l.08,0,1.18,1.16s0,.08,0,.12Zm-1.15-1.19,1.15,1.16,0,0-1.12-1.19-.09.09Z"/><path id="path27595" class="cls-4" d="M15.14,26.48a.4.4,0,0,1,.43-.13.43.43,0,0,1-.12.44Z"/><path id="path27597" class="cls-5" d="M15.45,26.82l-.33-.32c.24-.3.46-.18.46-.18a.44.44,0,0,1-.12.49Zm0-.47a.42.42,0,0,0-.3.15l.28.26a.41.41,0,0,0,.11-.4Z"/><path id="path27599" class="cls-4" d="M15.35,25.49l1.08,1.09a.06.06,0,0,1,0,.09.07.07,0,0,1-.09,0l-1.08-1.08a.06.06,0,0,1,0-.09A.08.08,0,0,1,15.35,25.49Z"/><path id="path27601" class="cls-5" d="M16.38,26.71l-.06,0L15.23,25.6a.11.11,0,0,1,0-.12h.12l1.09,1.08a.09.09,0,0,1,0,.12Zm-1-1.2-.06.06,1.11,1.12,0,0Z"/><path id="path27603" class="cls-4" d="M15.28,25.61l1,1a.06.06,0,1,1-.09.09l-1-1a.06.06,0,0,1,0-.09A.06.06,0,0,1,15.28,25.61Z"/><path id="path27605" class="cls-5" d="M16.26,26.78l-.05,0-1.05-1a.11.11,0,0,1,0-.12h.12l1,1a.09.09,0,0,1,0,.12Zm-1-1.15-.06.06,1.06,1.07,0,0Z"/><path id="path27607" class="cls-5" d="M16.16,25.7c0-.05.1,0,.05.06l-.1.1-.05-.06Z"/><path id="path27609" class="cls-5" d="M16.36,26.2c.05,0,.1,0,.06.06l-.08.08-.06-.06Z"/><path id="path27611" class="cls-5" d="M15.66,25.49s.09,0,.05.05l-.08.09-.05-.06Z"/><path id="path27613" class="cls-4" d="M16.56,20.63h.12v.08h.08v-.08h.12v.08H17v-.08h.11v.18s0,.05,0,.05h-.41a.06.06,0,0,1-.06-.05Z"/><path id="path27615" class="cls-5" d="M17,20.89h-.44l-.05-.08v-.18l.14,0,0,.11.05,0,0-.06.14,0,0,.11.06,0,0-.06.14,0,0,.24Zm-.37-.26-.1,0,0,.16.45.05,0-.05v-.18l-.09,0,0,.06-.11,0,0-.1-.1,0,0,.06-.1,0Z"/><path id="path27617" class="cls-4" d="M17,20.88l0,.61h-.41l0-.61Z"/><path id="path27619" class="cls-5" d="M17.05,21.51h-.43v-.63l.38,0ZM17,20.88l-.33,0v.59l.37,0Z"/><path id="path27621" class="cls-4" d="M17.07,20.93h.11V21h.08v-.09h.12V21h.08v-.09h.12v.19a0,0,0,0,1,0,.05h-.41a0,0,0,0,1-.05-.05Z"/><path id="path27623" class="cls-5" d="M17.53,21.18H17.1L17,21.11v-.18l.14,0,0,.11.05,0,0-.06.14,0,0,.11.05,0,0-.06.14,0,0,.24Zm-.37-.25-.09,0,0,.16.44.05,0-.05v-.19l-.1,0,0,.06-.1,0,0-.11-.09,0,0,.06-.1,0Z"/><path id="path27625" class="cls-4" d="M17.51,21.16v.33h-.39v-.33Z"/><path id="path27627" class="cls-5" d="M17.54,21.51h-.41l0-.35.4,0Zm-.06-.35-.34,0v.31l.34,0Z"/><path id="path27629" class="cls-4" d="M16.07,20.93h.11V21h.08v-.09h.12V21h.08v-.09h.12v.19a0,0,0,0,1,0,.05h-.41a0,0,0,0,1-.05-.05Z"/><path id="path27631" class="cls-5" d="M16.53,21.18h-.44L16,21.11v-.18l.14,0,0,.11.05,0,0-.06.14,0,0,.11.06,0,0-.06.14,0,0,.24Zm-.37-.25-.09,0,0,.16.44.05,0-.05v-.19l-.1,0,0,.06-.1,0,0-.11-.1,0,0,.06-.1,0Z"/><path id="path27633" class="cls-4" d="M16.51,21.16v.33h-.39v-.33Z"/><path id="path27635" class="cls-5" d="M16.11,21.51v-.35l.4,0,0,.35Zm.37-.35-.35,0,0,.29h.37Z"/><path id="path27637" class="cls-4" d="M16.43,22.38a.68.68,0,0,1,.39-.65.65.65,0,0,1,.4.65Z"/><path id="path27639" class="cls-4" d="M16.11,21.74l-.06.6h.39a.54.54,0,0,1,.39-.58.59.59,0,0,1,.38.58h.4l-.08-.6Z"/><path id="path27641" class="cls-5" d="M17.63,22.36h-.42a.58.58,0,0,0-.39-.57.51.51,0,0,0-.36.55l-.41,0,0-.62,1.44,0Zm-.85-.61h-.67l0,.59.36,0A.53.53,0,0,1,16.78,21.75Zm.08,0a.6.6,0,0,1,.37.59l.35,0-.08-.58Z"/><path id="path27643" class="cls-4" d="M16,22.35h1.59s.06,0,.06.07,0,.07-.06.07H16a.07.07,0,0,1,0-.14Z"/><path id="path27645" class="cls-5" d="M17.62,22.51H16a.09.09,0,0,1-.09-.09.09.09,0,0,1,.09-.1h1.59c.05,0,.08,0,.08.1A.08.08,0,0,1,17.62,22.51ZM16,22.37v.1h1.59a0,0,0,0,0,0,0Z"/><path id="path27647" class="cls-4" d="M16.61,22.34a.41.41,0,0,1,.21-.4.41.41,0,0,1,.22.4Z"/><path id="path27649" class="cls-5" d="M17.07,22.36h-.46a.4.4,0,0,1,.2-.44.42.42,0,0,1,.26.42Zm-.26-.4a.45.45,0,0,0-.18.38l.39,0A.39.39,0,0,0,16.81,22Z"/><path id="path27651" class="cls-4" d="M16.06,21.5h1.53a.06.06,0,0,1,.06.06s0,.07-.06.07H16.06s-.06,0-.06-.07A.06.06,0,0,1,16.06,21.5Z"/><path id="path27653" class="cls-5" d="M17.59,21.65H16.06a.09.09,0,0,1,0-.18h1.53a.09.09,0,0,1,0,.18Zm-1.53-.13v.08h1.53a0,0,0,0,0,0,0Z"/><path id="path27655" class="cls-4" d="M16.09,21.63h1.47a.06.06,0,0,1,.05.06s0,.07-.05.07H16.09a.07.07,0,0,1-.06-.07A.06.06,0,0,1,16.09,21.63Z"/><path id="path27657" class="cls-5" d="M17.56,21.79H16.09a.1.1,0,0,1-.08-.1.09.09,0,0,1,.08-.09h1.47a.08.08,0,0,1,.07.09S17.6,21.79,17.56,21.79Zm-1.47-.14v.09h1.47s0,0,0,0Z"/><path id="path27659" class="cls-5" d="M16.78,21.07a0,0,0,1,1,.08,0v.15h-.08Z"/><path id="path27661" class="cls-5" d="M17.28,21.28a0,0,0,1,1,.08,0v.12h-.08Z"/><path id="path27663" class="cls-5" d="M16.28,21.28a0,0,0,1,1,.08,0v.12h-.08Z"/><path id="path27665" class="cls-4" d="M8.42,25.6l.08-.08.06.06.06-.06-.06-.06.08-.08.06.05.06-.05-.06-.06.08-.09.14.14s0,0,0,.07l-.3.29a.06.06,0,0,1-.07,0Z"/><path id="path27667" class="cls-5" d="M8.58,25.77l-.05,0-.13-.13.08-.12.09.06,0-.06-.06,0,.08-.12.1.05,0-.06-.07,0,.09-.12.18.16,0,.09Zm-.1-.23-.05.08.15.13,0,0,.3-.29-.13-.17,0,.08,0,0,0,.1-.1-.06,0,.09.06,0-.06.09Z"/><path id="path27669" class="cls-4" d="M8.9,25.47l.45.42-.28.28-.42-.45Z"/><path id="path27671" class="cls-5" d="M9.07,26.2l-.43-.46.25-.28.48.41Zm-.18-.71-.22.25.4.4.27-.27Z"/><path id="path27673" class="cls-4" d="M9,25.45l.08-.07.06.05.06-.05-.06-.06.08-.09.06.06.06-.06-.06-.06.09-.08.13.14a0,0,0,0,1,0,.07l-.28.29s0,0-.07,0Z"/><path id="path27675" class="cls-5" d="M9.15,25.63l-.05,0L9,25.47l.08-.11.09.05,0-.05-.07,0,.09-.11.09.05,0-.05-.05,0,.07-.11.17.14v.1Zm-.1-.24L9,25.47l.15.13,0,0,.29-.29-.14-.17-.05.08.07,0-.06.09-.09-.06,0,.08.06,0-.06.09Z"/><path id="path27677" class="cls-4" d="M9.46,25.32l.24.22-.28.28-.22-.25Z"/><path id="path27679" class="cls-5" d="M9.42,25.85l-.24-.26.27-.29.27.22Zm0-.52-.23.26.2.19.26-.26Z"/><path id="path27681" class="cls-4" d="M8.27,26.16l.08-.07.07.05.05-.05L8.41,26l.09-.09.05.06.07-.06-.07-.05.08-.09.14.14s0,0,0,.06l-.29.3H8.41Z"/><path id="path27683" class="cls-5" d="M8.45,26.33l-.06,0-.13-.13.08-.11.09.06,0-.06,0,0,.08-.11.09.06,0-.06-.06,0,.08-.11.17.14V26Zm-.11-.23-.05.08.16.13,0,0L8.75,26l-.13-.17,0,.08.06,0L8.57,26,8.48,26,8.43,26l.06,0-.06.09Z"/><path id="path27685" class="cls-4" d="M8.75,26l.24.23-.27.27-.22-.24Z"/><path id="path27687" class="cls-5" d="M8.72,26.55l-.25-.25.27-.3.27.23Zm0-.51-.23.26.21.19L9,26.23Z"/><path id="path27689" class="cls-4" d="M9.56,26.93a.65.65,0,0,1-.18-.73.65.65,0,0,1,.74.18Z"/><path id="path27691" class="cls-4" d="M8.89,26.71l.38.47.27-.28a.56.56,0,0,1-.14-.68.59.59,0,0,1,.69.13l.27-.27-.47-.38Z"/><path id="path27693" class="cls-5" d="M9.26,27.21l-.39-.49,1-1,.51.37-.28.31a.74.74,0,0,0-.45-.18.51.51,0,0,0-.23,0,.5.5,0,0,0,.14.64Zm.1-1-.46.48.37.41.25-.26a.51.51,0,0,1-.2-.48A.46.46,0,0,1,9.36,26.25Zm.29-.11a.64.64,0,0,1,.45.2l.25-.28-.48-.34-.45.47A.61.61,0,0,1,9.65,26.14Z"/><path id="path27695" class="cls-4" d="M9.25,27.2l1.13-1.13s.06,0,.09,0,0,.08,0,.1L9.35,27.3a.06.06,0,0,1-.09,0S9.22,27.22,9.25,27.2Z"/><path id="path27697" class="cls-5" d="M9.31,27.34l-.07,0a.11.11,0,0,1,0-.13l1.13-1.13c.08,0,.11,0,.13,0a.11.11,0,0,1,0,.13Zm1.11-1.27L9.27,27.21v.08l.05,0,0,0,1.13-1.14v-.08Z"/><path id="path27699" class="cls-4" d="M9.66,26.78a.42.42,0,0,1-.14-.43.44.44,0,0,1,.45.13Z"/><path id="path27701" class="cls-5" d="M9.66,26.81h0a.44.44,0,0,1-.14-.46s.24-.12.48.12Zm-.13-.44a.43.43,0,0,0,.13.38l.29-.29A.48.48,0,0,0,9.53,26.37Z"/><path id="path27703" class="cls-4" d="M8.67,26.57l1.08-1.08a.07.07,0,0,1,.1,0,.07.07,0,0,1,0,.09L8.77,26.67a.08.08,0,0,1-.1,0A.07.07,0,0,1,8.67,26.57Z"/><path id="path27705" class="cls-5" d="M8.72,26.7l-.06,0v-.12l1.09-1.08h.12a.11.11,0,0,1,0,.12Zm0,0v0l0,0,1.08-1.08,0-.08h0l-1.11,1.1,0,.07Z"/><path id="path27707" class="cls-4" d="M8.79,26.64l1-1a.07.07,0,0,1,.09,0,.06.06,0,0,1,0,.09l-1,1a.05.05,0,0,1-.08,0A.06.06,0,0,1,8.79,26.64Z"/><path id="path27709" class="cls-5" d="M8.85,26.77l-.07,0a.09.09,0,0,1,0-.12l1-1h.12a.09.09,0,0,1,0,.12Zm0,0v0l0,0,1-1v-.07H9.86l-1.06,1v.07Z"/><path id="path27711" class="cls-5" d="M8.89,25.75s0-.1.06-.06l.1.1L9,25.85Z"/><path id="path27713" class="cls-5" d="M9.39,25.54s0-.09.06-.05l.07.08,0,.05Z"/><path id="path27715" class="cls-5" d="M8.68,26.25s0-.09.06-.05l.08.08-.06,0Z"/></g></g></g></svg>