<svg width="39" height="39" viewBox="0 0 39 39" fill="none" xmlns="http://www.w3.org/2000/svg">
<path id="path96965" d="M28.8268 19.5C28.8268 14.3491 24.6241 10.2283 19.5368 10.2283C14.4502 10.2283 10.2477 14.4226 10.2477 19.5C10.2477 24.5774 14.3765 28.8453 19.5368 28.8453C24.6241 28.8453 28.8268 24.6509 28.8268 19.5ZM39 16.8509V22.2226H35.2405C34.7974 24.6509 33.9126 26.8585 32.5132 28.7717L35.2405 31.4943L31.4065 35.3208L28.7523 32.5245C26.8353 33.9227 24.6241 34.8057 22.1911 35.2472V39H16.8088V35.2472C14.3765 34.8057 12.1646 33.9227 10.2477 32.5245L7.59338 35.2472L3.83317 31.4208L6.48744 28.6981C5.16031 26.7849 4.20252 24.5774 3.76012 22.1491H0V16.7774H3.76012C4.12921 14.3491 5.08732 12.1415 6.48744 10.2283L3.83317 7.57925L7.66711 3.82641L10.3213 6.47548C12.2383 5.15095 14.4502 4.19433 16.8825 3.75283V0H22.2648V3.82641C24.6972 4.19428 26.9098 5.15095 28.8268 6.54907L31.554 3.9L35.3879 7.65284L32.6599 10.3019C34.0608 12.2151 34.9456 14.4226 35.3879 16.8509H39Z" fill="white"/>
</svg>
